<svg xmlns="http://www.w3.org/2000/svg" style="display: none;">
    <symbol id="calendar-icon" viewBox="0 0 56 56">
        <path
            d="M51.958 6.5897L38.4462 6.58975V3.22656C38.4462 2.29422 37.691 1.53906 36.7587 1.53906C35.8264 1.53906 35.0712 2.29422 35.0712 3.22656V6.58891H21.5712V3.22656C21.5712 2.29422 20.816 1.53906 19.8837 1.53906C18.9514 1.53906 18.1962 2.29422 18.1962 3.22656V6.58891H4.70801C2.84416 6.58891 1.33301 8.10006 1.33301 9.96391V52.1514C1.33301 54.0152 2.84416 55.5264 4.70801 55.5264H51.958C53.8218 55.5264 55.333 54.0152 55.333 52.1514V9.96391C55.333 8.10085 53.8218 6.5897 51.958 6.5897ZM51.958 52.1514H4.70801V9.96391H18.1962V11.6641C18.1962 12.5964 18.9514 13.3516 19.8837 13.3516C20.816 13.3516 21.5712 12.5964 21.5712 11.6641V9.96475H35.0712V11.6649C35.0712 12.5972 35.8264 13.3524 36.7587 13.3524C37.691 13.3524 38.4462 12.5972 38.4462 11.6649V9.96475H51.958V52.1514ZM40.1455 28.5272H43.5205C44.452 28.5272 45.208 27.7712 45.208 26.8397V23.4647C45.208 22.5332 44.452 21.7772 43.5205 21.7772H40.1455C39.214 21.7772 38.458 22.5332 38.458 23.4647V26.8397C38.458 27.7712 39.214 28.5272 40.1455 28.5272ZM40.1455 42.0264H43.5205C44.452 42.0264 45.208 41.2712 45.208 40.3389V36.9639C45.208 36.0324 44.452 35.2764 43.5205 35.2764H40.1455C39.214 35.2764 38.458 36.0324 38.458 36.9639V40.3389C38.458 41.272 39.214 42.0264 40.1455 42.0264ZM30.0205 35.2764H26.6455C25.714 35.2764 24.958 36.0324 24.958 36.9639V40.3389C24.958 41.2712 25.714 42.0264 26.6455 42.0264H30.0205C30.952 42.0264 31.708 41.2712 31.708 40.3389V36.9639C31.708 36.0332 30.952 35.2764 30.0205 35.2764ZM30.0205 21.7772H26.6455C25.714 21.7772 24.958 22.5332 24.958 23.4647V26.8397C24.958 27.7712 25.714 28.5272 26.6455 28.5272H30.0205C30.952 28.5272 31.708 27.7712 31.708 26.8397V23.4647C31.708 22.5324 30.952 21.7772 30.0205 21.7772ZM16.5205 21.7772H13.1455C12.214 21.7772 11.458 22.5332 11.458 23.4647V26.8397C11.458 27.7712 12.214 28.5272 13.1455 28.5272H16.5205C17.452 28.5272 18.208 27.7712 18.208 26.8397V23.4647C18.208 22.5324 17.452 21.7772 16.5205 21.7772ZM16.5205 35.2764H13.1455C12.214 35.2764 11.458 36.0324 11.458 36.9639V40.3389C11.458 41.2712 12.214 42.0264 13.1455 42.0264H16.5205C17.452 42.0264 18.208 41.2712 18.208 40.3389V36.9639C18.208 36.0332 17.452 35.2764 16.5205 35.2764Z"
            stroke-width="1.77469"></path>
    </symbol>
    <symbol id="scheduled-services-icon" viewBox="0 0 54 61">
        <path fill-rule="evenodd" clip-rule="evenodd"
            d="M12.1215 48.3232H32.7326V42.4049H12.1215V48.3232ZM12.1215 36.4866H41.566V30.5682H12.1215V36.4866ZM12.1215 24.6499H41.566V18.7316H12.1215V24.6499ZM6.23264 54.2416H47.4549V12.8132H6.23264V54.2416ZM0.34375 60.1599V6.8949H18.5993C19.2373 5.1194 20.3051 3.68913 21.8029 2.6041C23.2986 1.51908 24.9789 0.976562 26.8438 0.976562C28.7086 0.976562 30.3898 1.51908 31.8876 2.6041C33.3834 3.68913 34.4502 5.1194 35.0882 6.8949H53.3438V60.1599H0.34375ZM26.8438 10.5939C27.4817 10.5939 28.0098 10.3838 28.4279 9.96355C28.844 9.54532 29.0521 9.01563 29.0521 8.37448C29.0521 7.73333 28.844 7.20265 28.4279 6.78245C28.0098 6.36422 27.4817 6.1551 26.8438 6.1551C26.2058 6.1551 25.6787 6.36422 25.2626 6.78245C24.8445 7.20265 24.6354 7.73333 24.6354 8.37448C24.6354 9.01563 24.8445 9.54532 25.2626 9.96355C25.6787 10.3838 26.2058 10.5939 26.8438 10.5939Z"
            stroke-width="1.77469"></path>
    </symbol>
    <symbol id="submit-service-icon" class="fill icon-availability" viewBox="0 0 1440 809.999993" height=""
        preserveAspectRatio="xMidYMid meet" version="1.0">
        <defs>
            <clipPath id="3b00f15639">
                <path d="M 610.59375 289.5 L 829.300781 289.5 L 829.300781 520.5 L 610.59375 520.5 Z M 610.59375 289.5 "
                    clip-rule="nonzero"></path>
            </clipPath>
        </defs>
        <g clip-path="url(#3b00f15639)">
            <path fill=""
                d="M 647.039062 319.894531 L 634.902344 319.894531 C 628.488281 319.894531 623.242188 324.855469 622.789062 331.152344 L 622.75 332.054688 L 622.75 350.285156 L 817.164062 350.285156 L 817.164062 332.054688 C 817.164062 325.636719 812.203125 320.386719 805.933594 319.933594 L 805.011719 319.894531 L 792.855469 319.894531 L 792.875 332.054688 C 792.875 335.398438 790.148438 338.125 786.789062 338.125 C 783.449219 338.125 780.722656 335.398438 780.722656 332.054688 L 780.699219 319.894531 L 659.191406 319.894531 L 659.191406 332.054688 C 659.191406 335.398438 656.488281 338.125 653.125 338.125 C 649.765625 338.125 647.058594 335.398438 647.058594 332.054688 Z M 744.871094 407.667969 L 745.445312 408.179688 C 747.636719 410.375 747.800781 413.820312 745.9375 416.199219 L 745.445312 416.773438 L 714.332031 447.902344 C 713.265625 448.949219 711.625 449.070312 710.457031 448.25 L 710.027344 447.902344 L 703.589844 441.464844 L 692.582031 430.472656 C 690.207031 428.113281 690.207031 424.257812 692.582031 421.878906 C 694.941406 419.5 698.792969 419.5 701.171875 421.878906 L 712.179688 432.851562 L 736.855469 408.179688 C 739.03125 405.984375 742.492188 405.820312 744.871094 407.667969 Z M 811.324219 465.785156 L 786.789062 465.785156 L 785.886719 465.824219 C 779.921875 466.257812 775.125 471.015625 774.675781 476.980469 L 774.632812 477.945312 L 774.632812 502.492188 C 781.847656 497.816406 788.59375 492.34375 794.882812 486.046875 C 801.175781 479.75 806.648438 473.003906 811.324219 465.785156 Z M 817.164062 362.445312 L 622.75 362.445312 L 622.75 496.175781 C 622.75 502.574219 627.707031 507.847656 633.980469 508.296875 L 634.902344 508.339844 L 746 508.339844 L 746 508.316406 L 756.410156 508.316406 L 757.109375 508.277344 C 759.917969 507.949219 762.128906 505.734375 762.457031 502.945312 L 762.5 502.226562 L 762.5 477.945312 L 762.519531 476.734375 C 763.132812 464.265625 773.097656 454.300781 785.539062 453.664062 L 786.789062 453.625 L 811.097656 453.625 L 811.796875 453.582031 C 814.601562 453.273438 816.796875 451.058594 817.125 448.25 L 817.164062 447.554688 Z M 786.789062 289.5 C 790.148438 289.5 792.855469 292.226562 792.855469 295.570312 L 792.855469 307.730469 L 805.011719 307.730469 C 818.4375 307.730469 829.320312 318.621094 829.320312 332.054688 L 829.320312 452.640625 C 829.320312 456.71875 828.296875 460.738281 826.328125 464.328125 C 820.28125 475.363281 812.65625 485.472656 803.492188 494.640625 C 794.3125 503.828125 784.207031 511.457031 773.179688 517.503906 C 769.589844 519.472656 765.574219 520.5 761.496094 520.5 L 634.902344 520.5 C 621.476562 520.5 610.59375 509.609375 610.59375 496.175781 L 610.59375 332.054688 C 610.59375 318.621094 621.476562 307.730469 634.902344 307.730469 L 647.039062 307.730469 L 647.058594 295.570312 C 647.058594 292.226562 649.765625 289.5 653.125 289.5 C 656.488281 289.5 659.191406 292.226562 659.191406 295.570312 L 659.191406 307.730469 L 780.699219 307.730469 L 780.722656 295.570312 C 780.722656 292.226562 783.449219 289.5 786.789062 289.5 ">
            </path>
        </g>
    </symbol>
    <symbol id="notification-icon" viewBox="0 0 60 68">
        <path
            d="M50.0555 47.6875C54.2067 49.4729 56.7241 51.8151 56.7241 54.3835C56.7241 59.9759 44.7806 64.5085 30.0495 64.5085C15.3185 64.5085 3.375 59.9759 3.375 54.3835C3.375 51.8185 5.89241 49.4695 10.0436 47.6875"
            stroke-width="6.2114" stroke-linecap="round" stroke-linejoin="round"></path>
        <path
            d="M46.7211 22.1313C46.7211 32.5702 30.0495 51.0078 30.0495 51.0078C30.0495 51.0078 13.3779 32.5702 13.3779 22.1313C13.3779 11.6958 20.8435 3.75781 30.0495 3.75781C39.2556 3.75781 46.7211 11.6958 46.7211 22.1313V22.1313Z"
            stroke-width="6.2114" stroke-linecap="round" stroke-linejoin="round"></path>
        <path
            d="M30.0496 24C31.8911 24 33.384 22.489 33.384 20.625C33.384 18.761 31.8911 17.25 30.0496 17.25C28.2082 17.25 26.7153 18.761 26.7153 20.625C26.7153 22.489 28.2082 24 30.0496 24Z"
            stroke-width="6.2114" stroke-linecap="round" stroke-linejoin="round"></path>
    </symbol>
    <symbol id="myprofile" viewBox="0 0 55 55">
        <path
            d="M27.3652 54.5313C30.3442 54.5313 32.7815 52.0389 32.7815 48.9928H21.949C21.949 52.0389 24.3863 54.5313 27.3652 54.5313ZM43.614 37.9159V24.0697C43.614 15.5682 39.1997 8.45125 31.4274 6.56817V4.6851C31.4274 2.38663 29.613 0.53125 27.3652 0.53125C25.1175 0.53125 23.3031 2.38663 23.3031 4.6851V6.56817C15.5578 8.45125 11.1165 15.5405 11.1165 24.0697V37.9159L5.70024 43.4543V46.2236H49.0302V43.4543L43.614 37.9159ZM38.1977 40.6851H16.5327V24.0697C16.5327 17.202 20.622 11.6082 27.3652 11.6082C34.1085 11.6082 38.1977 17.202 38.1977 24.0697V40.6851ZM15.3953 4.90663L11.5227 0.946635C5.02321 6.01433 0.744372 13.8236 0.365234 22.6851H5.78148C5.97332 19.1732 6.93739 15.7508 8.60191 12.6726C10.2664 9.5945 12.5885 6.93995 15.3953 4.90663V4.90663ZM48.949 22.6851H54.3652C53.959 13.8236 49.6802 6.01433 43.2078 0.946635L39.3622 4.90663C42.157 6.94996 44.4687 9.60743 46.1277 12.6839C47.7866 15.7604 48.7507 19.1778 48.949 22.6851Z">
        </path>
    </symbol>
    <symbol id="submit-icon">
        <path
            d="M13.0894 3.24854H11.3553V4.50459H12.8295V19.5288H1.17047V4.50459H2.64504V3.24854H0.910558C0.39074 3.24854 0 3.68137 0 4.15839V19.8325C0 20.352 0.433181 20.7424 0.910558 20.7424H13.0894C13.6093 20.7424 14 20.3096 14 19.8325V4.15839C14 3.68137 13.5651 3.24854 13.0894 3.24854Z">
        </path>
        <path
            d="M9.40511 4.15819C9.1452 4.15819 8.92773 3.94072 8.92773 3.68116C8.92773 3.42161 9.1452 3.20414 9.40511 3.20414C9.66502 3.20414 9.88248 3.42161 9.88248 3.68116C9.83829 3.94072 9.66502 4.15819 9.40511 4.15819ZM6.97789 2.38092C6.45807 2.38092 6.02489 1.94844 6.02489 1.42897C6.02489 0.909856 6.45807 0.477026 6.97789 0.477026C7.49771 0.477026 7.93089 0.909856 7.93089 1.42897C7.93089 1.94844 7.49771 2.38092 6.97789 2.38092ZM4.55067 4.15819C4.29076 4.15819 4.07505 3.94072 4.07505 3.68116C4.07505 3.42161 4.29076 3.20414 4.55067 3.20414C4.81058 3.20414 5.02805 3.42161 5.02805 3.68116C5.02805 3.94072 4.81058 4.15819 4.55067 4.15819ZM10.793 2.38092H8.06172C8.27919 2.16556 8.40826 1.81936 8.40826 1.42897C8.40826 0.649947 7.75762 0 6.97789 0C6.19816 0 5.54786 0.649947 5.54786 1.42897C5.54786 1.77517 5.6787 2.12136 5.89406 2.38092H3.16449V4.97931H10.793V2.38092Z">
        </path>
        <path d="M2.34094 8.66064H11.6594V9.78762H2.34094V8.66064Z"></path>
        <path d="M2.34094 10.999H11.6594V12.1242H2.34094V10.999Z"></path>
        <path d="M2.34094 13.3818H11.6594V14.5067H2.34094V13.3818Z"></path>
        <path d="M2.34094 15.7627H8.23501V16.8879H2.34094V15.7627Z"></path>
    </symbol>
    <symbol id="pending-icon">
        <path
            d="M13 10.4762C10.24 10.4762 8 12.6095 8 15.2381C8 17.8667 10.24 20 13 20C15.76 20 18 17.8667 18 15.2381C18 12.6095 15.76 10.4762 13 10.4762ZM14.65 17.4762L12.5 15.4286V12.381H13.5V15.0381L15.35 16.8L14.65 17.4762ZM14 1.90476H10.82C10.4 0.8 9.3 0 8 0C6.7 0 5.6 0.8 5.18 1.90476H2C0.9 1.90476 0 2.7619 0 3.80952V18.0952C0 19.1429 0.9 20 2 20H8.11C7.51837 19.4531 7.03708 18.8075 6.69 18.0952H2V3.80952H4V6.66667H12V3.80952H14V8.64762C14.71 8.74286 15.38 8.94286 16 9.21905V3.80952C16 2.7619 15.1 1.90476 14 1.90476ZM8 3.80952C7.45 3.80952 7 3.38095 7 2.85714C7 2.33333 7.45 1.90476 8 1.90476C8.55 1.90476 9 2.33333 9 2.85714C9 3.38095 8.55 3.80952 8 3.80952Z">
        </path>
    </symbol>
    <symbol id="schedule-serviceicon">
        <path
            d="M16.3559 14.229C16.463 14.3207 16.5295 14.4534 16.5397 14.5946C16.5498 14.7358 16.5023 14.877 16.4103 14.9841L14.6016 17.0677C14.4997 17.185 14.3516 17.2531 14.1966 17.2531H14.1544H14.156C13.9857 17.2393 13.8343 17.1443 13.7458 17.0012L12.9072 15.6662C12.7506 15.4142 12.8269 15.0843 13.0772 14.9278C13.3272 14.7715 13.6574 14.8462 13.814 15.0981L14.2681 15.8208L15.6057 14.285C15.798 14.0639 16.1331 14.0399 16.3559 14.2322V14.229ZM14.3873 14.2984H12.2467V16.4367C12.2467 16.7325 12.0069 16.9723 11.7127 16.9723C11.4166 16.9723 11.1768 16.7325 11.1768 16.4367V13.7628C11.1768 13.4686 11.4166 13.2288 11.7127 13.2288H14.3873C14.6835 13.2288 14.9216 13.4686 14.9216 13.7628C14.9216 14.0586 14.6835 14.2968 14.3873 14.2968V14.2984ZM12.2467 9.0885H13.853V10.6925H12.2467V9.0885ZM11.7127 11.7624H14.3873C14.5285 11.7624 14.6648 11.7064 14.765 11.6062C14.8653 11.5056 14.9216 11.3696 14.9216 11.2268V8.55286C14.9216 8.41166 14.8653 8.27571 14.765 8.17513C14.6648 8.07488 14.5285 8.01886 14.3873 8.01886H11.7127C11.4166 8.01886 11.1768 8.25867 11.1768 8.55286V11.2268C11.1768 11.3696 11.2328 11.5056 11.333 11.6062C11.4336 11.7064 11.5696 11.7624 11.7127 11.7624ZM7.75328 15.9093H6.14702V14.3037H7.75328V15.9093ZM8.2876 13.2337H5.6127C5.31654 13.2337 5.07673 13.4735 5.07673 13.7697V16.4433C5.07673 16.5864 5.13308 16.7224 5.23333 16.8226C5.33358 16.9232 5.46986 16.9776 5.6127 16.9776H8.2876C8.4288 16.9776 8.56476 16.9232 8.66533 16.8226C8.76558 16.7224 8.82357 16.5864 8.82357 16.4433V13.7697C8.82357 13.6268 8.76722 13.4905 8.66697 13.3903C8.56639 13.2881 8.43044 13.2304 8.2876 13.2304V13.2337ZM7.75328 10.6961H6.14702V9.0921H7.75328V10.6961ZM8.2876 8.02214H5.6127C5.31654 8.02214 5.07673 8.26195 5.07673 8.55614V11.2317C5.07673 11.3729 5.13308 11.5092 5.23333 11.6094C5.33358 11.7097 5.46986 11.766 5.6127 11.766H8.2876C8.4288 11.766 8.56476 11.7097 8.66533 11.6094C8.76558 11.5092 8.82357 11.3729 8.82357 11.2317V8.55614C8.82357 8.41494 8.76558 8.27898 8.66533 8.17874C8.56476 8.07816 8.4288 8.02214 8.2876 8.02214ZM16.3235 18.5422H3.67458C3.24934 18.5422 2.84115 18.3738 2.53975 18.0728C2.23868 17.7717 2.07029 17.3635 2.07029 16.9383V6.45389H17.9281V16.9366C17.9281 17.3635 17.7597 17.7717 17.4586 18.0711C17.1572 18.3738 16.749 18.5422 16.3235 18.5422ZM3.67458 2.68969H6.06348V3.32099C6.06348 3.61518 6.30362 3.85499 6.59781 3.85499C6.89396 3.85499 7.13377 3.61518 7.13377 3.32099V2.68969H12.8646V3.32099C12.8646 3.61518 13.1044 3.85499 13.4006 3.85499C13.6964 3.85499 13.9349 3.61518 13.9349 3.32099V2.68969H16.3235C16.749 2.68969 17.1572 2.85808 17.4586 3.15915C17.7597 3.46022 17.9281 3.86842 17.9281 4.29365V5.38229H2.07029V4.29365C2.07029 3.86842 2.23868 3.46022 2.53975 3.15915C2.84115 2.85808 3.24934 2.68969 3.67458 2.68969ZM16.3235 1.62006H13.9349V0.987123C13.9349 0.692933 13.6964 0.453125 13.4006 0.453125C13.1044 0.453125 12.8646 0.692933 12.8646 0.987123V1.62006H7.13377V0.987123C7.13377 0.692933 6.89396 0.453125 6.59781 0.453125C6.30362 0.453125 6.06348 0.692933 6.06348 0.987123V1.62006H3.67458C2.96531 1.62006 2.28454 1.90049 1.78429 2.40238C1.2824 2.90427 1 3.58439 1 4.29365V16.9383C1 17.6475 1.2824 18.328 1.78429 18.8282C2.28454 19.3298 2.96531 19.6122 3.67458 19.6122H16.3235C17.0331 19.6122 17.7138 19.3298 18.2157 18.8282C18.7176 18.328 19 17.6475 19 16.9383V4.29365C19 3.58439 18.7176 2.90427 18.2157 2.40238C17.7138 1.90049 17.0331 1.62006 16.3235 1.62006Z"
            fill="#6E6B7B" stroke="#6E6B7B" stroke-width="0.1" />
    </symbol>
    <symbol id="billing-icon">
        <path
            d="M14.8452 1H1.29769C1.13393 1 1 1.13484 1 1.29951V18.6737C1 18.8384 1.13393 18.9732 1.29769 18.9732H11.0361C11.1293 18.9732 11.2184 18.9282 11.2741 18.8533L15.0832 13.8209C15.1243 13.7686 15.1429 13.7046 15.1429 13.641V1.29951C15.1429 1.13484 15.0089 1 14.8452 1ZM11.0474 18.1645V15.0789C11.0474 14.5846 11.4492 14.1804 11.9401 14.1804H14.0641L11.0474 18.1645ZM14.5478 13.54L14.518 13.5811H11.9401C11.118 13.5811 10.452 14.2513 10.452 15.0789V18.3739H1.59507V1.59933H14.5478V13.54Z"
            fill="#6E6B7B" stroke="#6E6B7B" stroke-width="0.5" />
        <path d="M3 5.99219H13V6.99219H3V5.99219Z" fill="#6E6B7B" />
        <path d="M3 3.99219H13V4.99219H3V3.99219Z" fill="#6E6B7B" />
        <path d="M3 7.99219H13V8.99219H3V7.99219Z" fill="#6E6B7B" />
        <path d="M3 9.99219H13V10.9922H3V9.99219Z" fill="#6E6B7B" />
        <path
            d="M3.83799 16.8799C3.91267 16.9025 3.98796 16.9205 4.06999 16.9342V17.1978C4.06999 17.3428 4.26464 17.4609 4.50398 17.4609C4.74332 17.4609 4.93797 17.3428 4.93797 17.1978V16.9342C5.02 16.9205 5.09467 16.9025 5.16935 16.8799C5.67802 16.7253 6 16.4123 6 16.0671C6 15.6175 5.58866 15.2089 4.92267 15.0088L4.32402 14.8272C4.05529 14.7457 3.88268 14.5777 3.88268 14.3961C3.88268 14.2233 4.07733 14.0735 4.35401 14.0281C4.45134 14.0144 4.55601 14.0144 4.65334 14.0281C4.93001 14.0691 5.12467 14.2189 5.12467 14.3961V14.5504C5.12467 14.6958 5.31932 14.8136 5.55866 14.8136C5.798 14.8136 5.99265 14.6958 5.99265 14.5504V14.3961C5.99265 13.9963 5.55866 13.6423 4.93001 13.5287V13.2245C4.93001 13.0791 4.73597 12.9609 4.49663 12.9609C4.25668 12.9609 4.06264 13.0791 4.06264 13.2245V13.5287C3.43399 13.6468 3 13.9963 3 14.3961C3 14.7818 3.35197 15.1318 3.92063 15.3041L4.51867 15.4858C4.88533 15.5946 5.10998 15.8217 5.10998 16.0671C5.10998 16.2122 4.97531 16.3395 4.76535 16.403C4.59335 16.4577 4.384 16.4577 4.212 16.403C4.00265 16.3395 3.86799 16.2078 3.86799 16.0671C3.86799 15.9217 3.67333 15.8036 3.43399 15.8036C3.19465 15.8036 3 15.9217 3 16.0671V16.1395C3 16.1668 3.00796 16.1985 3.02265 16.2214C3.11263 16.5075 3.404 16.7482 3.83799 16.8799Z"
            fill="#6E6B7B" />
    </symbol>
    <symbol id="profile-nav-icon">
        <path
            d="M9.99984 12.6848C7.68749 12.6848 5.80625 10.8035 5.80625 8.49117C5.80625 6.17882 7.68749 4.29759 9.99984 4.29759C12.3122 4.29759 14.1934 6.17882 14.1934 8.49117C14.1934 10.8035 12.3122 12.6848 9.99984 12.6848ZM9.99984 4.87526C8.00603 4.87526 6.38392 6.49737 6.38392 8.49117C6.38392 10.4853 8.00603 12.1074 9.99984 12.1074C11.994 12.1074 13.6161 10.4853 13.6161 8.49117C13.6161 6.49737 11.994 4.87526 9.99984 4.87526ZM16.3638 3.66743C14.6641 1.96774 12.4039 1.03125 9.99984 1.03125C7.59605 1.03125 5.33586 1.96774 3.63585 3.66743C1.93616 5.36744 1 7.6273 1 10.0314C1 12.4355 1.93616 14.6954 3.63585 16.3954C5.33586 18.0954 7.59605 19.0312 9.99984 19.0312C12.4039 19.0312 14.6641 18.0954 16.3638 16.3954C18.0638 14.6954 19 12.4355 19 10.0314C19 7.6273 18.0638 5.36744 16.3638 3.66743ZM4.04418 4.07576C5.63526 2.48501 7.75021 1.60892 9.99984 1.60892C12.2495 1.60892 14.3647 2.48501 15.9555 4.07576C17.5462 5.66651 18.4223 7.78179 18.4223 10.0314C18.4223 11.9014 17.8163 13.6784 16.6982 15.1387C15.8083 13.8946 14.3875 13.1594 12.8443 13.1594H7.15537C5.61248 13.1594 4.1914 13.8946 3.30145 15.1387C2.18341 13.6784 1.57734 11.9014 1.57734 10.0314C1.57734 7.78179 2.45343 5.66651 4.04418 4.07576ZM9.99984 18.4539C7.75021 18.4539 5.63526 17.5778 4.04418 15.9871C3.9194 15.862 3.79957 15.7336 3.68338 15.6025C4.45713 14.4326 5.74848 13.7368 7.15537 13.7368H12.8443C14.2512 13.7368 15.5425 14.4326 16.3163 15.6025C16.2004 15.7336 16.0803 15.862 15.9555 15.9871C14.3647 17.5778 12.2495 18.4539 9.99984 18.4539Z"
            fill="#6E6B7B" stroke="#6E6B7B" stroke-width="0.6" />
    </symbol>
    <symbol id="today-service-icon">
        <path
            d="M16 2H15V0H13V2H5V0H3V2H2C1.46957 2 0.960859 2.21071 0.585786 2.58579C0.210714 2.96086 0 3.46957 0 4V18C0 18.5304 0.210714 19.0391 0.585786 19.4142C0.960859 19.7893 1.46957 20 2 20H16C17.11 20 18 19.11 18 18V4C18 2.89 17.11 2 16 2ZM16 18H2V8H16V18ZM16 6H2V4H16M4 10H9V15H4">
        </path>
    </symbol>
    <symbol id="upcomming-service">
        <path
            d="M12.6 18.1818V16.3636H16.2V7.27273H3.6V10.9091H1.8V3.63636C1.8 3.13636 1.9761 2.70848 2.3283 2.35273C2.6811 1.99636 3.105 1.81818 3.6 1.81818H4.5V0H6.3V1.81818H13.5V0H15.3V1.81818H16.2C16.695 1.81818 17.1189 1.99636 17.4717 2.35273C17.8239 2.70848 18 3.13636 18 3.63636V16.3636C18 16.8636 17.8239 17.2918 17.4717 17.6482C17.1189 18.0039 16.695 18.1818 16.2 18.1818H12.6ZM6.3 20L5.04 18.7273L7.3575 16.3636H0V14.5455H7.3575L5.04 12.1818L6.3 10.9091L10.8 15.4545L6.3 20ZM3.6 5.45455H16.2V3.63636H3.6V5.45455ZM3.6 5.45455V3.63636V5.45455Z">
        </path>
    </symbol>
    <symbol id="past-icon">
        <path
            d="M16 2H15V0H13V2H5V0H3V2H2C1.46957 2 0.960859 2.21071 0.585786 2.58579C0.210714 2.96086 0 3.46957 0 4V18C0 18.5304 0.210714 19.0391 0.585786 19.4142C0.960859 19.7893 1.46957 20 2 20H16C17.11 20 18 19.11 18 18V4C18 2.89 17.11 2 16 2ZM16 18H2V8H16V18ZM16 6H2V4H16M4 10H9V15H4">
        </path>
    </symbol>
    <symbol id="draft-service-icon">
        <path
            d="M14 11H11V7H7V11H4L9 16L14 11ZM16 2H11.82C11.4 0.84 10.3 0 9 0C7.7 0 6.6 0.84 6.18 2H2C1.86 2 1.73 2.01 1.6 2.04C1.28151 2.10682 0.98404 2.25005 0.733191 2.45735C0.482341 2.66465 0.285632 2.92981 0.16 3.23C0.0600001 3.46 0 3.72 0 4V18C0 18.27 0.0600001 18.54 0.16 18.78C0.26 19.02 0.41 19.23 0.59 19.42C0.86 19.69 1.21 19.89 1.6 19.97C1.73 19.99 1.86 20 2 20H16C17.1 20 18 19.1 18 18V4C18 2.9 17.1 2 16 2ZM9 1.75C9.41 1.75 9.75 2.09 9.75 2.5C9.75 2.91 9.41 3.25 9 3.25C8.59 3.25 8.25 2.91 8.25 2.5C8.25 2.09 8.59 1.75 9 1.75ZM16 18H2V4H16V18Z">
        </path>
    </symbol>
    <symbol id="inovice-icon">
        <path
            d="M10.45 13.3038H4.75001C4.49805 13.3038 4.25641 13.4039 4.07825 13.582C3.9001 13.7602 3.80001 14.0018 3.80001 14.2538C3.80001 14.5057 3.9001 14.7474 4.07825 14.9255C4.25641 15.1037 4.49805 15.2038 4.75001 15.2038H10.45C10.702 15.2038 10.9436 15.1037 11.1218 14.9255C11.2999 14.7474 11.4 14.5057 11.4 14.2538C11.4 14.0018 11.2999 13.7602 11.1218 13.582C10.9436 13.4039 10.702 13.3038 10.45 13.3038ZM6.65001 7.60377H8.55C8.80196 7.60377 9.0436 7.50368 9.22176 7.32552C9.39991 7.14736 9.5 6.90573 9.5 6.65377C9.5 6.40182 9.39991 6.16018 9.22176 5.98202C9.0436 5.80386 8.80196 5.70377 8.55 5.70377H6.65001C6.39805 5.70377 6.15641 5.80386 5.97825 5.98202C5.80009 6.16018 5.70001 6.40182 5.70001 6.65377C5.70001 6.90573 5.80009 7.14736 5.97825 7.32552C6.15641 7.50368 6.39805 7.60377 6.65001 7.60377ZM18.05 9.50377H15.2V0.953775C15.2007 0.786376 15.1571 0.621773 15.0737 0.476634C14.9903 0.331496 14.87 0.210975 14.725 0.127276C14.5806 0.043896 14.4168 0 14.25 0C14.0832 0 13.9194 0.043896 13.775 0.127276L10.925 1.76128L8.075 0.127276C7.93059 0.043896 7.76676 0 7.6 0C7.43324 0 7.26942 0.043896 7.125 0.127276L4.27501 1.76128L1.42501 0.127276C1.28059 0.043896 1.11677 0 0.950007 0C0.783247 0 0.619425 0.043896 0.475007 0.127276C0.330033 0.210975 0.20975 0.331496 0.126337 0.476634C0.0429236 0.621773 -0.0006571 0.786376 7.48873e-06 0.953775V16.1538C7.48873e-06 16.9096 0.300274 17.6345 0.834753 18.169C1.36923 18.7035 2.09414 19.0038 2.85001 19.0038H16.15C16.9059 19.0038 17.6308 18.7035 18.1653 18.169C18.6997 17.6345 19 16.9096 19 16.1538V10.4538C19 10.2018 18.8999 9.96018 18.7218 9.78202C18.5436 9.60386 18.302 9.50377 18.05 9.50377ZM2.85001 17.1038C2.59805 17.1038 2.35641 17.0037 2.17826 16.8255C2.0001 16.6474 1.90001 16.4057 1.90001 16.1538V2.59727L3.80001 3.68027C3.94663 3.75686 4.10959 3.79685 4.27501 3.79685C4.44042 3.79685 4.60338 3.75686 4.75001 3.68027L7.6 2.04627L10.45 3.68027C10.5966 3.75686 10.7596 3.79685 10.925 3.79685C11.0904 3.79685 11.2534 3.75686 11.4 3.68027L13.3 2.59727V16.1538C13.3026 16.4779 13.3604 16.7991 13.471 17.1038H2.85001ZM17.1 16.1538C17.1 16.4057 16.9999 16.6474 16.8218 16.8255C16.6436 17.0037 16.402 17.1038 16.15 17.1038C15.898 17.1038 15.6564 17.0037 15.4782 16.8255C15.3001 16.6474 15.2 16.4057 15.2 16.1538V11.4038H17.1V16.1538ZM10.45 9.50377H4.75001C4.49805 9.50377 4.25641 9.60386 4.07825 9.78202C3.9001 9.96018 3.80001 10.2018 3.80001 10.4538C3.80001 10.7057 3.9001 10.9474 4.07825 11.1255C4.25641 11.3037 4.49805 11.4038 4.75001 11.4038H10.45C10.702 11.4038 10.9436 11.3037 11.1218 11.1255C11.2999 10.9474 11.4 10.7057 11.4 10.4538C11.4 10.2018 11.2999 9.96018 11.1218 9.78202C10.9436 9.60386 10.702 9.50377 10.45 9.50377Z">
        </path>
    </symbol>
    <symbol id="payment-recept">
        <path
            d="M0 0V18H11.0769V16.6154H1.38462V1.38462H8.30769V5.53846H12.4615V6.92308H13.8462V4.56923L13.6385 4.36154L9.48462 0.207692L9.27692 0H0ZM9.69231 2.35385L11.4923 4.15385H9.69231V2.35385ZM2.76923 6.92308V8.30769H11.0769V6.92308H2.76923ZM14.5385 8.30769V9.69231C13.3615 9.9 12.4615 10.8692 12.4615 12.1154C12.4615 13.5 13.5 14.5385 14.8846 14.5385H15.5769C16.1308 14.5385 16.6154 15.0231 16.6154 15.5769C16.6154 16.1308 16.1308 16.6154 15.5769 16.6154H13.1538V18H14.5385V19.3846H15.9231V18C17.1 17.7923 18 16.8231 18 15.5769C18 14.1923 16.9615 13.1538 15.5769 13.1538H14.8846C14.3308 13.1538 13.8462 12.6692 13.8462 12.1154C13.8462 11.5615 14.3308 11.0769 14.8846 11.0769H17.3077V9.69231H15.9231V8.30769H14.5385ZM2.76923 10.3846V11.7692H7.61539V10.3846H2.76923ZM9 10.3846V11.7692H11.0769V10.3846H9ZM2.76923 13.1538V14.5385H7.61539V13.1538H2.76923ZM9 13.1538V14.5385H11.0769V13.1538H9Z">
        </path>
    </symbol>
    <symbol id="company-profile">
        <path
            d="M1 16.6923H18M2.30769 1V16.6923M11.4615 1V16.6923M16.6923 4.92308V16.6923M4.92308 4.26923H5.57692M4.92308 6.88462H5.57692M4.92308 9.5H5.57692M8.19231 4.26923H8.84615M8.19231 6.88462H8.84615M8.19231 9.5H8.84615M4.92308 16.6923V13.75C4.92308 13.2086 5.36246 12.7692 5.90385 12.7692H7.86538C8.40677 12.7692 8.84615 13.2086 8.84615 13.75V16.6923M1.65385 1H12.1154M11.4615 4.92308H17.3462M14.0769 8.19231H14.0839V8.19928H14.0769V8.19231ZM14.0769 10.8077H14.0839V10.8147H14.0769V10.8077ZM14.0769 13.4231H14.0839V13.4301H14.0769V13.4231Z"
            stroke-width="1.5" stroke-linecap="round" stroke-linejoin="round"></path>
    </symbol>
    <symbol id="add-team-icon">
        <path
            d="M4.56731 8.7712C4.3735 8.7712 4.18762 8.69421 4.05058 8.55716C3.91353 8.42012 3.83654 8.23424 3.83654 8.04043C3.83654 7.84662 3.91353 7.66075 4.05058 7.5237C4.18762 7.38665 4.3735 7.30966 4.56731 7.30966H7.85577C8.04958 7.30966 8.23545 7.38665 8.3725 7.5237C8.50955 7.66075 8.58654 7.84662 8.58654 8.04043C8.58654 8.23424 8.50955 8.42012 8.3725 8.55716C8.23545 8.69421 8.04958 8.7712 7.85577 8.7712H6.94231V12.425C6.94231 12.6189 6.86532 12.8047 6.72827 12.9418C6.59122 13.0788 6.40535 13.1558 6.21154 13.1558C6.01773 13.1558 5.83185 13.0788 5.69481 12.9418C5.55776 12.8047 5.48077 12.6189 5.48077 12.425V8.7712H4.56731ZM19 7.00822V12.425C18.9987 13.3395 18.6546 14.2202 18.0357 14.8933C17.4167 15.5664 16.5678 15.9829 15.6567 16.0606C15.2225 17.1421 14.4749 18.069 13.51 18.7226C12.5451 19.3761 11.4069 19.7263 10.2415 19.7282C9.07612 19.7302 7.93675 19.3838 6.96965 18.7336C6.00255 18.0833 5.25186 17.1589 4.81394 16.0789H1.46154C1.07391 16.0789 0.702166 15.9249 0.428075 15.6508C0.153983 15.3767 0 15.005 0 14.6174V5.84812C0 5.4605 0.153983 5.08875 0.428075 4.81466C0.702166 4.54057 1.07391 4.38659 1.46154 4.38659H6.65C6.60266 4.14584 6.57819 3.90117 6.57692 3.65582C6.57651 2.88083 6.82251 2.12579 7.27939 1.49979C7.73626 0.873802 8.38035 0.409291 9.11856 0.17339C9.85677 -0.0625116 10.6509 -0.0575841 11.3861 0.18746C12.1213 0.432505 12.7596 0.904973 13.2087 1.53659C13.68 1.25579 14.2174 1.10488 14.7661 1.09923C15.3147 1.09357 15.8551 1.23337 16.3322 1.5044C16.8093 1.77542 17.206 2.168 17.4821 2.64218C17.7582 3.11635 17.9037 3.65521 17.9038 4.20389C17.9051 4.78599 17.7403 5.35638 17.4288 5.84812H17.8399C17.9923 5.84812 18.1431 5.87813 18.2839 5.93643C18.4246 5.99473 18.5525 6.08018 18.6602 6.18791C18.7679 6.29563 18.8534 6.42352 18.9117 6.56427C18.97 6.70502 19 6.85587 19 7.00822ZM13.8024 2.89764C13.8578 3.14654 13.8854 3.40083 13.8846 3.65582C13.8853 4.20359 13.7603 4.74422 13.5192 5.23611C13.6937 5.45239 13.9201 5.62094 14.1773 5.72602C14.4345 5.8311 14.7142 5.86927 14.9902 5.83698C15.2661 5.80469 15.5294 5.70299 15.7555 5.54137C15.9815 5.37975 16.1629 5.16348 16.2827 4.91277C16.4025 4.66206 16.4568 4.38507 16.4405 4.10769C16.4242 3.8303 16.338 3.56156 16.1897 3.32656C16.0414 3.09155 15.836 2.89796 15.5927 2.76385C15.3493 2.62974 15.0759 2.55949 14.7981 2.55966C14.4378 2.55824 14.0874 2.6772 13.8024 2.89764ZM8.16635 4.38659H10.9615C11.1673 4.3871 11.3707 4.43135 11.5581 4.51639C11.7455 4.60142 11.9127 4.72532 12.0486 4.87986C12.2909 4.51747 12.4211 4.09175 12.4231 3.65582C12.4231 3.07438 12.1921 2.51676 11.781 2.10562C11.3698 1.69448 10.8122 1.46351 10.2308 1.46351C9.64933 1.46351 9.09171 1.69448 8.68057 2.10562C8.26944 2.51676 8.03846 3.07438 8.03846 3.65582C8.04014 3.90482 8.08336 4.15181 8.16635 4.38659ZM1.46154 14.6174H10.9615V5.84812H1.46154V14.6174ZM14.6154 13.8866V7.30966H12.4231V14.6174C12.4231 15.005 12.2691 15.3767 11.995 15.6508C11.7209 15.9249 11.3492 16.0789 10.9615 16.0789H6.43077C6.81934 16.7428 7.37406 17.294 8.04036 17.6784C8.70665 18.0628 9.46155 18.2671 10.2308 18.2712C11.3936 18.2712 12.5089 17.8093 13.3312 16.987C14.1534 16.1647 14.6154 15.0495 14.6154 13.8866ZM17.5385 7.30966H16.0769V13.8866C16.0787 14.0912 16.0665 14.2957 16.0404 14.4986C16.4757 14.3533 16.8544 14.075 17.1232 13.703C17.392 13.331 17.5372 12.884 17.5385 12.425V7.30966Z">
        </path>
    </symbol>
    <symbol id="notification-icon-sidebar">
        <path
            d="M13.6969 9.71249V7.33592C13.6969 4.18626 11.1411 1.62305 8.00016 1.62305C4.85891 1.62305 2.30346 4.18626 2.30346 7.33592V9.71249C2.30346 11.1332 1.6219 12.484 0.480686 13.326L0.25296 13.4939V16.9311H5.72129C5.76819 18.1513 6.77193 19.1291 8.00016 19.1291C9.22775 19.1291 10.2318 18.1513 10.279 16.9311H15.7474V13.4939L15.5196 13.326C14.3781 12.484 13.6969 11.1332 13.6969 9.71249ZM3.42171 9.71249V7.33592C3.42171 4.80441 5.47545 2.74486 8.00016 2.74486C10.5246 2.74486 12.5786 4.80441 12.5786 7.33592V9.71249C12.5786 10.9951 13.0231 12.232 13.8075 13.2167H2.19251C2.97694 12.232 3.42171 10.9951 3.42171 9.71249ZM8.00016 18.0077C7.3888 18.0077 6.88644 17.5325 6.84051 16.9311H9.15982C9.11389 17.5325 8.61121 18.0077 8.00016 18.0077ZM1.37121 14.3385H14.6291V15.8097H1.37121V14.3385Z">
        </path>
        <path
            d="M5.21181 1.02509L4.7583 0C1.86774 1.28613 0 4.1657 0 7.33574H1.11825C1.11825 4.60886 2.72527 2.13169 5.21181 1.02509Z">
        </path>
        <path
            d="M14.8814 7.33574H16C16 4.1657 14.1323 1.28613 11.2417 0L10.7882 1.02509C13.2751 2.13169 14.8814 4.60886 14.8814 7.33574Z">
        </path>
    </symbol>
    <symbol id="reset-password-icon" xmlns="http://www.w3.org/2000/svg">
        <path
            d="M10 19C5.03734 19 1 14.9627 1 10C1 5.03734 5.03734 1 10 1C14.9627 1 19 5.03734 19 10C19 14.9627 14.9627 19 10 19ZM10 1.85714C5.51004 1.85714 1.85714 5.51004 1.85714 10C1.85714 14.49 5.51004 18.1429 10 18.1429C14.49 18.1429 18.1429 14.49 18.1429 10C18.1429 5.51004 14.49 1.85714 10 1.85714Z">
        </path>
        <path
            d="M8.43913 11.4918L8.2772 11.212L7.91285 11.4218V11.0029H7.58899V11.4218L7.22495 11.212L7.06302 11.4921L7.42706 11.7018L7.06241 11.9118L7.22464 12.1919L7.58899 11.9818V12.4025H7.91285V11.9818L8.27781 12.1919L8.43944 11.9118L8.07479 11.7018L8.43913 11.4918Z">
        </path>
        <path
            d="M10.6882 11.4924L10.5263 11.2123L10.1622 11.4221V11.0029H9.83808V11.4221L9.47403 11.2123L9.3121 11.4924L9.67614 11.7021L9.31149 11.9121L9.47342 12.1922L9.83808 11.9821V12.4025H10.1622V11.9821L10.5269 12.1922L10.6888 11.9121L10.3242 11.7021L10.6882 11.4924Z">
        </path>
        <path
            d="M12.9373 11.4927L12.7754 11.213L12.4116 11.4224V11.0029H12.0878V11.4227L11.7225 11.212L11.5606 11.4921L11.9258 11.7024L11.5609 11.9127L11.7228 12.1925L12.0878 11.9824V12.4025H12.4116V11.9824L12.7754 12.1919L12.9373 11.9118L12.5736 11.7024L12.9373 11.4927Z">
        </path>
        <path
            d="M13.2036 7.93735H12.6837V6.90366C12.6837 6.18745 12.4034 5.51507 11.8975 5.0104C11.3886 4.50269 10.715 4.22266 10.0027 4.22266C8.52313 4.22266 7.31869 5.42467 7.31869 6.90366V7.93735H6.78511C6.10877 7.93735 5.55875 8.48676 5.55875 9.16249V14.2426C5.55875 14.9187 6.10877 15.4681 6.78511 15.4681H13.2119C13.8882 15.4681 14.441 14.9156 14.441 14.2372V9.17345C14.4413 8.49224 13.8858 7.93735 13.2036 7.93735ZM8.14083 6.90366C8.14083 5.88002 8.97423 5.04601 10 5.04601C10.4922 5.04601 10.9597 5.24082 11.3116 5.59208C11.6638 5.94059 11.8561 6.40691 11.8561 6.90366V7.93735H8.14083V6.90366ZM13.6161 14.2426C13.6161 14.4651 13.4347 14.6466 13.2119 14.6466H6.78541C6.5626 14.6466 6.38393 14.4651 6.38393 14.2454V9.16523C6.38393 8.94273 6.56534 8.76405 6.78541 8.76405H13.2036C13.4319 8.76405 13.6161 8.9482 13.6161 9.17619V14.2426Z">
        </path>
    </symbol>
    <symbol id="delete-icon" xmlns="http://www.w3.org/2000/svg">
        <path
            d="M8.4 4.2H12.6C12.6 3.64305 12.3787 3.1089 11.9849 2.71508C11.5911 2.32125 11.057 2.1 10.5 2.1C9.94304 2.1 9.4089 2.32125 9.01508 2.71508C8.62125 3.1089 8.4 3.64305 8.4 4.2V4.2ZM6.3 4.2C6.3 3.08609 6.7425 2.0178 7.53015 1.23015C8.3178 0.442499 9.38609 0 10.5 0C11.6139 0 12.6822 0.442499 13.4698 1.23015C14.2575 2.0178 14.7 3.08609 14.7 4.2H19.95C20.2285 4.2 20.4955 4.31062 20.6925 4.50754C20.8894 4.70445 21 4.97152 21 5.25C21 5.52848 20.8894 5.79555 20.6925 5.99246C20.4955 6.18937 20.2285 6.3 19.95 6.3H19.0239L18.0936 17.157C18.0042 18.2054 17.5245 19.182 16.7494 19.8937C15.9744 20.6053 14.9605 21.0001 13.9083 21H7.0917C6.0395 21.0001 5.02559 20.6053 4.25056 19.8937C3.47552 19.182 2.99584 18.2054 2.9064 17.157L1.9761 6.3H1.05C0.771523 6.3 0.504451 6.18937 0.307538 5.99246C0.110625 5.79555 0 5.52848 0 5.25C0 4.97152 0.110625 4.70445 0.307538 4.50754C0.504451 4.31062 0.771523 4.2 1.05 4.2H6.3ZM13.65 10.5C13.65 10.2215 13.5394 9.95445 13.3425 9.75754C13.1455 9.56062 12.8785 9.45 12.6 9.45C12.3215 9.45 12.0545 9.56062 11.8575 9.75754C11.6606 9.95445 11.55 10.2215 11.55 10.5V14.7C11.55 14.9785 11.6606 15.2455 11.8575 15.4425C12.0545 15.6394 12.3215 15.75 12.6 15.75C12.8785 15.75 13.1455 15.6394 13.3425 15.4425C13.5394 15.2455 13.65 14.9785 13.65 14.7V10.5ZM8.4 9.45C8.67848 9.45 8.94555 9.56062 9.14246 9.75754C9.33937 9.95445 9.45 10.2215 9.45 10.5V14.7C9.45 14.9785 9.33937 15.2455 9.14246 15.4425C8.94555 15.6394 8.67848 15.75 8.4 15.75C8.12152 15.75 7.85445 15.6394 7.65754 15.4425C7.46062 15.2455 7.35 14.9785 7.35 14.7V10.5C7.35 10.2215 7.46062 9.95445 7.65754 9.75754C7.85445 9.56062 8.12152 9.45 8.4 9.45V9.45ZM4.998 16.9785C5.04273 17.5029 5.28273 17.9913 5.67046 18.3472C6.0582 18.703 6.56542 18.9003 7.0917 18.9H13.9083C14.4342 18.8998 14.9409 18.7023 15.3282 18.3465C15.7155 17.9907 15.9552 17.5025 15.9999 16.9785L16.9155 6.3H4.0845L5.0001 16.9785H4.998Z"
            fill="black" />
    </symbol>
    <symbol id="company-icon">
        <path
            d="M3.5 16V19.766L5.015 18.857L9.777 16H14.5C15.603 16 16.5 15.103 16.5 14V6C16.5 4.897 15.603 4 14.5 4H2.5C1.397 4 0.5 4.897 0.5 6V14C0.5 15.103 1.397 16 2.5 16H3.5ZM2.5 6H14.5V14H9.223L5.5 16.234V14H2.5V6Z"
            fill="black" />
        <path
            d="M18.5 0H6.5C5.397 0 4.5 0.897 4.5 2H16.5C17.603 2 18.5 2.897 18.5 4V12C19.603 12 20.5 11.103 20.5 10V2C20.5 0.897 19.603 0 18.5 0Z"
            fill="black" />
    </symbol>
    <symbol id="view">
        <path
            d="M14.2857 17.1428C15.0747 17.1428 15.7143 16.5032 15.7143 15.7142C15.7143 14.9252 15.0747 14.2856 14.2857 14.2856C13.4967 14.2856 12.8571 14.9252 12.8571 15.7142C12.8571 16.5032 13.4967 17.1428 14.2857 17.1428Z"
            fill="black"></path>
        <path
            d="M19.8407 15.342C19.3994 14.2176 18.6378 13.2475 17.6503 12.5518C16.6629 11.8562 15.493 11.4656 14.2857 11.4284C13.0784 11.4656 11.9085 11.8562 10.9211 12.5518C9.93363 13.2475 9.17204 14.2176 8.7307 15.342L8.57141 15.7141L8.7307 16.0863C9.17204 17.2107 9.93363 18.1808 10.9211 18.8765C11.9085 19.5721 13.0784 19.9627 14.2857 19.9999C15.493 19.9627 16.6629 19.5721 17.6503 18.8765C18.6378 18.1808 19.3994 17.2107 19.8407 16.0863L20 15.7141L19.8407 15.342ZM14.2857 18.5713C13.7206 18.5713 13.1682 18.4037 12.6984 18.0898C12.2285 17.7758 11.8623 17.3296 11.646 16.8075C11.4298 16.2855 11.3732 15.711 11.4835 15.1567C11.5937 14.6025 11.8658 14.0934 12.2654 13.6938C12.665 13.2943 13.1741 13.0221 13.7283 12.9119C14.2825 12.8017 14.857 12.8582 15.3791 13.0745C15.9012 13.2907 16.3474 13.6569 16.6613 14.1268C16.9753 14.5967 17.1428 15.1491 17.1428 15.7141C17.1419 16.4716 16.8406 17.1978 16.305 17.7334C15.7693 18.269 15.0432 18.5703 14.2857 18.5713ZM3.57141 10.7141H7.14284V12.1427H3.57141V10.7141ZM3.57141 7.14272H12.1428V8.57129H3.57141V7.14272ZM3.57141 3.57129H12.1428V4.99986H3.57141V3.57129Z"
            fill="black"></path>
        <path
            d="M14.2857 0H1.42857C1.05004 0.00113052 0.687332 0.152003 0.419668 0.419668C0.152003 0.687332 0.00113052 1.05004 0 1.42857V18.5714C0.00113052 18.95 0.152003 19.3127 0.419668 19.5803C0.687332 19.848 1.05004 19.9989 1.42857 20H7.14286V18.5714H1.42857V1.42857H14.2857V9.28571H15.7143V1.42857C15.7132 1.05004 15.5623 0.687332 15.2946 0.419668C15.027 0.152003 14.6642 0.00113052 14.2857 0Z"
            fill="black"></path>
    </symbol>
    <symbol id="edit" fill="none" xmlns="http://www.w3.org/2000/svg">
        <path
            d="M19.2555 4.11766L15.8304 0.680256C15.3834 0.258855 14.7977 0.017061 14.1846 0.000869084C13.5715 -0.0153228 12.9739 0.195217 12.5054 0.592439L1.25527 11.8832C0.85122 12.2921 0.599641 12.8281 0.54276 13.4012L0.00525375 18.6325C-0.0115852 18.8163 0.0121717 19.0015 0.074831 19.175C0.13749 19.3485 0.237509 19.5059 0.367758 19.6362C0.484559 19.7524 0.623081 19.8444 0.775379 19.9069C0.927678 19.9693 1.09076 20.0009 1.25527 20H1.36777L6.58033 19.5233C7.15133 19.4662 7.68538 19.2137 8.09284 18.8082L19.343 7.51743C19.7796 7.05447 20.0156 6.43667 19.9992 5.7994C19.9828 5.16213 19.7154 4.55738 19.2555 4.11766ZM6.35532 17.0142L2.60528 17.3655L2.94279 13.6019L10.0054 6.60163L13.3804 9.98885L6.35532 17.0142ZM15.0054 8.30778L11.6554 4.94565L14.0929 2.43659L17.5054 5.86145L15.0054 8.30778Z"
            fill="black"></path>
    </symbol>

    <symbol id="confirm-completion-icon">
        <g clip-path="url(#clip0_10431_106624)">
            <circle cx="15" cy="15" r="15" fill="url(#paint0_linear_10431_106624)" stroke="none"></circle>
            <circle cx="15" cy="15" r="15" fill="url(#paint1_linear_10431_106624)" stroke="none"></circle>
            <circle cx="15" cy="15" r="15" transform="rotate(90 15 15)" fill="url(#paint2_linear_10431_106624)" stroke="none">
            </circle>
            <circle cx="15" cy="15" r="15" transform="rotate(90 15 15)" fill="url(#paint3_linear_10431_106624)" stroke="none">
            </circle>
        </g>
        <path
            d="M19.5605 10.8105L20.4395 11.6895L13.125 19.0039L9.56055 15.4395L10.4395 14.5605L13.125 17.2461L19.5605 10.8105ZM15 5C15.918 5 16.8034 5.11719 17.6562 5.35156C18.5091 5.58594 19.3066 5.92122 20.0488 6.35742C20.791 6.79362 21.4648 7.31445 22.0703 7.91992C22.6758 8.52539 23.1966 9.20247 23.6328 9.95117C24.069 10.6999 24.4043 11.4974 24.6387 12.3438C24.873 13.1901 24.9935 14.0755 25 15C25 15.918 24.8828 16.8034 24.6484 17.6562C24.4141 18.5091 24.0788 19.3066 23.6426 20.0488C23.2064 20.791 22.6855 21.4648 22.0801 22.0703C21.4746 22.6758 20.7975 23.1966 20.0488 23.6328C19.3001 24.069 18.5026 24.4043 17.6562 24.6387C16.8099 24.873 15.9245 24.9935 15 25C14.082 25 13.1966 24.8828 12.3438 24.6484C11.4909 24.4141 10.6934 24.0788 9.95117 23.6426C9.20898 23.2064 8.53516 22.6855 7.92969 22.0801C7.32422 21.4746 6.80339 20.7975 6.36719 20.0488C5.93099 19.3001 5.5957 18.5059 5.36133 17.666C5.12695 16.8262 5.00651 15.9375 5 15C5 14.082 5.11719 13.1966 5.35156 12.3438C5.58594 11.4909 5.92122 10.6934 6.35742 9.95117C6.79362 9.20898 7.31445 8.53516 7.91992 7.92969C8.52539 7.32422 9.20247 6.80339 9.95117 6.36719C10.6999 5.93099 11.4941 5.5957 12.334 5.36133C13.1738 5.12695 14.0625 5.00651 15 5ZM15 23.75C15.8008 23.75 16.5723 23.6458 17.3145 23.4375C18.0566 23.2292 18.7533 22.9362 19.4043 22.5586C20.0553 22.181 20.6478 21.722 21.1816 21.1816C21.7155 20.6413 22.1712 20.0521 22.5488 19.4141C22.9264 18.776 23.2227 18.0794 23.4375 17.3242C23.6523 16.569 23.7565 15.7943 23.75 15C23.75 14.1992 23.6458 13.4277 23.4375 12.6855C23.2292 11.9434 22.9362 11.2467 22.5586 10.5957C22.181 9.94466 21.722 9.35221 21.1816 8.81836C20.6413 8.28451 20.0521 7.82878 19.4141 7.45117C18.776 7.07357 18.0794 6.77734 17.3242 6.5625C16.569 6.34766 15.7943 6.24349 15 6.25C14.1992 6.25 13.4277 6.35417 12.6855 6.5625C11.9434 6.77083 11.2467 7.0638 10.5957 7.44141C9.94466 7.81901 9.35221 8.27799 8.81836 8.81836C8.28451 9.35872 7.82878 9.94792 7.45117 10.5859C7.07357 11.224 6.77734 11.9206 6.5625 12.6758C6.34766 13.431 6.24349 14.2057 6.25 15C6.25 15.8008 6.35417 16.5723 6.5625 17.3145C6.77083 18.0566 7.0638 18.7533 7.44141 19.4043C7.81901 20.0553 8.27799 20.6478 8.81836 21.1816C9.35872 21.7155 9.94792 22.1712 10.5859 22.5488C11.224 22.9264 11.9206 23.2227 12.6758 23.4375C13.431 23.6523 14.2057 23.7565 15 23.75Z"
            stroke-width="0.7"></path>
        <defs>
            <linearGradient id="paint0_linear_10431_106624" x1="0" y1="-0.1541" x2="0" y2="30"
                gradientUnits="userSpaceOnUse">
                <stop offset="0.0150376" stop-color="#C4C4C4"></stop>
                <stop offset="1" stop-color="white" stop-opacity="0.01"></stop>
            </linearGradient>
            <linearGradient id="paint1_linear_10431_106624" x1="0" y1="-0.1541" x2="0" y2="30"
                gradientUnits="userSpaceOnUse">
                <stop offset="0.0114183" stop-color="white" stop-opacity="0.01"></stop>
                <stop offset="1" stop-opacity="0.01"></stop>
            </linearGradient>
            <linearGradient id="paint2_linear_10431_106624" x1="-9.53674e-07" y1="-0.154101" x2="-9.53674e-07" y2="30"
                gradientUnits="userSpaceOnUse">
                <stop offset="0.0150376" stop-color="#C4C4C4"></stop>
                <stop offset="1" stop-color="white" stop-opacity="0.01"></stop>
            </linearGradient>
            <linearGradient id="paint3_linear_10431_106624" x1="-9.53674e-07" y1="-0.154101" x2="-9.53674e-07" y2="30"
                gradientUnits="userSpaceOnUse">
                <stop offset="0.0114183" stop-color="white" stop-opacity="0.01"></stop>
                <stop offset="1" stop-opacity="0.01"></stop>
            </linearGradient>
            <clipPath id="clip0_10431_106624">
                <rect width="30" height="30" fill="white"></rect>
            </clipPath>
        </defs>
    </symbol>
    <symbol id="customer-signature" >
        <path
            d="M10.8997 18.7202C10.4288 18.63 10.0284 18.3612 9.67629 18.0857C9.48917 17.9394 9.31907 17.7938 9.15815 17.6944C9.04894 17.6264 8.95096 17.5634 8.8523 17.6526C8.39403 18.0595 7.89494 17.9697 7.38837 17.7737C7.20125 17.7016 7.01311 17.6169 6.82804 17.572C6.70726 17.5427 6.58751 17.5291 6.47388 17.5822C6.36263 17.6346 6.26261 17.7424 6.16089 17.9142C6.01664 18.1571 5.83905 18.2973 5.64989 18.3653C5.3767 18.4647 5.05826 18.4187 4.72826 18.2238C4.38975 18.0251 4.0264 17.6512 3.68891 17.2055C3.3453 17.4587 2.9891 17.7227 2.62949 18.0074C2.48014 18.1255 2.26377 18.1003 2.14503 17.952C2.0263 17.8033 2.05147 17.5876 2.20083 17.4692C2.5737 17.1739 2.94385 16.9021 3.29903 16.6401C2.87547 15.9713 2.54036 15.2418 2.42367 14.7142C2.20899 13.747 2.38148 12.8896 2.74414 12.2374C3.28542 11.2641 4.25434 10.7575 5.05418 10.9239C5.60906 11.0389 6.11768 11.4618 6.36671 12.3191C6.78517 13.7606 6.39937 14.7489 5.59954 15.6208C5.22633 16.0267 4.75547 16.4067 4.23325 16.8004C4.40267 17.0222 4.57924 17.2222 4.75343 17.3835C4.88271 17.5029 5.01097 17.6002 5.13515 17.6628C5.22769 17.7101 5.31376 17.7424 5.39371 17.7247C5.46277 17.7091 5.51448 17.6502 5.56586 17.5634C5.78155 17.1991 6.02106 17.014 6.25955 16.9259C6.60758 16.7973 6.97637 16.8779 7.34618 17.0191C7.52717 17.0882 7.70885 17.1698 7.88746 17.2181C8.06097 17.2651 8.23345 17.2797 8.39097 17.1395C8.83018 16.748 9.29151 16.9143 9.81509 17.3205C10.024 17.4828 10.2512 17.6798 10.5078 17.8346C10.5561 17.8639 10.6054 17.8911 10.6568 17.9162L10.0189 14.5383C9.97261 14.2923 10.0168 14.0378 10.1451 13.8235L11.26 11.9455C10.9807 11.5509 10.8871 11.0348 11.0521 10.5418L11.1287 10.3125C11.3212 9.74097 11.8118 9.35279 12.3711 9.26263L12.6263 7.95112H1.03424C0.462347 7.95112 0 8.41278 0 8.98128V18.942C0 19.5115 0.463368 19.9721 1.03424 19.9721H18.9658C19.5377 19.9721 20 19.5105 20 18.942V8.98128C20 8.41176 19.5366 7.95112 18.9658 7.95112H18.1795L16.8007 10.7555C17.1769 11.1627 17.3253 11.755 17.1361 12.316L17.0592 12.5463C16.8976 13.0277 16.5224 13.3795 16.0746 13.5323L15.8276 15.7192C15.7991 15.9702 15.6793 16.2016 15.4912 16.3703L12.5412 19.01C12.3088 19.2182 11.9632 19.2444 11.7016 19.073C11.6488 19.0393 11.6026 18.9985 11.5628 18.9525C11.5039 18.9641 11.442 18.9682 11.3787 18.9641C11.1885 18.9525 11.0174 18.8603 10.8997 18.7202ZM17.113 3.89394e-05H17.0793C15.8885 -0.00642501 14.7893 0.792391 14.4865 2.01069C14.4855 2.01613 14.4835 2.02225 14.4825 2.02736L12.9355 9.98286L12.9059 9.97231C12.8188 9.94305 12.7304 9.92842 12.6433 9.92638H12.6212C12.2524 9.9274 11.9084 10.1598 11.7846 10.5282L11.7077 10.7575C11.5668 11.1739 11.7574 11.622 12.1367 11.819L10.7398 14.1709C10.6979 14.243 10.682 14.328 10.6979 14.4097L11.4294 18.2782L12.6283 14.7142C12.3469 14.4692 12.2248 14.0715 12.351 13.6976C12.4844 13.302 12.8545 13.0509 13.2516 13.0499H13.2631C13.3611 13.0509 13.4598 13.0665 13.5564 13.0992C14.0545 13.2656 14.3236 13.8034 14.1576 14.2998C14.0273 14.689 13.667 14.938 13.2781 14.9476L12.084 18.4983L15.0329 15.8573C15.0962 15.8018 15.136 15.7243 15.1455 15.6406L15.4524 12.9199L15.4714 12.9223C15.5038 12.9264 15.5354 12.9274 15.5681 12.9274H15.5868C15.9505 12.9199 16.2859 12.6886 16.4087 12.3256L16.4856 12.0962C16.6411 11.6346 16.391 11.1355 15.9273 10.9804L15.9253 10.9793L19.5019 3.70018C19.505 3.69507 19.507 3.68963 19.5091 3.68453C20.1187 2.26414 19.3808 0.627048 17.9097 0.136123C17.6447 0.05005 17.3766 0.00514213 17.113 3.89394e-05ZM3.84541 16.2363C4.13016 16.0216 4.39825 15.809 4.64218 15.5946C5.56484 14.7792 6.11156 13.9123 5.70466 12.5116C5.58899 12.1139 5.4063 11.8452 5.17291 11.7016C4.96164 11.5706 4.71465 11.5519 4.4697 11.6159C3.58379 11.8442 2.75877 13.0437 3.09626 14.5675C3.19799 15.0241 3.4841 15.6532 3.84541 16.2363Z"
            fill="black" />
    </symbol>

</svg>
