<svg xmlns="http://www.w3.org/2000/svg" style="display: none;">
  <symbol id="calendar-icon" viewBox="0 0 56 56">
<path d="M51.958 6.5897L38.4462 6.58975V3.22656C38.4462 2.29422 37.691 1.53906 36.7587 1.53906C35.8264 1.53906 35.0712 2.29422 35.0712 3.22656V6.58891H21.5712V3.22656C21.5712 2.29422 20.816 1.53906 19.8837 1.53906C18.9514 1.53906 18.1962 2.29422 18.1962 3.22656V6.58891H4.70801C2.84416 6.58891 1.33301 8.10006 1.33301 9.96391V52.1514C1.33301 54.0152 2.84416 55.5264 4.70801 55.5264H51.958C53.8218 55.5264 55.333 54.0152 55.333 52.1514V9.96391C55.333 8.10085 53.8218 6.5897 51.958 6.5897ZM51.958 52.1514H4.70801V9.96391H18.1962V11.6641C18.1962 12.5964 18.9514 13.3516 19.8837 13.3516C20.816 13.3516 21.5712 12.5964 21.5712 11.6641V9.96475H35.0712V11.6649C35.0712 12.5972 35.8264 13.3524 36.7587 13.3524C37.691 13.3524 38.4462 12.5972 38.4462 11.6649V9.96475H51.958V52.1514ZM40.1455 28.5272H43.5205C44.452 28.5272 45.208 27.7712 45.208 26.8397V23.4647C45.208 22.5332 44.452 21.7772 43.5205 21.7772H40.1455C39.214 21.7772 38.458 22.5332 38.458 23.4647V26.8397C38.458 27.7712 39.214 28.5272 40.1455 28.5272ZM40.1455 42.0264H43.5205C44.452 42.0264 45.208 41.2712 45.208 40.3389V36.9639C45.208 36.0324 44.452 35.2764 43.5205 35.2764H40.1455C39.214 35.2764 38.458 36.0324 38.458 36.9639V40.3389C38.458 41.272 39.214 42.0264 40.1455 42.0264ZM30.0205 35.2764H26.6455C25.714 35.2764 24.958 36.0324 24.958 36.9639V40.3389C24.958 41.2712 25.714 42.0264 26.6455 42.0264H30.0205C30.952 42.0264 31.708 41.2712 31.708 40.3389V36.9639C31.708 36.0332 30.952 35.2764 30.0205 35.2764ZM30.0205 21.7772H26.6455C25.714 21.7772 24.958 22.5332 24.958 23.4647V26.8397C24.958 27.7712 25.714 28.5272 26.6455 28.5272H30.0205C30.952 28.5272 31.708 27.7712 31.708 26.8397V23.4647C31.708 22.5324 30.952 21.7772 30.0205 21.7772ZM16.5205 21.7772H13.1455C12.214 21.7772 11.458 22.5332 11.458 23.4647V26.8397C11.458 27.7712 12.214 28.5272 13.1455 28.5272H16.5205C17.452 28.5272 18.208 27.7712 18.208 26.8397V23.4647C18.208 22.5324 17.452 21.7772 16.5205 21.7772ZM16.5205 35.2764H13.1455C12.214 35.2764 11.458 36.0324 11.458 36.9639V40.3389C11.458 41.2712 12.214 42.0264 13.1455 42.0264H16.5205C17.452 42.0264 18.208 41.2712 18.208 40.3389V36.9639C18.208 36.0332 17.452 35.2764 16.5205 35.2764Z" stroke-width="1.77469"></path>
  </symbol>
  
</svg>