<svg xmlns="http://www.w3.org/2000/svg" style="display: none;">
  <symbol id="calendar-icon" viewBox="0 0 56 56">
    <path d="M49.7 9.9h-6.3v-3.3c0-1.8-1.5-3.3-3.3-3.3-1.8 0-3.3 1.5-3.3 3.3v3.3h-14v-3.3c0-1.8-1.5-3.3-3.3-3.3-1.8 0-3.3 1.5-3.3 3.3v3.3h-14c-1.8 0-3.3 1.5-3.3 3.3v37.3c0 1.8 1.5 3.3 3.3 3.3h42.7c1.8 0 3.3-1.5 3.3-3.3v-37.3c0-1.8-1.5-3.3-3.3-3.3zM49.7 46.3h-42.7v-26.7h14v3.3c0 1.8 1.5 3.3 3.3 3.3 1.8 0 3.3-1.5 3.3-3.3v-3.3h14v3.3c0 1.8 1.5 3.3 3.3 3.3 1.8 0 3.3-1.5 3.3-3.3v-3.3h14v26.7z"/>
  </symbol>
</svg>