<svg xmlns="http://www.w3.org/2000/svg" style="display: none;">
 <symbol class="fill" id="invoice-icon" viewBox="0 0 72 64"  xmlns="http://www.w3.org/2000/svg">
				  <path d="M18.9194 2V50.544H3.1721C2.15902 50.544 1.33333 51.3697 1.33333 52.3828C1.33333 57.922 5.8384 62.4228 11.3791 62.4228H55.9314H56.5981V62.4091C56.765 62.4179 56.9338 62.4228 57.1035 62.4228C62.6442 62.4228 67.1492 57.922 67.1492 52.3828V42.9498C69.3095 40.9058 70.6667 38.0172 70.6667 34.8071C70.6667 31.5971 69.3095 28.7084 67.1492 26.6645V17.5683V17.3163L66.9825 17.1273L53.2508 1.55901L53.0517 1.33333H52.7508H19.586H18.9194V2ZM57.3472 12.044C58.7317 13.6422 60.1258 15.2485 61.2689 16.5648H56.0341C54.9504 16.5648 54.0624 15.6768 54.0624 14.5954V8.22076C54.4709 8.69618 54.9165 9.21487 55.3983 9.77571C55.9927 10.4677 56.6423 11.2238 57.3454 12.042L57.3472 12.044ZM11.3791 58.7464C8.51259 58.7464 6.07515 56.839 5.2858 54.2216H47.2266C47.543 55.9215 48.2861 57.4651 49.3383 58.7464H11.3791ZM63.4717 52.3828C63.4717 55.895 60.6189 58.7464 57.1035 58.7464C53.5881 58.7464 50.7353 55.895 50.7353 52.3828C50.7353 51.3697 49.9096 50.544 48.8965 50.544H22.5981V5.0097H50.3837V14.5954C50.3837 17.719 52.9265 20.2423 56.0341 20.2423H63.4717V24.3385C62.2237 23.8582 60.8643 23.5951 59.4488 23.5951C53.2621 23.5951 48.2298 28.6242 48.2298 34.8071C48.2298 40.99 53.2621 46.0192 59.4488 46.0192C60.8643 46.0192 62.2237 45.7561 63.4717 45.2758V52.3828ZM59.4488 42.3428C55.2875 42.3428 51.9085 38.9644 51.9085 34.8071C51.9085 30.65 55.2874 27.2726 59.4488 27.2726C63.609 27.2726 66.988 30.65 66.988 34.8071C66.988 38.9644 63.6089 42.3428 59.4488 42.3428Z"></path>
				  <path d="M26.6206 16.0625H48.8962V18.4055H26.6206V16.0625Z"></path>
				  <path d="M26.6206 24.2578H48.8962V26.602H26.6206V24.2578Z"></path>
				  <path d="M26.6206 32.4688H45.3787V34.8118H26.6206V32.4688Z"></path>
				  <path d="M26.6206 40.6641H48.8962V43.0083H26.6206V40.6641Z"></path>
				  <path d="M60.7674 29.561V28.6093C60.7674 28.1548 60.4005 27.7891 59.946 27.7891C59.4926 27.7891 59.1257 28.1548 59.1257 28.6093V29.561C57.9386 29.9268 57.1184 31.0112 57.1184 32.2709C57.1184 33.4719 57.7921 34.5551 58.8616 35.0974L60.0048 35.6684C60.6935 36.0203 61.1331 36.709 61.1331 37.4842C61.1331 37.9388 60.8839 38.3345 60.4882 38.5398C60.1663 38.7002 59.7706 38.7002 59.4338 38.5398C59.0381 38.3345 58.7889 37.9388 58.7889 37.4842C58.7889 37.0309 58.422 36.6651 57.9675 36.6651C57.5141 36.6651 57.1472 37.0309 57.1472 37.4842V37.7196C57.1472 37.8073 57.1622 37.8949 57.1911 37.9826C57.3376 38.8617 57.8948 39.6231 58.715 40.0188C58.8616 40.0915 59.0081 40.1503 59.1546 40.1941V41.0144C59.1546 41.4689 59.5214 41.8346 59.976 41.8346C60.4305 41.8346 60.7962 41.4689 60.7962 41.0144V40.1941C60.9427 40.1503 61.0892 40.0915 61.2357 40.0188C62.2036 39.5354 62.8047 38.5687 62.8047 37.4842C62.8047 36.0791 62.0271 34.8193 60.7674 34.1894L59.6241 33.6184C59.1107 33.3542 58.7889 32.842 58.7889 32.2709C58.7889 31.7287 59.1546 31.2604 59.6829 31.1288C59.8733 31.0839 60.0636 31.0839 60.254 31.1288C60.7824 31.2604 61.1481 31.7287 61.1481 32.2709V32.7543C61.1481 33.2077 61.5149 33.5746 61.9695 33.5746C62.4228 33.5746 62.7897 33.2077 62.7897 32.7543V32.2709C62.7747 31.0112 61.9545 29.9129 60.7674 29.561Z"></path>
				  </svg>
    </symbol>
    
</svg>    