<svg xmlns="http://www.w3.org/2000/svg" style="display: none;">
    <symbol id="dashboard-icon">
        <path
            d="M1.37784 1.03125C1.3483 1.03951 1.32003 1.05031 1.29239 1.06365C1.26507 1.07699 1.23902 1.09256 1.21425 1.11035C1.18979 1.12845 1.1666 1.14846 1.14563 1.17038C1.12435 1.1923 1.10561 1.21613 1.08845 1.24154C1.07162 1.26695 1.05701 1.29363 1.04494 1.32159C1.03255 1.34954 1.02302 1.37813 1.01603 1.40799C1.00904 1.43753 1.00459 1.46771 1.00269 1.4982C1.0011 1.5287 1.00205 1.55888 1.00586 1.58937C1.00586 4.68969 1.00586 7.78842 1.00586 10.8887C1.03191 11.0037 1.0748 11.112 1.1342 11.2143H8.38754V1.03125H1.47059"
            stroke="white" stroke-width="1.3" stroke-linecap="round" stroke-linejoin="round" />
        <path
            d="M11.9793 1.03125C11.7935 1.08335 11.6074 1.20596 11.6074 1.40322C11.5943 2.73674 11.6074 4.07026 11.6074 5.44857H19.0005V1.03125H12.0724"
            stroke="white" stroke-width="1.3" stroke-linecap="round" stroke-linejoin="round" />
        <path
            d="M11.9791 8.84375C11.9499 8.85201 11.9216 8.86281 11.894 8.87615C11.8666 8.88949 11.8406 8.90506 11.8158 8.92316C11.791 8.94095 11.7682 8.96096 11.7472 8.98288C11.7259 9.0048 11.7069 9.02863 11.69 9.05404C11.6732 9.07945 11.6586 9.10613 11.6465 9.13409C11.6341 9.16204 11.6246 9.19095 11.6176 9.22049C11.6103 9.25003 11.6062 9.28021 11.6043 9.3107C11.6027 9.3412 11.6036 9.37169 11.6071 9.40187C11.6071 12.5022 11.6071 15.6009 11.6071 18.7012C11.6335 18.8162 11.6764 18.9249 11.7355 19.0268H18.9891V8.84375H12.0722"
            stroke="white" stroke-width="1.3" stroke-linecap="round" stroke-linejoin="round" />
        <path
            d="M1.37776 14.6094C1.1824 14.6615 1.015 14.7841 1.00579 14.9813C0.992765 16.3149 1.00579 17.6484 1.00579 19.0267H8.39858V14.6094H1.47052"
            stroke="white" stroke-width="1.3" stroke-linecap="round" stroke-linejoin="round" />
    </symbol>
    <symbol id="chat-icon">
        <path fill-rule="evenodd" clip-rule="evenodd"
            d="M3.75 1.5H14.25C15.525 1.5 16.5 2.475 16.5 3.75V11.25C16.5 12.525 15.525 13.5 14.25 13.5H5.55L2.775 16.275C2.625 16.425 2.475 16.5 2.25 16.5C2.175 16.5 2.025 16.5 1.95 16.425C1.65 16.35 1.5 16.05 1.5 15.75V3.75C1.5 2.475 2.475 1.5 3.75 1.5ZM14.25 12C14.7 12 15 11.7 15 11.25V3.75C15 3.3 14.7 3 14.25 3H3.75C3.3 3 3 3.3 3 3.75V13.95L4.725 12.225C4.875 12.075 5.025 12 5.25 12H14.25Z">
        </path>

    </symbol>
    <symbol id="submit-service-request-icon">
        <path fill-rule="evenodd" clip-rule="evenodd"
            d="M13.0894 3.24854H11.3553V4.50459H12.8295V19.5288H1.17047V4.50459H2.64504V3.24854H0.910558C0.39074 3.24854 0 3.68137 0 4.15839V19.8325C0 20.352 0.433181 20.7424 0.910558 20.7424H13.0894C13.6093 20.7424 14 20.3096 14 19.8325V4.15839C14 3.68137 13.5651 3.24854 13.0894 3.24854Z" >
        </path>
        <path fill-rule="evenodd" clip-rule="evenodd"
            d="M9.40511 4.15819C9.1452 4.15819 8.92773 3.94072 8.92773 3.68116C8.92773 3.42161 9.1452 3.20414 9.40511 3.20414C9.66502 3.20414 9.88248 3.42161 9.88248 3.68116C9.83829 3.94072 9.66502 4.15819 9.40511 4.15819ZM6.97789 2.38092C6.45807 2.38092 6.02489 1.94844 6.02489 1.42897C6.02489 0.909856 6.45807 0.477026 6.97789 0.477026C7.49771 0.477026 7.93089 0.909856 7.93089 1.42897C7.93089 1.94844 7.49771 2.38092 6.97789 2.38092ZM4.55067 4.15819C4.29076 4.15819 4.07505 3.94072 4.07505 3.68116C4.07505 3.42161 4.29076 3.20414 4.55067 3.20414C4.81058 3.20414 5.02805 3.42161 5.02805 3.68116C5.02805 3.94072 4.81058 4.15819 4.55067 4.15819ZM10.793 2.38092H8.06172C8.27919 2.16556 8.40826 1.81936 8.40826 1.42897C8.40826 0.649947 7.75762 0 6.97789 0C6.19816 0 5.54786 0.649947 5.54786 1.42897C5.54786 1.77517 5.6787 2.12136 5.89406 2.38092H3.16449V4.97931H10.793V2.38092Z"  >
        </path>
        <path fill-rule="evenodd" clip-rule="evenodd" d="M2.34094 8.66064H11.6594V9.78762H2.34094V8.66064Z" stroke-width="0.1"></path>
        <path fill-rule="evenodd" clip-rule="evenodd" d="M2.34094 10.999H11.6594V12.1242H2.34094V10.999Z" stroke-width="0.1"></path>
        <path fill-rule="evenodd" clip-rule="evenodd" d="M2.34094 13.3818H11.6594V14.5067H2.34094V13.3818Z"  stroke-width="0.1"></path>
        <path fill-rule="evenodd" clip-rule="evenodd" d="M2.34094 15.7627H8.23501V16.8879H2.34094V15.7627Z"  stroke-width="0.1"></path>
    </symbol>
    <symbol id="pending-review-icon">
        <path
            d="M13 10.4762C10.24 10.4762 8 12.6095 8 15.2381C8 17.8667 10.24 20 13 20C15.76 20 18 17.8667 18 15.2381C18 12.6095 15.76 10.4762 13 10.4762ZM14.65 17.4762L12.5 15.4286V12.381H13.5V15.0381L15.35 16.8L14.65 17.4762ZM14 1.90476H10.82C10.4 0.8 9.3 0 8 0C6.7 0 5.6 0.8 5.18 1.90476H2C0.9 1.90476 0 2.7619 0 3.80952V18.0952C0 19.1429 0.9 20 2 20H8.11C7.51837 19.4531 7.03708 18.8075 6.69 18.0952H2V3.80952H4V6.66667H12V3.80952H14V8.64762C14.71 8.74286 15.38 8.94286 16 9.21905V3.80952C16 2.7619 15.1 1.90476 14 1.90476ZM8 3.80952C7.45 3.80952 7 3.38095 7 2.85714C7 2.33333 7.45 1.90476 8 1.90476C8.55 1.90476 9 2.33333 9 2.85714C9 3.38095 8.55 3.80952 8 3.80952Z">
        </path>
    </symbol>
    <symbol id="schedule-service-icon">
        <path fill-rule="evenodd" clip-rule="evenodd"
            d="M16.3559 14.229C16.463 14.3207 16.5295 14.4534 16.5397 14.5946C16.5498 14.7358 16.5023 14.877 16.4103 14.9841L14.6016 17.0677C14.4997 17.185 14.3516 17.2531 14.1966 17.2531H14.1544H14.156C13.9857 17.2393 13.8343 17.1443 13.7458 17.0012L12.9072 15.6662C12.7506 15.4142 12.8269 15.0843 13.0772 14.9278C13.3272 14.7715 13.6574 14.8462 13.814 15.0981L14.2681 15.8208L15.6057 14.285C15.798 14.0639 16.1331 14.0399 16.3559 14.2322V14.229ZM14.3873 14.2984H12.2467V16.4367C12.2467 16.7325 12.0069 16.9723 11.7127 16.9723C11.4166 16.9723 11.1768 16.7325 11.1768 16.4367V13.7628C11.1768 13.4686 11.4166 13.2288 11.7127 13.2288H14.3873C14.6835 13.2288 14.9216 13.4686 14.9216 13.7628C14.9216 14.0586 14.6835 14.2968 14.3873 14.2968V14.2984ZM12.2467 9.0885H13.853V10.6925H12.2467V9.0885ZM11.7127 11.7624H14.3873C14.5285 11.7624 14.6648 11.7064 14.765 11.6062C14.8653 11.5056 14.9216 11.3696 14.9216 11.2268V8.55286C14.9216 8.41166 14.8653 8.27571 14.765 8.17513C14.6648 8.07488 14.5285 8.01886 14.3873 8.01886H11.7127C11.4166 8.01886 11.1768 8.25867 11.1768 8.55286V11.2268C11.1768 11.3696 11.2328 11.5056 11.333 11.6062C11.4336 11.7064 11.5696 11.7624 11.7127 11.7624ZM7.75328 15.9093H6.14702V14.3037H7.75328V15.9093ZM8.2876 13.2337H5.6127C5.31654 13.2337 5.07673 13.4735 5.07673 13.7697V16.4433C5.07673 16.5864 5.13308 16.7224 5.23333 16.8226C5.33358 16.9232 5.46986 16.9776 5.6127 16.9776H8.2876C8.4288 16.9776 8.56476 16.9232 8.66533 16.8226C8.76558 16.7224 8.82357 16.5864 8.82357 16.4433V13.7697C8.82357 13.6268 8.76722 13.4905 8.66697 13.3903C8.56639 13.2881 8.43044 13.2304 8.2876 13.2304V13.2337ZM7.75328 10.6961H6.14702V9.0921H7.75328V10.6961ZM8.2876 8.02214H5.6127C5.31654 8.02214 5.07673 8.26195 5.07673 8.55614V11.2317C5.07673 11.3729 5.13308 11.5092 5.23333 11.6094C5.33358 11.7097 5.46986 11.766 5.6127 11.766H8.2876C8.4288 11.766 8.56476 11.7097 8.66533 11.6094C8.76558 11.5092 8.82357 11.3729 8.82357 11.2317V8.55614C8.82357 8.41494 8.76558 8.27898 8.66533 8.17874C8.56476 8.07816 8.4288 8.02214 8.2876 8.02214ZM16.3235 18.5422H3.67458C3.24934 18.5422 2.84115 18.3738 2.53975 18.0728C2.23868 17.7717 2.07029 17.3635 2.07029 16.9383V6.45389H17.9281V16.9366C17.9281 17.3635 17.7597 17.7717 17.4586 18.0711C17.1572 18.3738 16.749 18.5422 16.3235 18.5422ZM3.67458 2.68969H6.06348V3.32099C6.06348 3.61518 6.30362 3.85499 6.59781 3.85499C6.89396 3.85499 7.13377 3.61518 7.13377 3.32099V2.68969H12.8646V3.32099C12.8646 3.61518 13.1044 3.85499 13.4006 3.85499C13.6964 3.85499 13.9349 3.61518 13.9349 3.32099V2.68969H16.3235C16.749 2.68969 17.1572 2.85808 17.4586 3.15915C17.7597 3.46022 17.9281 3.86842 17.9281 4.29365V5.38229H2.07029V4.29365C2.07029 3.86842 2.23868 3.46022 2.53975 3.15915C2.84115 2.85808 3.24934 2.68969 3.67458 2.68969ZM16.3235 1.62006H13.9349V0.987123C13.9349 0.692933 13.6964 0.453125 13.4006 0.453125C13.1044 0.453125 12.8646 0.692933 12.8646 0.987123V1.62006H7.13377V0.987123C7.13377 0.692933 6.89396 0.453125 6.59781 0.453125C6.30362 0.453125 6.06348 0.692933 6.06348 0.987123V1.62006H3.67458C2.96531 1.62006 2.28454 1.90049 1.78429 2.40238C1.2824 2.90427 1 3.58439 1 4.29365V16.9383C1 17.6475 1.2824 18.328 1.78429 18.8282C2.28454 19.3298 2.96531 19.6122 3.67458 19.6122H16.3235C17.0331 19.6122 17.7138 19.3298 18.2157 18.8282C18.7176 18.328 19 17.6475 19 16.9383V4.29365C19 3.58439 18.7176 2.90427 18.2157 2.40238C17.7138 1.90049 17.0331 1.62006 16.3235 1.62006Z"
             stroke="#6E6B7B" stroke-width="0.1" />
    </symbol>

    <symbol id="today-icon">
        <path
            d="M16 2H15V0H13V2H5V0H3V2H2C1.46957 2 0.960859 2.21071 0.585786 2.58579C0.210714 2.96086 0 3.46957 0 4V18C0 18.5304 0.210714 19.0391 0.585786 19.4142C0.960859 19.7893 1.46957 20 2 20H16C17.11 20 18 19.11 18 18V4C18 2.89 17.11 2 16 2ZM16 18H2V8H16V18ZM16 6H2V4H16M4 10H9V15H4">
        </path>
    </symbol>
    <symbol id="upcomming-icon">
        <path
            d="M12.6 18.1818V16.3636H16.2V7.27273H3.6V10.9091H1.8V3.63636C1.8 3.13636 1.9761 2.70848 2.3283 2.35273C2.6811 1.99636 3.105 1.81818 3.6 1.81818H4.5V0H6.3V1.81818H13.5V0H15.3V1.81818H16.2C16.695 1.81818 17.1189 1.99636 17.4717 2.35273C17.8239 2.70848 18 3.13636 18 3.63636V16.3636C18 16.8636 17.8239 17.2918 17.4717 17.6482C17.1189 18.0039 16.695 18.1818 16.2 18.1818H12.6ZM6.3 20L5.04 18.7273L7.3575 16.3636H0V14.5455H7.3575L5.04 12.1818L6.3 10.9091L10.8 15.4545L6.3 20ZM3.6 5.45455H16.2V3.63636H3.6V5.45455ZM3.6 5.45455V3.63636V5.45455Z">
        </path>
    </symbol>
    <symbol id="past-icon">
        <path
            d="M16 2H15V0H13V2H5V0H3V2H2C1.46957 2 0.960859 2.21071 0.585786 2.58579C0.210714 2.96086 0 3.46957 0 4V18C0 18.5304 0.210714 19.0391 0.585786 19.4142C0.960859 19.7893 1.46957 20 2 20H16C17.11 20 18 19.11 18 18V4C18 2.89 17.11 2 16 2ZM16 18H2V8H16V18ZM16 6H2V4H16M4 10H9V15H4">
        </path>
    </symbol>
    <symbol id="draft-icon">
        <path
            d="M14 11H11V7H7V11H4L9 16L14 11ZM16 2H11.82C11.4 0.84 10.3 0 9 0C7.7 0 6.6 0.84 6.18 2H2C1.86 2 1.73 2.01 1.6 2.04C1.28151 2.10682 0.98404 2.25005 0.733191 2.45735C0.482341 2.66465 0.285632 2.92981 0.16 3.23C0.0600001 3.46 0 3.72 0 4V18C0 18.27 0.0600001 18.54 0.16 18.78C0.26 19.02 0.41 19.23 0.59 19.42C0.86 19.69 1.21 19.89 1.6 19.97C1.73 19.99 1.86 20 2 20H16C17.1 20 18 19.1 18 18V4C18 2.9 17.1 2 16 2ZM9 1.75C9.41 1.75 9.75 2.09 9.75 2.5C9.75 2.91 9.41 3.25 9 3.25C8.59 3.25 8.25 2.91 8.25 2.5C8.25 2.09 8.59 1.75 9 1.75ZM16 18H2V4H16V18Z">
        </path>
    </symbol>
     <symbol id="billing-icon">
        <path fill-rule="evenodd" clip-rule="evenodd"
            d="M14.8452 1H1.29769C1.13393 1 1 1.13484 1 1.29951V18.6737C1 18.8384 1.13393 18.9732 1.29769 18.9732H11.0361C11.1293 18.9732 11.2184 18.9282 11.2741 18.8533L15.0832 13.8209C15.1243 13.7686 15.1429 13.7046 15.1429 13.641V1.29951C15.1429 1.13484 15.0089 1 14.8452 1ZM11.0474 18.1645V15.0789C11.0474 14.5846 11.4492 14.1804 11.9401 14.1804H14.0641L11.0474 18.1645ZM14.5478 13.54L14.518 13.5811H11.9401C11.118 13.5811 10.452 14.2513 10.452 15.0789V18.3739H1.59507V1.59933H14.5478V13.54Z"
            stroke-width="0.5" />
        <path fill-rule="evenodd" clip-rule="evenodd" d="M3 5.99219H13V6.99219H3V5.99219Z" />
        <path fill-rule="evenodd" clip-rule="evenodd" d="M3 3.99219H13V4.99219H3V3.99219Z" />
        <path fill-rule="evenodd" clip-rule="evenodd" d="M3 7.99219H13V8.99219H3V7.99219Z" />
        <path fill-rule="evenodd" clip-rule="evenodd" d="M3 9.99219H13V10.9922H3V9.99219Z"/>
        <path fill-rule="evenodd" clip-rule="evenodd"
            d="M3.83799 16.8799C3.91267 16.9025 3.98796 16.9205 4.06999 16.9342V17.1978C4.06999 17.3428 4.26464 17.4609 4.50398 17.4609C4.74332 17.4609 4.93797 17.3428 4.93797 17.1978V16.9342C5.02 16.9205 5.09467 16.9025 5.16935 16.8799C5.67802 16.7253 6 16.4123 6 16.0671C6 15.6175 5.58866 15.2089 4.92267 15.0088L4.32402 14.8272C4.05529 14.7457 3.88268 14.5777 3.88268 14.3961C3.88268 14.2233 4.07733 14.0735 4.35401 14.0281C4.45134 14.0144 4.55601 14.0144 4.65334 14.0281C4.93001 14.0691 5.12467 14.2189 5.12467 14.3961V14.5504C5.12467 14.6958 5.31932 14.8136 5.55866 14.8136C5.798 14.8136 5.99265 14.6958 5.99265 14.5504V14.3961C5.99265 13.9963 5.55866 13.6423 4.93001 13.5287V13.2245C4.93001 13.0791 4.73597 12.9609 4.49663 12.9609C4.25668 12.9609 4.06264 13.0791 4.06264 13.2245V13.5287C3.43399 13.6468 3 13.9963 3 14.3961C3 14.7818 3.35197 15.1318 3.92063 15.3041L4.51867 15.4858C4.88533 15.5946 5.10998 15.8217 5.10998 16.0671C5.10998 16.2122 4.97531 16.3395 4.76535 16.403C4.59335 16.4577 4.384 16.4577 4.212 16.403C4.00265 16.3395 3.86799 16.2078 3.86799 16.0671C3.86799 15.9217 3.67333 15.8036 3.43399 15.8036C3.19465 15.8036 3 15.9217 3 16.0671V16.1395C3 16.1668 3.00796 16.1985 3.02265 16.2214C3.11263 16.5075 3.404 16.7482 3.83799 16.8799Z"
            />
    </symbol>
    <symbol id="inovice-icon">
        <path
            d="M10.45 13.3038H4.75001C4.49805 13.3038 4.25641 13.4039 4.07825 13.582C3.9001 13.7602 3.80001 14.0018 3.80001 14.2538C3.80001 14.5057 3.9001 14.7474 4.07825 14.9255C4.25641 15.1037 4.49805 15.2038 4.75001 15.2038H10.45C10.702 15.2038 10.9436 15.1037 11.1218 14.9255C11.2999 14.7474 11.4 14.5057 11.4 14.2538C11.4 14.0018 11.2999 13.7602 11.1218 13.582C10.9436 13.4039 10.702 13.3038 10.45 13.3038ZM6.65001 7.60377H8.55C8.80196 7.60377 9.0436 7.50368 9.22176 7.32552C9.39991 7.14736 9.5 6.90573 9.5 6.65377C9.5 6.40182 9.39991 6.16018 9.22176 5.98202C9.0436 5.80386 8.80196 5.70377 8.55 5.70377H6.65001C6.39805 5.70377 6.15641 5.80386 5.97825 5.98202C5.80009 6.16018 5.70001 6.40182 5.70001 6.65377C5.70001 6.90573 5.80009 7.14736 5.97825 7.32552C6.15641 7.50368 6.39805 7.60377 6.65001 7.60377ZM18.05 9.50377H15.2V0.953775C15.2007 0.786376 15.1571 0.621773 15.0737 0.476634C14.9903 0.331496 14.87 0.210975 14.725 0.127276C14.5806 0.043896 14.4168 0 14.25 0C14.0832 0 13.9194 0.043896 13.775 0.127276L10.925 1.76128L8.075 0.127276C7.93059 0.043896 7.76676 0 7.6 0C7.43324 0 7.26942 0.043896 7.125 0.127276L4.27501 1.76128L1.42501 0.127276C1.28059 0.043896 1.11677 0 0.950007 0C0.783247 0 0.619425 0.043896 0.475007 0.127276C0.330033 0.210975 0.20975 0.331496 0.126337 0.476634C0.0429236 0.621773 -0.0006571 0.786376 7.48873e-06 0.953775V16.1538C7.48873e-06 16.9096 0.300274 17.6345 0.834753 18.169C1.36923 18.7035 2.09414 19.0038 2.85001 19.0038H16.15C16.9059 19.0038 17.6308 18.7035 18.1653 18.169C18.6997 17.6345 19 16.9096 19 16.1538V10.4538C19 10.2018 18.8999 9.96018 18.7218 9.78202C18.5436 9.60386 18.302 9.50377 18.05 9.50377ZM2.85001 17.1038C2.59805 17.1038 2.35641 17.0037 2.17826 16.8255C2.0001 16.6474 1.90001 16.4057 1.90001 16.1538V2.59727L3.80001 3.68027C3.94663 3.75686 4.10959 3.79685 4.27501 3.79685C4.44042 3.79685 4.60338 3.75686 4.75001 3.68027L7.6 2.04627L10.45 3.68027C10.5966 3.75686 10.7596 3.79685 10.925 3.79685C11.0904 3.79685 11.2534 3.75686 11.4 3.68027L13.3 2.59727V16.1538C13.3026 16.4779 13.3604 16.7991 13.471 17.1038H2.85001ZM17.1 16.1538C17.1 16.4057 16.9999 16.6474 16.8218 16.8255C16.6436 17.0037 16.402 17.1038 16.15 17.1038C15.898 17.1038 15.6564 17.0037 15.4782 16.8255C15.3001 16.6474 15.2 16.4057 15.2 16.1538V11.4038H17.1V16.1538ZM10.45 9.50377H4.75001C4.49805 9.50377 4.25641 9.60386 4.07825 9.78202C3.9001 9.96018 3.80001 10.2018 3.80001 10.4538C3.80001 10.7057 3.9001 10.9474 4.07825 11.1255C4.25641 11.3037 4.49805 11.4038 4.75001 11.4038H10.45C10.702 11.4038 10.9436 11.3037 11.1218 11.1255C11.2999 10.9474 11.4 10.7057 11.4 10.4538C11.4 10.2018 11.2999 9.96018 11.1218 9.78202C10.9436 9.60386 10.702 9.50377 10.45 9.50377Z">
        </path>
    </symbol>
     <symbol id="payment-receipt-icon">
        <path
            d="M0 0V18H11.0769V16.6154H1.38462V1.38462H8.30769V5.53846H12.4615V6.92308H13.8462V4.56923L13.6385 4.36154L9.48462 0.207692L9.27692 0H0ZM9.69231 2.35385L11.4923 4.15385H9.69231V2.35385ZM2.76923 6.92308V8.30769H11.0769V6.92308H2.76923ZM14.5385 8.30769V9.69231C13.3615 9.9 12.4615 10.8692 12.4615 12.1154C12.4615 13.5 13.5 14.5385 14.8846 14.5385H15.5769C16.1308 14.5385 16.6154 15.0231 16.6154 15.5769C16.6154 16.1308 16.1308 16.6154 15.5769 16.6154H13.1538V18H14.5385V19.3846H15.9231V18C17.1 17.7923 18 16.8231 18 15.5769C18 14.1923 16.9615 13.1538 15.5769 13.1538H14.8846C14.3308 13.1538 13.8462 12.6692 13.8462 12.1154C13.8462 11.5615 14.3308 11.0769 14.8846 11.0769H17.3077V9.69231H15.9231V8.30769H14.5385ZM2.76923 10.3846V11.7692H7.61539V10.3846H2.76923ZM9 10.3846V11.7692H11.0769V10.3846H9ZM2.76923 13.1538V14.5385H7.61539V13.1538H2.76923ZM9 13.1538V14.5385H11.0769V13.1538H9Z">
        </path>
    </symbol>
    <symbol id="profile-icon">
        <path  fill-rule="evenodd" clip-rule="evenodd"
            d="M9.99984 12.6848C7.68749 12.6848 5.80625 10.8035 5.80625 8.49117C5.80625 6.17882 7.68749 4.29759 9.99984 4.29759C12.3122 4.29759 14.1934 6.17882 14.1934 8.49117C14.1934 10.8035 12.3122 12.6848 9.99984 12.6848ZM9.99984 4.87526C8.00603 4.87526 6.38392 6.49737 6.38392 8.49117C6.38392 10.4853 8.00603 12.1074 9.99984 12.1074C11.994 12.1074 13.6161 10.4853 13.6161 8.49117C13.6161 6.49737 11.994 4.87526 9.99984 4.87526ZM16.3638 3.66743C14.6641 1.96774 12.4039 1.03125 9.99984 1.03125C7.59605 1.03125 5.33586 1.96774 3.63585 3.66743C1.93616 5.36744 1 7.6273 1 10.0314C1 12.4355 1.93616 14.6954 3.63585 16.3954C5.33586 18.0954 7.59605 19.0312 9.99984 19.0312C12.4039 19.0312 14.6641 18.0954 16.3638 16.3954C18.0638 14.6954 19 12.4355 19 10.0314C19 7.6273 18.0638 5.36744 16.3638 3.66743ZM4.04418 4.07576C5.63526 2.48501 7.75021 1.60892 9.99984 1.60892C12.2495 1.60892 14.3647 2.48501 15.9555 4.07576C17.5462 5.66651 18.4223 7.78179 18.4223 10.0314C18.4223 11.9014 17.8163 13.6784 16.6982 15.1387C15.8083 13.8946 14.3875 13.1594 12.8443 13.1594H7.15537C5.61248 13.1594 4.1914 13.8946 3.30145 15.1387C2.18341 13.6784 1.57734 11.9014 1.57734 10.0314C1.57734 7.78179 2.45343 5.66651 4.04418 4.07576ZM9.99984 18.4539C7.75021 18.4539 5.63526 17.5778 4.04418 15.9871C3.9194 15.862 3.79957 15.7336 3.68338 15.6025C4.45713 14.4326 5.74848 13.7368 7.15537 13.7368H12.8443C14.2512 13.7368 15.5425 14.4326 16.3163 15.6025C16.2004 15.7336 16.0803 15.862 15.9555 15.9871C14.3647 17.5778 12.2495 18.4539 9.99984 18.4539Z"
            stroke-width="0.6" />
    </symbol>
    <symbol id="myprofile-icon">
        <path
            d="M14.5 1H1.9C1.66131 1 1.43239 1.09482 1.2636 1.2636C1.09482 1.43239 1 1.66131 1 1.9V18.1C1 18.3387 1.09482 18.5676 1.2636 18.7364C1.43239 18.9052 1.66131 19 1.9 19H14.5C14.7387 19 14.9676 18.9052 15.1364 18.7364C15.3052 18.5676 15.4 18.3387 15.4 18.1V1.9C15.4 1.66131 15.3052 1.43239 15.1364 1.2636C14.9676 1.09482 14.7387 1 14.5 1V1Z"
            stroke-width="1.8" stroke-linecap="round" stroke-linejoin="round"></path>
        <path
            d="M10.9 9.55005L9.34074 7.9908M5.04999 12.7H11.35M5.04999 15.4H8.19999M9.34074 7.9908C9.554 7.78284 9.72385 7.5346 9.84044 7.26049C9.95702 6.98638 10.018 6.69185 10.0199 6.39398C10.0217 6.09611 9.96445 5.80084 9.85131 5.52529C9.73817 5.24974 9.57144 4.99939 9.3608 4.78878C9.15016 4.57817 8.89979 4.41148 8.62422 4.29838C8.34866 4.18528 8.05338 4.12802 7.75551 4.12993C7.45764 4.13184 7.16312 4.19287 6.88902 4.30949C6.61493 4.42611 6.36672 4.596 6.15879 4.8093C5.73994 5.23194 5.50557 5.80329 5.50696 6.39832C5.50834 6.99335 5.74538 7.56361 6.16619 7.9843C6.587 8.40499 7.15732 8.64186 7.75234 8.64308C8.34737 8.6443 8.91866 8.40976 9.34119 7.9908H9.34074Z"
            stroke-width="1.8" stroke-linecap="round" stroke-linejoin="round"></path>
    </symbol>
    <symbol id="company-profile-icon" width="21" height="18" viewBox="0 0 21 18" fill="none"
        xmlns="http://www.w3.org/2000/svg">
        <path
            d="M21 0V17.0625H0V0H21ZM1.3125 1.3125V3.9375H19.6875V1.3125H1.3125ZM19.6875 15.75V5.25H1.3125V15.75H19.6875ZM12.4072 10.9922C12.7217 11.1699 13.002 11.3818 13.248 11.6279C13.4941 11.874 13.7061 12.144 13.8838 12.438C14.0615 12.7319 14.1982 13.0498 14.2939 13.3916C14.3896 13.7334 14.4375 14.082 14.4375 14.4375H13.125C13.125 14.0752 13.0566 13.7368 12.9199 13.4224C12.7832 13.1079 12.5952 12.8276 12.356 12.5815C12.1167 12.3354 11.8398 12.1475 11.5254 12.0176C11.2109 11.8877 10.8691 11.8193 10.5 11.8125C10.1377 11.8125 9.79932 11.8809 9.48486 12.0176C9.17041 12.1543 8.89014 12.3423 8.64404 12.5815C8.39795 12.8208 8.20996 13.0977 8.08008 13.4121C7.9502 13.7266 7.88184 14.0684 7.875 14.4375H6.5625C6.5625 14.082 6.61035 13.7368 6.70605 13.4019C6.80176 13.0669 6.93506 12.749 7.10596 12.4482C7.27686 12.1475 7.48877 11.874 7.7417 11.6279C7.99463 11.3818 8.27832 11.1699 8.59277 10.9922C8.36719 10.7529 8.19287 10.4761 8.06982 10.1616C7.94678 9.84717 7.88184 9.52246 7.875 9.1875C7.875 8.8252 7.94336 8.48682 8.08008 8.17236C8.2168 7.85791 8.40479 7.57764 8.64404 7.33154C8.8833 7.08545 9.16016 6.89746 9.47461 6.76758C9.78906 6.6377 10.1309 6.56934 10.5 6.5625C10.8623 6.5625 11.2007 6.63086 11.5151 6.76758C11.8296 6.9043 12.1099 7.09229 12.356 7.33154C12.6021 7.5708 12.79 7.84766 12.9199 8.16211C13.0498 8.47656 13.1182 8.81836 13.125 9.1875C13.125 9.52246 13.0635 9.84717 12.9404 10.1616C12.8174 10.4761 12.6396 10.7529 12.4072 10.9922ZM9.1875 9.1875C9.1875 9.37207 9.22168 9.54297 9.29004 9.7002C9.3584 9.85742 9.45068 9.99414 9.56689 10.1104C9.68311 10.2266 9.82324 10.3223 9.9873 10.3975C10.1514 10.4727 10.3223 10.5068 10.5 10.5C10.6846 10.5 10.8555 10.4658 11.0127 10.3975C11.1699 10.3291 11.3066 10.2368 11.4229 10.1206C11.5391 10.0044 11.6348 9.86426 11.71 9.7002C11.7852 9.53613 11.8193 9.36523 11.8125 9.1875C11.8125 9.00293 11.7783 8.83203 11.71 8.6748C11.6416 8.51758 11.5493 8.38086 11.4331 8.26465C11.3169 8.14844 11.1768 8.05273 11.0127 7.97754C10.8486 7.90234 10.6777 7.86816 10.5 7.875C10.3154 7.875 10.1445 7.90918 9.9873 7.97754C9.83008 8.0459 9.69336 8.13818 9.57715 8.25439C9.46094 8.37061 9.36523 8.51074 9.29004 8.6748C9.21484 8.83887 9.18066 9.00977 9.1875 9.1875Z">
        </path>
    </symbol>
    <symbol id="add-team-icon">
        <path
            d="M4.56731 8.7712C4.3735 8.7712 4.18762 8.69421 4.05058 8.55716C3.91353 8.42012 3.83654 8.23424 3.83654 8.04043C3.83654 7.84662 3.91353 7.66075 4.05058 7.5237C4.18762 7.38665 4.3735 7.30966 4.56731 7.30966H7.85577C8.04958 7.30966 8.23545 7.38665 8.3725 7.5237C8.50955 7.66075 8.58654 7.84662 8.58654 8.04043C8.58654 8.23424 8.50955 8.42012 8.3725 8.55716C8.23545 8.69421 8.04958 8.7712 7.85577 8.7712H6.94231V12.425C6.94231 12.6189 6.86532 12.8047 6.72827 12.9418C6.59122 13.0788 6.40535 13.1558 6.21154 13.1558C6.01773 13.1558 5.83185 13.0788 5.69481 12.9418C5.55776 12.8047 5.48077 12.6189 5.48077 12.425V8.7712H4.56731ZM19 7.00822V12.425C18.9987 13.3395 18.6546 14.2202 18.0357 14.8933C17.4167 15.5664 16.5678 15.9829 15.6567 16.0606C15.2225 17.1421 14.4749 18.069 13.51 18.7226C12.5451 19.3761 11.4069 19.7263 10.2415 19.7282C9.07612 19.7302 7.93675 19.3838 6.96965 18.7336C6.00255 18.0833 5.25186 17.1589 4.81394 16.0789H1.46154C1.07391 16.0789 0.702166 15.9249 0.428075 15.6508C0.153983 15.3767 0 15.005 0 14.6174V5.84812C0 5.4605 0.153983 5.08875 0.428075 4.81466C0.702166 4.54057 1.07391 4.38659 1.46154 4.38659H6.65C6.60266 4.14584 6.57819 3.90117 6.57692 3.65582C6.57651 2.88083 6.82251 2.12579 7.27939 1.49979C7.73626 0.873802 8.38035 0.409291 9.11856 0.17339C9.85677 -0.0625116 10.6509 -0.0575841 11.3861 0.18746C12.1213 0.432505 12.7596 0.904973 13.2087 1.53659C13.68 1.25579 14.2174 1.10488 14.7661 1.09923C15.3147 1.09357 15.8551 1.23337 16.3322 1.5044C16.8093 1.77542 17.206 2.168 17.4821 2.64218C17.7582 3.11635 17.9037 3.65521 17.9038 4.20389C17.9051 4.78599 17.7403 5.35638 17.4288 5.84812H17.8399C17.9923 5.84812 18.1431 5.87813 18.2839 5.93643C18.4246 5.99473 18.5525 6.08018 18.6602 6.18791C18.7679 6.29563 18.8534 6.42352 18.9117 6.56427C18.97 6.70502 19 6.85587 19 7.00822ZM13.8024 2.89764C13.8578 3.14654 13.8854 3.40083 13.8846 3.65582C13.8853 4.20359 13.7603 4.74422 13.5192 5.23611C13.6937 5.45239 13.9201 5.62094 14.1773 5.72602C14.4345 5.8311 14.7142 5.86927 14.9902 5.83698C15.2661 5.80469 15.5294 5.70299 15.7555 5.54137C15.9815 5.37975 16.1629 5.16348 16.2827 4.91277C16.4025 4.66206 16.4568 4.38507 16.4405 4.10769C16.4242 3.8303 16.338 3.56156 16.1897 3.32656C16.0414 3.09155 15.836 2.89796 15.5927 2.76385C15.3493 2.62974 15.0759 2.55949 14.7981 2.55966C14.4378 2.55824 14.0874 2.6772 13.8024 2.89764ZM8.16635 4.38659H10.9615C11.1673 4.3871 11.3707 4.43135 11.5581 4.51639C11.7455 4.60142 11.9127 4.72532 12.0486 4.87986C12.2909 4.51747 12.4211 4.09175 12.4231 3.65582C12.4231 3.07438 12.1921 2.51676 11.781 2.10562C11.3698 1.69448 10.8122 1.46351 10.2308 1.46351C9.64933 1.46351 9.09171 1.69448 8.68057 2.10562C8.26944 2.51676 8.03846 3.07438 8.03846 3.65582C8.04014 3.90482 8.08336 4.15181 8.16635 4.38659ZM1.46154 14.6174H10.9615V5.84812H1.46154V14.6174ZM14.6154 13.8866V7.30966H12.4231V14.6174C12.4231 15.005 12.2691 15.3767 11.995 15.6508C11.7209 15.9249 11.3492 16.0789 10.9615 16.0789H6.43077C6.81934 16.7428 7.37406 17.294 8.04036 17.6784C8.70665 18.0628 9.46155 18.2671 10.2308 18.2712C11.3936 18.2712 12.5089 17.8093 13.3312 16.987C14.1534 16.1647 14.6154 15.0495 14.6154 13.8866ZM17.5385 7.30966H16.0769V13.8866C16.0787 14.0912 16.0665 14.2957 16.0404 14.4986C16.4757 14.3533 16.8544 14.075 17.1232 13.703C17.392 13.331 17.5372 12.884 17.5385 12.425V7.30966Z">
        </path>
    </symbol>
       <symbol id="system-log-icon">
        <path fill-rule="evenodd" clip-rule="evenodd"
            d="M4.66016 6.37013C4.66381 6.54393 4.67568 6.71743 4.69577 6.89002C4.71586 7.06291 4.74417 7.23427 4.78069 7.40412C4.81722 7.57427 4.86196 7.74198 4.91462 7.90787C4.96697 8.07346 5.02755 8.2363 5.09573 8.39641C5.16391 8.55621 5.2394 8.71266 5.32249 8.86546C5.40589 9.01826 5.49599 9.1665 5.59339 9.31078C5.6908 9.45475 5.79459 9.59385 5.90539 9.72808C6.01588 9.86201 6.13276 9.99077 6.25573 10.1137C6.3787 10.2367 6.50715 10.3533 6.64139 10.4641C6.77562 10.5749 6.91472 10.6787 7.0587 10.7761C7.20297 10.8735 7.35121 10.9636 7.50401 11.0467C7.65681 11.1301 7.81296 11.2056 7.97306 11.2737C8.13317 11.3419 8.29601 11.4025 8.4616 11.4549C8.62749 11.5075 8.7952 11.5523 8.96535 11.5888C9.1352 11.6253 9.30656 11.6536 9.47945 11.6737C9.65204 11.6938 9.82554 11.7057 9.99934 11.709C10.1731 11.7057 10.3463 11.6938 10.5192 11.6734C10.6918 11.6533 10.8632 11.625 11.033 11.5885C11.2032 11.5519 11.3709 11.5072 11.5368 11.4545C11.7024 11.4022 11.8652 11.3416 12.0253 11.2734C12.1851 11.2053 12.3416 11.1295 12.4944 11.0464C12.6469 10.9633 12.7954 10.8732 12.9394 10.7758C13.0837 10.6784 13.2228 10.5743 13.3567 10.4638C13.4909 10.353 13.6194 10.2361 13.7423 10.1131C13.8653 9.99046 13.9822 9.86171 14.0927 9.72778C14.2035 9.59355 14.3076 9.45444 14.4047 9.31047C14.5021 9.16619 14.5925 9.01796 14.6756 8.86516C14.7587 8.71236 14.8345 8.55621 14.9026 8.3961C14.9708 8.2363 15.0311 8.07346 15.0838 7.90757C15.1364 7.74198 15.1809 7.57397 15.2177 7.40412C15.2542 7.23397 15.2825 7.0626 15.3026 6.89002C15.3227 6.71743 15.3346 6.54393 15.3382 6.37013C15.3382 6.28277 15.3361 6.19541 15.3318 6.10806C15.3276 6.021 15.3212 5.93395 15.3127 5.8469C15.3041 5.75984 15.2932 5.67309 15.2804 5.58665C15.2676 5.5002 15.2527 5.41437 15.2356 5.32853C15.2186 5.243 15.1994 5.15777 15.1781 5.07285C15.1571 4.98823 15.1337 4.90392 15.1084 4.82021C15.0828 4.73681 15.0554 4.65371 15.0262 4.57153C14.9967 4.48935 14.9654 4.40777 14.9319 4.32711C14.8984 4.24614 14.8631 4.1664 14.8256 4.08756C14.7882 4.00842 14.7489 3.9305 14.7078 3.85349C14.6668 3.77618 14.6235 3.70039 14.5788 3.62551C14.5337 3.55032 14.4869 3.47666 14.4385 3.40392C14.3901 3.33147 14.3395 3.25994 14.2875 3.18963C14.2354 3.11962 14.1819 3.05083 14.1265 2.98326C14.0711 2.91569 14.0138 2.84933 13.9551 2.7848C13.8967 2.71997 13.8364 2.65666 13.7746 2.59487C13.7128 2.53308 13.6495 2.47281 13.5847 2.41437C13.5198 2.35562 13.4538 2.2984 13.3862 2.243C13.3186 2.1876 13.2498 2.13403 13.1798 2.08198C13.1095 2.02993 13.038 1.9794 12.9656 1.93101C12.8928 1.88231 12.8191 1.83573 12.744 1.79069C12.6691 1.74594 12.593 1.70272 12.516 1.66163C12.439 1.62054 12.361 1.58127 12.2819 1.54383C12.2031 1.50639 12.123 1.47108 12.0424 1.4376C11.9617 1.40412 11.8801 1.37277 11.7979 1.34324C11.7158 1.31372 11.6327 1.28632 11.549 1.26106C11.4656 1.2358 11.3812 1.21236 11.2966 1.19105C11.2117 1.17005 11.1265 1.15087 11.0409 1.13383C10.9551 1.11678 10.869 1.10187 10.7825 1.08908C10.6964 1.07599 10.6096 1.06534 10.5226 1.05682C10.4355 1.0483 10.3485 1.0419 10.2611 1.03764C10.1741 1.03338 10.0867 1.03125 9.99934 1.03125C9.91198 1.03125 9.82462 1.03338 9.73727 1.03764C9.64991 1.0419 9.56285 1.0483 9.47611 1.05682C9.38905 1.06534 9.3023 1.07599 9.21586 1.08908C9.12941 1.10187 9.04327 1.11678 8.95774 1.13383C8.87191 1.15087 8.78668 1.17005 8.70206 1.19105C8.61714 1.21236 8.53313 1.2358 8.44942 1.26106C8.36572 1.28632 8.28292 1.31372 8.20074 1.34324C8.11825 1.37277 8.03698 1.40412 7.95602 1.4376C7.87536 1.47108 7.79561 1.50639 7.71647 1.54383C7.63763 1.58127 7.55941 1.62054 7.4824 1.66163C7.40539 1.70272 7.32929 1.74594 7.25441 1.79069C7.17954 1.83573 7.10587 1.88231 7.03313 1.93101C6.96038 1.9794 6.88915 2.02993 6.81884 2.08198C6.74853 2.13403 6.67974 2.1876 6.61217 2.243C6.54459 2.2984 6.47854 2.35562 6.41371 2.41437C6.34918 2.47281 6.28587 2.53308 6.22408 2.59487C6.16229 2.65666 6.10202 2.71997 6.04327 2.7848C5.98453 2.84933 5.92761 2.91569 5.87221 2.98326C5.81681 3.05083 5.76294 3.11962 5.71089 3.18963C5.65884 3.25994 5.60861 3.33147 5.56022 3.40392C5.51152 3.47666 5.46464 3.55032 5.4199 3.62551C5.37485 3.70039 5.33193 3.77618 5.29084 3.85349C5.24944 3.9305 5.21018 4.00842 5.17274 4.08756C5.1356 4.1664 5.09999 4.24614 5.06681 4.32711C5.03333 4.40777 5.00167 4.48935 4.97245 4.57153C4.94293 4.65371 4.91553 4.73681 4.89027 4.82021C4.8647 4.90392 4.84157 4.98823 4.82026 5.07285C4.79895 5.15777 4.77978 5.243 4.76273 5.32853C4.74569 5.41437 4.73077 5.5002 4.71799 5.58665C4.7052 5.67309 4.69455 5.75984 4.68603 5.8469C4.67751 5.93395 4.67111 6.021 4.66685 6.10806C4.66229 6.19541 4.66016 6.28277 4.66016 6.37013ZM12.9476 9.65808C12.8398 9.75396 12.7275 9.84436 12.6106 9.92898C12.4941 10.0139 12.3735 10.093 12.2493 10.1661C12.1248 10.2391 11.9973 10.3058 11.8664 10.3667C11.7355 10.4273 11.6019 10.4814 11.4659 10.5289C11.3295 10.5767 11.1916 10.6175 11.0513 10.6516C10.9113 10.686 10.7697 10.7131 10.627 10.7335C10.4842 10.7539 10.3406 10.7672 10.1966 10.7736C10.0523 10.78 9.90833 10.7794 9.76436 10.7718C9.62008 10.7642 9.47702 10.7496 9.33426 10.728C9.19151 10.7064 9.05027 10.6781 8.91056 10.6425C8.77055 10.6071 8.63296 10.5651 8.49721 10.5164C8.36145 10.4674 8.22844 10.4123 8.09786 10.3505C7.96758 10.2888 7.84066 10.2206 7.71677 10.1466C7.59319 10.0723 7.47326 9.99229 7.3573 9.90645C7.24133 9.82062 7.12992 9.72961 7.02278 9.63281C6.91594 9.53602 6.81367 9.43436 6.71657 9.32782C6.75796 9.25629 6.8018 9.18628 6.84806 9.1178C6.89402 9.04901 6.94212 8.98204 6.99264 8.9166C7.04317 8.85116 7.09583 8.78724 7.15031 8.72545C7.2048 8.66335 7.26141 8.60309 7.32016 8.54495C7.3786 8.48651 7.43887 8.4302 7.50127 8.37571C7.56336 8.32123 7.62728 8.26918 7.69303 8.21895C7.75878 8.16873 7.82574 8.12064 7.89453 8.07468C7.96332 8.02902 8.03363 7.98549 8.10516 7.9441C8.17669 7.903 8.24975 7.86404 8.32402 7.82752C8.39798 7.7913 8.47347 7.7572 8.54956 7.72555C8.62596 7.6942 8.70328 7.66498 8.78181 7.63849C8.86003 7.61201 8.93917 7.58797 9.01892 7.56666C9.09867 7.54535 9.17903 7.52679 9.2603 7.51065C9.34126 7.49452 9.42284 7.48113 9.50472 7.47048C9.5866 7.45952 9.66878 7.4516 9.75127 7.44612C9.83376 7.44065 9.91624 7.43791 9.99904 7.43791C10.0815 7.43791 10.1643 7.44065 10.2468 7.44612C10.329 7.4516 10.4115 7.45952 10.4934 7.47048C10.5752 7.48113 10.6568 7.49452 10.7378 7.51065C10.8187 7.52679 10.8994 7.54535 10.9791 7.56666C11.0589 7.58797 11.138 7.61201 11.2163 7.63849C11.2945 7.66498 11.3718 7.6942 11.4482 7.72555C11.5246 7.7572 11.6001 7.7913 11.6741 7.82752C11.7483 7.86404 11.8211 7.903 11.8929 7.9441C11.9644 7.98549 12.0344 8.02902 12.1032 8.07468C12.172 8.12064 12.2393 8.16873 12.305 8.21895C12.3708 8.26918 12.4347 8.32123 12.4968 8.37571C12.5589 8.4302 12.6195 8.48651 12.6779 8.54495C12.7364 8.60309 12.793 8.66335 12.8478 8.72545C12.9022 8.78724 12.9549 8.85116 13.0054 8.9166C13.0557 8.98204 13.104 9.04901 13.15 9.1178C13.1963 9.18628 13.2398 9.25629 13.2815 9.32782C13.1762 9.44379 13.0648 9.55398 12.9476 9.65808ZM8.62627 5.14986C8.62627 5.10481 8.6287 5.06007 8.63296 5.01532C8.63753 4.97058 8.64392 4.92614 8.65275 4.882C8.66158 4.83787 8.67253 4.79434 8.68562 4.75142C8.69841 4.7082 8.71363 4.66589 8.73098 4.62449C8.74802 4.58279 8.7672 4.54231 8.7885 4.50274C8.80981 4.46287 8.83264 4.42451 8.8579 4.38707C8.88286 4.34963 8.90934 4.31372 8.93796 4.27902C8.96657 4.24401 8.9967 4.21084 9.02836 4.17918C9.06032 4.14722 9.0935 4.11709 9.1282 4.08847C9.1632 4.06017 9.19912 4.03338 9.23656 4.00842C9.274 3.98346 9.31235 3.96033 9.35222 3.93902C9.39179 3.91772 9.43227 3.89854 9.47398 3.88149C9.51537 3.86414 9.55768 3.84923 9.6006 3.83614C9.64382 3.82305 9.68735 3.81209 9.73148 3.80327C9.77562 3.79444 9.82006 3.78805 9.8648 3.78348C9.90955 3.77922 9.95429 3.77709 9.99934 3.77709C10.0441 3.77709 10.0891 3.77922 10.1339 3.78348C10.1786 3.78805 10.2231 3.79444 10.2672 3.80327C10.3113 3.81209 10.3549 3.82305 10.3978 3.83614C10.4407 3.84923 10.483 3.86414 10.5247 3.88149C10.5661 3.89854 10.6069 3.91772 10.6465 3.93902C10.686 3.96033 10.7247 3.98346 10.7621 4.00842C10.7993 4.03338 10.8355 4.06017 10.8702 4.08847C10.9049 4.11709 10.9384 4.14722 10.97 4.17918C11.002 4.21084 11.0321 4.24401 11.0604 4.27902C11.089 4.31372 11.1158 4.34963 11.1408 4.38707C11.1657 4.42451 11.1889 4.46287 11.2102 4.50274C11.2312 4.54231 11.2504 4.58279 11.2677 4.62449C11.2848 4.66589 11.3 4.7082 11.3131 4.75142C11.3261 4.79434 11.3371 4.83787 11.3456 4.882C11.3545 4.92614 11.3612 4.97058 11.3654 5.01532C11.37 5.06007 11.3721 5.10481 11.3721 5.14986C11.3721 5.19491 11.37 5.23965 11.3654 5.2844C11.3612 5.32914 11.3545 5.37358 11.3456 5.41772C11.3371 5.46185 11.3261 5.50538 11.3131 5.5483C11.3 5.59152 11.2848 5.63352 11.2677 5.67522C11.2504 5.71662 11.2312 5.75741 11.2102 5.79698C11.1889 5.83655 11.1657 5.8752 11.1408 5.91264C11.1158 5.95008 11.089 5.986 11.0604 6.0207C11.0321 6.0554 11.002 6.08888 10.97 6.12054C10.9384 6.1525 10.9049 6.18263 10.8702 6.21094C10.8355 6.23955 10.7993 6.26634 10.7621 6.2913C10.7247 6.31625 10.686 6.33939 10.6465 6.36069C10.6069 6.3817 10.5661 6.40087 10.5247 6.41822C10.483 6.43527 10.4407 6.45049 10.3978 6.46358C10.3549 6.47666 10.3113 6.48762 10.2672 6.49645C10.2231 6.50497 10.1786 6.51167 10.1339 6.51623C10.0891 6.5205 10.0441 6.52263 9.99934 6.52263C9.95429 6.52263 9.90955 6.5205 9.8648 6.51593C9.82006 6.51136 9.77562 6.50497 9.73148 6.49614C9.68735 6.48732 9.64382 6.47636 9.6009 6.46327C9.55798 6.45018 9.51568 6.43496 9.47428 6.41761C9.43258 6.40057 9.3921 6.38139 9.35253 6.36009C9.31296 6.33878 9.2743 6.31565 9.23686 6.29069C9.19973 6.26573 9.1635 6.23894 9.1288 6.21063C9.09411 6.18202 9.06093 6.15189 9.02897 6.12023C8.99731 6.08827 8.96718 6.05509 8.93857 6.02039C8.90995 5.98569 8.88317 5.94947 8.85821 5.91203C8.83325 5.8749 8.81012 5.83624 8.78911 5.79667C8.76781 5.7571 8.74863 5.71632 8.73128 5.67492C8.71423 5.63352 8.69902 5.59121 8.68593 5.5483C8.67284 5.50507 8.66188 5.46155 8.65305 5.41741C8.64423 5.37358 8.63753 5.32914 8.63327 5.2844C8.6287 5.23965 8.62657 5.19491 8.62627 5.14986ZM14.4229 6.37013C14.4226 6.74726 14.3745 7.1183 14.2787 7.48295C14.1831 7.84761 14.0425 8.1943 13.8577 8.52303C13.7183 8.32427 13.5646 8.13768 13.396 7.96297C13.2276 7.78856 13.0465 7.62815 12.8529 7.48174C12.6593 7.33563 12.4554 7.20536 12.2414 7.09091C12.0274 6.97646 11.8059 6.87936 11.5767 6.79992C11.6314 6.74757 11.6835 6.69278 11.7331 6.63555C11.7824 6.57802 11.829 6.51836 11.8725 6.45627C11.916 6.39448 11.9562 6.33056 11.9934 6.26451C12.0305 6.19846 12.0643 6.13089 12.0947 6.06149C12.1252 5.99209 12.1519 5.92147 12.1754 5.84933C12.1988 5.77719 12.2186 5.70444 12.2347 5.63017C12.2509 5.55621 12.2633 5.48164 12.2722 5.40645C12.281 5.33127 12.2859 5.25578 12.2871 5.17999C12.2883 5.10451 12.2859 5.02871 12.2798 4.95323C12.2734 4.87774 12.2633 4.80286 12.2496 4.72829C12.2359 4.65402 12.2186 4.58036 12.1976 4.50761C12.1766 4.43486 12.1522 4.36333 12.1239 4.29302C12.0959 4.22271 12.0643 4.15392 12.0296 4.08665C11.9946 4.01938 11.9562 3.95424 11.9148 3.89063C11.8734 3.82731 11.829 3.76613 11.7815 3.70708C11.734 3.64834 11.6838 3.59172 11.6305 3.53785C11.5776 3.48366 11.5219 3.43253 11.4637 3.38413C11.4056 3.33543 11.345 3.29008 11.2823 3.24777C11.2196 3.20515 11.1551 3.16589 11.0884 3.12997C11.0218 3.09375 10.9536 3.06118 10.8836 3.03196C10.8139 3.00274 10.7426 2.97687 10.6702 2.95465C10.5981 2.93243 10.5247 2.91386 10.4504 2.89894C10.3762 2.88403 10.3013 2.87277 10.2261 2.86546C10.1506 2.85785 10.0751 2.8542 9.99934 2.8542C9.92355 2.8542 9.84806 2.85785 9.77257 2.86546C9.69739 2.87277 9.62251 2.88403 9.54824 2.89894C9.47398 2.91386 9.40062 2.93243 9.32848 2.95465C9.25604 2.97687 9.18481 3.00274 9.11511 3.03196C9.0451 3.06118 8.97692 3.09375 8.91026 3.12997C8.8436 3.16589 8.77907 3.20515 8.71637 3.24777C8.65366 3.29008 8.59309 3.33543 8.53495 3.38413C8.47682 3.43253 8.42111 3.48366 8.36815 3.53785C8.31488 3.59172 8.26466 3.64834 8.21718 3.70708C8.16969 3.76613 8.12525 3.82731 8.08386 3.89063C8.04246 3.95424 8.00411 4.01938 7.96911 4.08665C7.93441 4.15392 7.90275 4.22271 7.87475 4.29302C7.84644 4.36333 7.82209 4.43486 7.80109 4.50761C7.78008 4.58036 7.76273 4.65402 7.74904 4.72829C7.73534 4.80286 7.72529 4.87774 7.7189 4.95323C7.71281 5.02871 7.71038 5.10451 7.7116 5.17999C7.71281 5.25578 7.71768 5.33127 7.72651 5.40645C7.73534 5.48164 7.74782 5.55621 7.76395 5.63017C7.78008 5.70444 7.79987 5.77719 7.82331 5.84933C7.84674 5.92147 7.87353 5.99209 7.90397 6.06149C7.93441 6.13089 7.96819 6.19846 8.00533 6.26451C8.04246 6.33056 8.08264 6.39448 8.12617 6.45627C8.16969 6.51836 8.21626 6.57802 8.26557 6.63555C8.31519 6.69278 8.36724 6.74757 8.42203 6.79992C8.19283 6.87967 7.97124 6.97646 7.75725 7.09091C7.54297 7.20536 7.33934 7.33563 7.14575 7.48204C6.95186 7.62815 6.77105 7.78856 6.60242 7.96327C6.4338 8.13799 6.28008 8.32457 6.14068 8.52334C6.09958 8.44998 6.06093 8.37541 6.0241 8.29961C5.98727 8.22382 5.95287 8.14742 5.9203 8.06981C5.88804 7.99219 5.8579 7.91366 5.8299 7.83421C5.8022 7.75477 5.77633 7.67472 5.7532 7.59405C5.72976 7.51309 5.70876 7.43182 5.69019 7.34964C5.67132 7.26776 5.65518 7.18527 5.64118 7.10217C5.62718 7.01938 5.61561 6.93598 5.60648 6.85258C5.59705 6.76887 5.59035 6.68517 5.58579 6.60116C5.58152 6.51715 5.57939 6.43314 5.5797 6.34882C5.58 6.26481 5.58274 6.1808 5.58792 6.09679C5.59309 6.01278 5.6007 5.92908 5.61074 5.84568C5.62048 5.76197 5.63296 5.67888 5.64758 5.59608C5.66219 5.51329 5.67923 5.4308 5.69871 5.34923C5.71789 5.26735 5.7398 5.18608 5.76385 5.10542C5.78759 5.02476 5.81407 4.94501 5.84268 4.86587C5.8713 4.78673 5.90204 4.7085 5.93491 4.63119C5.96809 4.55388 6.00309 4.47748 6.04053 4.40199C6.07797 4.32681 6.11754 4.25254 6.15924 4.17948C6.20094 4.10643 6.24447 4.0346 6.29013 3.96398C6.33579 3.89336 6.38357 3.82397 6.43319 3.75609C6.48311 3.68821 6.53455 3.62185 6.58812 3.55702C6.64139 3.49219 6.69678 3.42857 6.7537 3.36709C6.81093 3.3053 6.86967 3.24503 6.93025 3.18659C6.99082 3.12815 7.05291 3.07153 7.11653 3.01674C7.18045 2.96195 7.24559 2.90869 7.31255 2.85755C7.37921 2.80641 7.44739 2.75741 7.51679 2.70992C7.5865 2.66274 7.65742 2.61769 7.72956 2.57447C7.80169 2.53125 7.87505 2.48985 7.94962 2.45089C8.0242 2.41193 8.09969 2.3751 8.17609 2.3404C8.25279 2.3057 8.33041 2.27313 8.40894 2.24269C8.48716 2.21256 8.56661 2.18456 8.64666 2.15869C8.72671 2.13281 8.80738 2.10938 8.88895 2.08837C8.97022 2.06707 9.0521 2.04819 9.13459 2.03176C9.21708 2.01532 9.30017 2.00132 9.38327 1.98945C9.46667 1.97788 9.55007 1.96845 9.63408 1.96144C9.71779 1.95444 9.8018 1.94988 9.88581 1.94744C9.96982 1.94531 10.0541 1.94562 10.1381 1.94805C10.2221 1.95079 10.3062 1.95566 10.3899 1.96327C10.4736 1.97058 10.5573 1.98032 10.6404 1.99249C10.7235 2.00467 10.8066 2.01928 10.8887 2.03602C10.9712 2.05306 11.0531 2.07224 11.1344 2.09385C11.2157 2.11516 11.2963 2.1392 11.3764 2.16538C11.4561 2.19156 11.5353 2.21987 11.6138 2.25061C11.692 2.28105 11.7693 2.31392 11.8457 2.34923C11.9221 2.38423 11.9976 2.42137 12.0719 2.46094C12.1462 2.5002 12.2195 2.5416 12.2913 2.58543C12.3632 2.62896 12.4338 2.67431 12.5032 2.7221C12.5726 2.76958 12.6405 2.8192 12.7071 2.87064C12.7735 2.92208 12.8386 2.97535 12.9022 3.03074C12.9656 3.08584 13.0273 3.14276 13.0876 3.2015C13.1479 3.26025 13.2063 3.32052 13.2632 3.38261C13.3199 3.4447 13.3749 3.50832 13.4282 3.57346C13.4812 3.6386 13.5326 3.70526 13.5819 3.77344C13.6312 3.84162 13.6787 3.91102 13.7241 3.98164C13.7694 4.05256 13.8127 4.1247 13.854 4.19805C13.8951 4.2711 13.9344 4.34568 13.9715 4.42116C14.0084 4.49665 14.0434 4.57305 14.0759 4.65067C14.1085 4.72829 14.139 4.80651 14.1673 4.88596C14.1956 4.9651 14.2214 5.04515 14.2449 5.12581C14.2686 5.20647 14.2899 5.28774 14.3088 5.36962C14.328 5.45181 14.3444 5.53399 14.3587 5.61709C14.373 5.69988 14.3849 5.78328 14.3946 5.86668C14.4041 5.95039 14.4111 6.03409 14.4159 6.1181C14.4208 6.20211 14.4229 6.28612 14.4229 6.37013Z"
            stroke-width="0.2" />
        <path fill-rule="evenodd" clip-rule="evenodd"
            d="M16.7116 13.2344H3.28805C3.21317 13.2344 3.13829 13.2383 3.06402 13.2456C2.98945 13.2529 2.91548 13.2642 2.84182 13.2788C2.76847 13.2934 2.69572 13.3117 2.62419 13.3336C2.55235 13.3552 2.48204 13.3805 2.41295 13.4094C2.34355 13.438 2.27597 13.47 2.20992 13.5053C2.14387 13.5406 2.07965 13.5792 2.01755 13.6209C1.95515 13.6626 1.89519 13.7071 1.83736 13.7546C1.77922 13.802 1.72382 13.8523 1.67086 13.9052C1.6179 13.9585 1.56767 14.0139 1.52019 14.0717C1.47271 14.1296 1.42796 14.1898 1.38657 14.2519C1.34487 14.3143 1.30621 14.3782 1.2709 14.4443C1.23559 14.5103 1.20363 14.5782 1.17502 14.6473C1.1461 14.7164 1.12084 14.787 1.09923 14.8586C1.07731 14.9304 1.05905 15.0028 1.04444 15.0762C1.02983 15.1499 1.01857 15.2238 1.01126 15.2984C1.00365 15.373 1 15.4475 1 15.5224V16.7427C1 16.8179 1.00365 16.8925 1.01126 16.967C1.01857 17.0416 1.02983 17.1156 1.04444 17.1889C1.05905 17.2626 1.07731 17.335 1.09923 17.4069C1.12084 17.4784 1.1461 17.5487 1.17502 17.6181C1.20363 17.6872 1.23559 17.7548 1.2709 17.8208C1.30621 17.8869 1.34487 17.9511 1.38657 18.0135C1.42796 18.0756 1.47271 18.1359 1.52019 18.1937C1.56767 18.2515 1.6179 18.3069 1.67086 18.3599C1.72382 18.4128 1.77922 18.4631 1.83736 18.5109C1.89519 18.5583 1.95515 18.6028 2.01755 18.6445C2.07965 18.6862 2.14387 18.7245 2.20992 18.7598C2.27597 18.7951 2.34355 18.8274 2.41295 18.856C2.48204 18.8846 2.55235 18.9099 2.62419 18.9318C2.69572 18.9537 2.76847 18.972 2.84182 18.9866C2.91548 19.0012 2.98945 19.0122 3.06402 19.0198C3.13829 19.0271 3.21317 19.0307 3.28805 19.031H16.7116C16.7868 19.0307 16.8614 19.0271 16.936 19.0198C17.0106 19.0122 17.0845 19.0012 17.1579 18.9866C17.2315 18.972 17.304 18.9537 17.3758 18.9318C17.4473 18.9099 17.5177 18.8846 17.5871 18.856C17.6561 18.8274 17.7237 18.7951 17.7898 18.7598C17.8558 18.7245 17.92 18.6862 17.9824 18.6445C18.0445 18.6028 18.1048 18.5583 18.1626 18.5109C18.2205 18.4631 18.2759 18.4128 18.3288 18.3599C18.3818 18.3069 18.432 18.2515 18.4798 18.1937C18.5273 18.1359 18.5717 18.0756 18.6134 18.0135C18.6551 17.9511 18.6935 17.8869 18.7288 17.8208C18.7641 17.7548 18.7964 17.6872 18.825 17.6181C18.8536 17.5487 18.8789 17.4784 18.9008 17.4069C18.9227 17.335 18.9409 17.2626 18.9556 17.1889C18.9702 17.1156 18.9811 17.0416 18.9887 16.967C18.996 16.8925 18.9997 16.8179 19 16.7427V15.5224C18.9997 15.4475 18.996 15.373 18.9887 15.2984C18.9811 15.2238 18.9702 15.1499 18.9556 15.0762C18.9409 15.0028 18.9227 14.9304 18.9008 14.8586C18.8789 14.787 18.8536 14.7164 18.825 14.6473C18.7964 14.5782 18.7641 14.5103 18.7288 14.4443C18.6935 14.3782 18.6551 14.3143 18.6134 14.2519C18.5717 14.1898 18.5273 14.1296 18.4798 14.0717C18.432 14.0139 18.3818 13.9585 18.3288 13.9052C18.2759 13.8523 18.2205 13.802 18.1626 13.7546C18.1048 13.7071 18.0445 13.6626 17.9824 13.6209C17.92 13.5792 17.8558 13.5409 17.7898 13.5053C17.7237 13.47 17.6561 13.438 17.5871 13.4094C17.5177 13.3805 17.4473 13.3552 17.3758 13.3336C17.304 13.3117 17.2315 13.2934 17.1579 13.2788C17.0845 13.2642 17.0106 13.2529 16.936 13.2456C16.8614 13.2383 16.7868 13.2344 16.7116 13.2344ZM1.91528 16.7427V15.5224C1.91528 15.4777 1.91741 15.4326 1.92198 15.3879C1.92654 15.3431 1.93293 15.299 1.94176 15.2549C1.95059 15.2107 1.96155 15.1672 1.97463 15.1243C1.98772 15.0811 2.00294 15.0391 2.02029 14.9974C2.03734 14.956 2.05651 14.9155 2.07782 14.8756C2.09913 14.836 2.12226 14.7977 2.14722 14.7602C2.17218 14.7228 2.19897 14.6869 2.22727 14.6522C2.25588 14.6172 2.28602 14.584 2.31798 14.5524C2.34963 14.5204 2.38281 14.4903 2.41751 14.462C2.45252 14.4333 2.48843 14.4066 2.52587 14.3816C2.56301 14.3566 2.60166 14.3335 2.64123 14.3122C2.6808 14.2912 2.72159 14.2717 2.76299 14.2547C2.80438 14.2373 2.84669 14.2221 2.88961 14.209C2.93283 14.1962 2.97636 14.1853 3.0205 14.1764C3.06433 14.1676 3.10877 14.1609 3.15351 14.1564C3.19825 14.1521 3.243 14.1497 3.28805 14.1497H13.2033V18.1158H3.28805C3.243 18.1158 3.19825 18.1133 3.15351 18.1091C3.10877 18.1045 3.06433 18.0978 3.0205 18.089C2.97636 18.0802 2.93283 18.0692 2.88961 18.0561C2.84669 18.043 2.80438 18.0278 2.76299 18.0108C2.72159 17.9934 2.6808 17.9742 2.64123 17.9529C2.60166 17.9319 2.56301 17.9088 2.52587 17.8838C2.48843 17.8589 2.45252 17.8321 2.41751 17.8035C2.38281 17.7749 2.34963 17.7447 2.31798 17.7131C2.28602 17.6814 2.25588 17.6479 2.22727 17.6132C2.19897 17.5785 2.17218 17.5426 2.14722 17.5052C2.12226 17.4677 2.09913 17.4294 2.07782 17.3895C2.05651 17.3499 2.03734 17.3095 2.02029 17.2681C2.00294 17.2264 1.98772 17.1841 1.97463 17.1411C1.96155 17.0982 1.95059 17.0547 1.94176 17.0106C1.93293 16.9664 1.92654 16.922 1.92198 16.8772C1.91741 16.8325 1.91528 16.7877 1.91528 16.7427ZM18.0847 16.7427C18.0847 16.7877 18.0823 16.8325 18.078 16.8772C18.0735 16.922 18.0668 16.9664 18.0579 17.0106C18.0491 17.0547 18.0381 17.0982 18.0251 17.1411C18.012 17.1841 17.9968 17.2264 17.9797 17.2681C17.9624 17.3095 17.9432 17.3499 17.9219 17.3895C17.9009 17.4294 17.8777 17.4677 17.8528 17.5052C17.8278 17.5426 17.801 17.5785 17.7724 17.6132C17.7438 17.6479 17.7137 17.6814 17.682 17.7131C17.6504 17.7447 17.6169 17.7749 17.5822 17.8035C17.5475 17.8321 17.5116 17.8589 17.4741 17.8838C17.4367 17.9088 17.3983 17.9319 17.3585 17.9529C17.3189 17.9742 17.2784 17.9934 17.237 18.0108C17.1953 18.0278 17.153 18.043 17.1101 18.0561C17.0672 18.0692 17.0236 18.0802 16.9795 18.089C16.9354 18.0978 16.8909 18.1045 16.8462 18.1091C16.8014 18.1133 16.7567 18.1158 16.7116 18.1158H14.1186V14.1497H16.7116C16.7567 14.1497 16.8014 14.1521 16.8462 14.1564C16.8909 14.1609 16.9354 14.1676 16.9795 14.1764C17.0236 14.1853 17.0672 14.1962 17.1101 14.209C17.153 14.2221 17.1953 14.2373 17.237 14.2547C17.2784 14.2717 17.3189 14.2912 17.3585 14.3122C17.3983 14.3335 17.4367 14.3566 17.4741 14.3816C17.5116 14.4066 17.5475 14.4333 17.5822 14.462C17.6169 14.4903 17.6504 14.5204 17.682 14.5524C17.7137 14.584 17.7438 14.6172 17.7724 14.6522C17.801 14.6869 17.8278 14.7228 17.8528 14.7602C17.8777 14.7977 17.9009 14.836 17.9219 14.8756C17.9432 14.9155 17.9624 14.956 17.9797 14.9974C17.9968 15.0391 18.012 15.0811 18.0251 15.1243C18.0381 15.1672 18.0491 15.2107 18.0579 15.2549C18.0668 15.299 18.0735 15.3431 18.078 15.3879C18.0823 15.4326 18.0847 15.4777 18.0847 15.5224V16.7427Z"
            stroke-width="0.2" />
        <path fill-rule="evenodd" clip-rule="evenodd"
            d="M11.6786 16.1297C11.6786 16.1598 11.6759 16.1893 11.6701 16.2189C11.664 16.2484 11.6555 16.277 11.6439 16.3047C11.6324 16.3324 11.6184 16.3589 11.6016 16.3838C11.5849 16.4088 11.566 16.4319 11.5447 16.4532C11.5234 16.4745 11.5003 16.4934 11.4753 16.5101C11.4504 16.5269 11.4242 16.5409 11.3962 16.5525C11.3685 16.564 11.3399 16.5725 11.3103 16.5783C11.2808 16.5844 11.2513 16.5872 11.2212 16.5872C11.191 16.5872 11.1612 16.5844 11.132 16.5783C11.1025 16.5725 11.0738 16.564 11.0461 16.5525C11.0181 16.5409 10.992 16.5269 10.967 16.5101C10.942 16.4934 10.9189 16.4745 10.8976 16.4532C10.8763 16.4319 10.8574 16.4088 10.8407 16.3838C10.8239 16.3589 10.8099 16.3324 10.7984 16.3047C10.7868 16.277 10.7783 16.2484 10.7722 16.2189C10.7664 16.1893 10.7637 16.1598 10.7637 16.1297C10.7637 16.0995 10.7664 16.0697 10.7722 16.0405C10.7783 16.011 10.7868 15.9823 10.7984 15.9546C10.8099 15.9266 10.8239 15.9005 10.8407 15.8755C10.8574 15.8505 10.8763 15.8274 10.8976 15.8061C10.9189 15.7848 10.942 15.7659 10.967 15.7492C10.992 15.7324 11.0181 15.7184 11.0461 15.7069C11.0738 15.6953 11.1025 15.6868 11.132 15.6807C11.1612 15.6749 11.191 15.6719 11.2212 15.6719C11.2513 15.6719 11.2808 15.6749 11.3103 15.6807C11.3399 15.6868 11.3685 15.6953 11.3962 15.7069C11.4242 15.7184 11.4504 15.7324 11.4753 15.7492C11.5003 15.7659 11.5234 15.7848 11.5447 15.8061C11.566 15.8274 11.5849 15.8505 11.6016 15.8755C11.6184 15.9005 11.6324 15.9266 11.6439 15.9546C11.6555 15.9823 11.664 16.011 11.6701 16.0405C11.6759 16.0697 11.6786 16.0995 11.6786 16.1297Z"
            stroke-width="0.2" />
        <path fill-rule="evenodd" clip-rule="evenodd"
            d="M9.23755 16.1297C9.23755 16.1598 9.2345 16.1893 9.22872 16.2189C9.22294 16.2484 9.21411 16.277 9.20285 16.3047C9.19128 16.3324 9.17697 16.3589 9.16054 16.3838C9.1438 16.4088 9.12462 16.4319 9.10362 16.4532C9.08231 16.4745 9.05918 16.4934 9.03422 16.5101C9.00926 16.5269 8.98278 16.5409 8.95508 16.5525C8.92738 16.564 8.89877 16.5725 8.86924 16.5783C8.83972 16.5844 8.80989 16.5872 8.78006 16.5872C8.74992 16.5872 8.72009 16.5844 8.69057 16.5783C8.66104 16.5725 8.63243 16.564 8.60473 16.5525C8.57703 16.5409 8.55055 16.5269 8.52559 16.5101C8.50063 16.4934 8.4775 16.4745 8.45619 16.4532C8.43519 16.4319 8.41602 16.4088 8.39927 16.3838C8.38284 16.3589 8.36853 16.3324 8.35727 16.3047C8.3457 16.277 8.33688 16.2484 8.33109 16.2189C8.32531 16.1893 8.32227 16.1598 8.32227 16.1297C8.32227 16.0995 8.32531 16.0697 8.33109 16.0405C8.33688 16.011 8.3457 15.9823 8.35727 15.9546C8.36853 15.9266 8.38284 15.9005 8.39927 15.8755C8.41602 15.8505 8.43519 15.8274 8.45619 15.8061C8.4775 15.7848 8.50063 15.7659 8.52559 15.7492C8.55055 15.7324 8.57703 15.7184 8.60473 15.7069C8.63243 15.6953 8.66104 15.6868 8.69057 15.6807C8.72009 15.6749 8.74992 15.6719 8.78006 15.6719C8.80989 15.6719 8.83972 15.6749 8.86924 15.6807C8.89877 15.6868 8.92738 15.6953 8.95508 15.7069C8.98278 15.7184 9.00926 15.7324 9.03422 15.7492C9.05918 15.7659 9.08231 15.7848 9.10362 15.8061C9.12462 15.8274 9.1438 15.8505 9.16054 15.8755C9.17697 15.9005 9.19128 15.9266 9.20285 15.9546C9.21411 15.9823 9.22294 16.011 9.22872 16.0405C9.2345 16.0697 9.23755 16.0995 9.23755 16.1297Z"
            stroke-width="0.2" />
        <path fill-rule="evenodd" clip-rule="evenodd"
            d="M6.79614 16.1297C6.79614 16.1598 6.7931 16.1893 6.78731 16.2189C6.78122 16.2484 6.7727 16.277 6.76114 16.3047C6.74957 16.3324 6.73557 16.3589 6.71883 16.3838C6.70209 16.4088 6.68321 16.4319 6.66191 16.4532C6.6406 16.4745 6.61747 16.4934 6.59251 16.5101C6.56755 16.5269 6.54137 16.5409 6.51337 16.5525C6.48567 16.564 6.45706 16.5725 6.42753 16.5783C6.39831 16.5844 6.36848 16.5872 6.33835 16.5872C6.30821 16.5872 6.27869 16.5844 6.24916 16.5783C6.21964 16.5725 6.19103 16.564 6.16333 16.5525C6.13563 16.5409 6.10915 16.5269 6.08419 16.5101C6.05923 16.4934 6.03609 16.4745 6.01479 16.4532C5.99348 16.4319 5.97461 16.4088 5.95787 16.3838C5.94113 16.3589 5.92713 16.3324 5.91556 16.3047C5.90399 16.277 5.89547 16.2484 5.88969 16.2189C5.8836 16.1893 5.88086 16.1598 5.88086 16.1297C5.88086 16.0995 5.8836 16.0697 5.88969 16.0405C5.89547 16.011 5.90399 15.9823 5.91556 15.9546C5.92713 15.9266 5.94113 15.9005 5.95787 15.8755C5.97461 15.8505 5.99348 15.8274 6.01479 15.8061C6.03609 15.7848 6.05923 15.7659 6.08419 15.7492C6.10915 15.7324 6.13563 15.7184 6.16333 15.7069C6.19103 15.6953 6.21964 15.6868 6.24916 15.6807C6.27869 15.6749 6.30821 15.6719 6.33835 15.6719C6.36848 15.6719 6.39831 15.6749 6.42753 15.6807C6.45706 15.6868 6.48567 15.6953 6.51337 15.7069C6.54137 15.7184 6.56755 15.7324 6.59251 15.7492C6.61747 15.7659 6.6406 15.7848 6.66191 15.8061C6.68321 15.8274 6.70209 15.8505 6.71883 15.8755C6.73557 15.9005 6.74957 15.9266 6.76114 15.9546C6.7727 15.9823 6.78122 16.011 6.78731 16.0405C6.7931 16.0697 6.79614 16.0995 6.79614 16.1297Z"
            stroke-width="0.2" />
        <path fill-rule="evenodd" clip-rule="evenodd"
            d="M4.35669 16.1297C4.35669 16.1598 4.35364 16.1893 4.34786 16.2189C4.34208 16.2484 4.33325 16.277 4.32199 16.3047C4.31042 16.3324 4.29642 16.3589 4.27968 16.3838C4.26294 16.4088 4.24406 16.4319 4.22276 16.4532C4.20145 16.4745 4.17832 16.4934 4.15336 16.5101C4.1284 16.5269 4.10192 16.5409 4.07422 16.5525C4.04652 16.564 4.01791 16.5725 3.98838 16.5783C3.95886 16.5844 3.92903 16.5872 3.8992 16.5872C3.86906 16.5872 3.83923 16.5844 3.80971 16.5783C3.78049 16.5725 3.75188 16.564 3.72387 16.5525C3.69617 16.5409 3.66969 16.5269 3.64473 16.5101C3.61977 16.4934 3.59664 16.4745 3.57564 16.4532C3.55433 16.4319 3.53516 16.4088 3.51872 16.3838C3.50198 16.3589 3.48767 16.3324 3.47641 16.3047C3.46484 16.277 3.45602 16.2484 3.45023 16.2189C3.44445 16.1893 3.44141 16.1598 3.44141 16.1297C3.44141 16.0995 3.44445 16.0697 3.45023 16.0405C3.45602 16.011 3.46484 15.9823 3.47641 15.9546C3.48767 15.9266 3.50198 15.9005 3.51872 15.8755C3.53516 15.8505 3.55433 15.8274 3.57564 15.8061C3.59664 15.7848 3.61977 15.7659 3.64473 15.7492C3.66969 15.7324 3.69617 15.7184 3.72387 15.7069C3.75188 15.6953 3.78049 15.6868 3.80971 15.6807C3.83923 15.6749 3.86906 15.6719 3.8992 15.6719C3.92903 15.6719 3.95886 15.6749 3.98838 15.6807C4.01791 15.6868 4.04652 15.6953 4.07422 15.7069C4.10192 15.7184 4.1284 15.7324 4.15336 15.7492C4.17832 15.7659 4.20145 15.7848 4.22276 15.8061C4.24406 15.8274 4.26294 15.8505 4.27968 15.8755C4.29642 15.9005 4.31042 15.9266 4.32199 15.9546C4.33325 15.9823 4.34208 16.011 4.34786 16.0405C4.35364 16.0697 4.35669 16.0995 4.35669 16.1297Z"
            stroke-width="0.2" />
    </symbol>
    <symbol id="setting-icon">
        <path fill-rule="evenodd" clip-rule="evenodd"
            d="M8.49997 17.8792H6.69981C6.663 17.8792 6.62714 17.8724 6.59289 17.8593C6.55831 17.8462 6.52726 17.8273 6.49972 17.8026C6.47219 17.778 6.4501 17.7492 6.43314 17.7162C6.41617 17.6835 6.40592 17.6487 6.40176 17.6122L6.24393 16.1923C5.83767 16.0806 5.45158 15.9205 5.08566 15.7121L3.96996 16.6043C3.94115 16.6274 3.90913 16.6447 3.87392 16.6559C3.83902 16.6671 3.80285 16.6716 3.76603 16.6697C3.72921 16.6677 3.694 16.6591 3.66038 16.644C3.62677 16.629 3.59667 16.6085 3.57074 16.5826L2.29658 15.3097C2.27032 15.2834 2.24952 15.2537 2.23447 15.2197C2.21942 15.1861 2.21078 15.1506 2.20886 15.1138C2.20694 15.0766 2.21142 15.0405 2.22294 15.0052C2.23415 14.97 2.25144 14.938 2.27449 14.9092L3.16768 13.7922C2.95927 13.4263 2.7992 13.0402 2.68779 12.6343L1.267 12.4774C1.23018 12.4736 1.19561 12.463 1.16263 12.446C1.12966 12.4291 1.10116 12.407 1.07651 12.3794C1.05186 12.3519 1.03297 12.3208 1.01985 12.2866C1.0064 12.252 1 12.2162 1 12.1793V10.3795C1 10.3424 1.0064 10.3068 1.01985 10.2723C1.03297 10.2377 1.05186 10.2069 1.07651 10.1794C1.10116 10.1519 1.12966 10.1295 1.16263 10.1128C1.19529 10.0959 1.23018 10.0853 1.267 10.0811L2.68683 9.92362C2.79856 9.51736 2.95831 9.13127 3.16672 8.76534L2.27449 7.64965C2.25144 7.62083 2.23447 7.58882 2.22326 7.55361C2.21206 7.51871 2.20726 7.48253 2.20918 7.44572C2.21142 7.4089 2.21974 7.37369 2.23479 7.34007C2.24984 7.30646 2.27032 7.27636 2.29658 7.25043L3.56946 5.97754C3.59539 5.95129 3.62549 5.9308 3.6591 5.91576C3.69272 5.90071 3.72793 5.89239 3.76475 5.89047C3.80189 5.88822 3.83774 5.89303 3.87296 5.90423C3.90785 5.91544 3.93987 5.9324 3.96868 5.95545L5.08566 6.84865C5.45158 6.64024 5.83767 6.48017 6.24393 6.36876L6.40176 4.94893C6.4056 4.91211 6.41585 4.8769 6.43282 4.84392C6.44946 4.81095 6.47155 4.78181 6.49908 4.75716C6.52662 4.73219 6.55767 4.71298 6.59225 4.69986C6.62714 4.68641 6.663 4.67969 6.69981 4.67969H8.49997C8.53679 4.67969 8.57265 4.68641 8.60722 4.69954C8.64148 4.71266 8.67253 4.73155 8.70006 4.7562C8.72759 4.78085 8.74968 4.80967 8.76665 4.84232C8.78362 4.87529 8.79418 4.91019 8.79803 4.94669L8.95586 6.36652C9.36212 6.47825 9.74821 6.63832 10.1141 6.84641L11.2298 5.95449C11.2586 5.93144 11.2907 5.91416 11.3259 5.90295C11.3611 5.89175 11.3969 5.88694 11.4338 5.88919C11.4706 5.89111 11.5058 5.89975 11.5394 5.9148C11.5733 5.92984 11.6031 5.95033 11.6294 5.97626L12.9023 7.24915C12.9282 7.27508 12.9487 7.30517 12.9637 7.33879C12.9788 7.3724 12.9874 7.40762 12.9893 7.44444C12.9913 7.48125 12.9868 7.51743 12.9756 7.55264C12.9644 7.58754 12.9471 7.61955 12.924 7.64837L12.0308 8.76534C12.2392 9.13127 12.3993 9.51736 12.511 9.92362L13.9309 10.0811C13.9677 10.085 14.0026 10.0955 14.0359 10.1122C14.0688 10.1288 14.098 10.1512 14.1226 10.1788C14.1476 10.2063 14.1665 10.2374 14.1799 10.2719C14.1934 10.3065 14.1998 10.3424 14.2001 10.3795V12.1793C14.2001 12.2162 14.1934 12.252 14.1803 12.2866C14.1671 12.3208 14.1482 12.3519 14.1236 12.3794C14.0989 12.407 14.0701 12.4291 14.0372 12.446C14.0045 12.463 13.9696 12.4736 13.9331 12.4774L12.513 12.6352C12.4015 13.0415 12.2415 13.4276 12.0331 13.7935L12.9253 14.9092C12.9484 14.938 12.9653 14.97 12.9768 15.0049C12.988 15.0401 12.9925 15.0763 12.9906 15.1131C12.9884 15.1499 12.98 15.1852 12.965 15.2188C12.95 15.2524 12.9295 15.2825 12.9032 15.3084L11.6303 16.5813C11.6044 16.6072 11.5743 16.6277 11.5407 16.6428C11.5071 16.6578 11.4719 16.6665 11.435 16.6684C11.3982 16.6706 11.362 16.6658 11.3272 16.6546C11.2919 16.6434 11.2599 16.6261 11.2311 16.6031L10.1141 15.7102C9.74821 15.9186 9.36212 16.0784 8.95586 16.1901L8.79803 17.6099C8.79418 17.6467 8.78394 17.6816 8.76729 17.7149C8.75033 17.7479 8.72824 17.777 8.7007 17.8017C8.67317 17.8267 8.64212 17.8455 8.60754 17.859C8.57297 17.8724 8.53711 17.8788 8.49997 17.8792ZM6.97001 17.2789H8.23298L8.3828 15.9192C8.38632 15.8882 8.39433 15.8587 8.40713 15.8302C8.41962 15.8018 8.43627 15.7761 8.45707 15.7528C8.47756 15.7297 8.50125 15.7102 8.52815 15.6942C8.55472 15.6785 8.58321 15.667 8.61362 15.6599C9.1012 15.5476 9.55676 15.3587 9.98031 15.0926C10.0069 15.0763 10.0351 15.0641 10.0651 15.0565C10.0952 15.0488 10.126 15.0459 10.157 15.0475C10.1881 15.0494 10.2179 15.0558 10.247 15.067C10.2761 15.0782 10.3027 15.0936 10.327 15.1128L11.3963 15.9685L12.2895 15.0753L11.4341 14.0061C11.4145 13.9817 11.3992 13.9549 11.388 13.926C11.3771 13.8969 11.3704 13.8668 11.3688 13.8358C11.3668 13.8047 11.3697 13.7743 11.3774 13.7442C11.3854 13.7141 11.3973 13.6859 11.4139 13.6594C11.6793 13.2355 11.8679 12.7799 11.9799 12.2927C11.987 12.2626 11.9985 12.2341 12.0142 12.2072C12.0302 12.1806 12.0497 12.1569 12.0728 12.1361C12.0961 12.1153 12.1217 12.0987 12.1502 12.0862C12.1787 12.0734 12.2082 12.0654 12.2392 12.0622L13.5992 11.912V10.6494L12.2392 10.4996C12.2082 10.496 12.1787 10.488 12.1502 10.4752C12.1217 10.4627 12.0961 10.4461 12.0728 10.4253C12.0497 10.4048 12.0302 10.3811 12.0142 10.3542C11.9985 10.3276 11.987 10.2991 11.9799 10.2687C11.8676 9.78148 11.6783 9.32591 11.4126 8.90204C11.3963 8.87579 11.3841 8.8473 11.3765 8.81721C11.3688 8.78711 11.3656 8.7567 11.3675 8.72565C11.3694 8.69459 11.3758 8.6645 11.387 8.63537C11.3979 8.60655 11.4133 8.57998 11.4328 8.55565L12.2882 7.48605L11.3953 6.59318L10.3257 7.4486C10.3014 7.46813 10.2748 7.48317 10.2457 7.49438C10.2169 7.50558 10.1868 7.51199 10.1558 7.51391C10.1247 7.51551 10.094 7.51263 10.0639 7.50494C10.0338 7.49726 10.0056 7.48509 9.97935 7.46877C9.5558 7.20241 9.10056 7.01256 8.6133 6.89955C8.58321 6.89251 8.5544 6.88131 8.52783 6.8653C8.50093 6.84961 8.47724 6.83008 8.45675 6.80671C8.43595 6.78366 8.4193 6.75773 8.40681 6.72924C8.39401 6.70107 8.386 6.67129 8.3828 6.64056L8.23137 5.27963H6.97001L6.81987 6.6396C6.81667 6.67033 6.80834 6.70011 6.79586 6.7286C6.78305 6.75677 6.7664 6.7827 6.74591 6.80575C6.7251 6.82912 6.70141 6.84865 6.67484 6.86434C6.64795 6.88035 6.61946 6.89187 6.58936 6.89859C6.10179 7.01128 5.64623 7.20017 5.22236 7.46589C5.19611 7.48253 5.16793 7.4947 5.13784 7.50238C5.10775 7.51007 5.07701 7.51295 5.04596 7.51103C5.0149 7.50943 4.98481 7.50302 4.956 7.49182C4.92687 7.48061 4.90029 7.46525 4.87596 7.44604L3.80637 6.5903L2.91061 7.48349L3.76635 8.55277C3.78556 8.5771 3.80093 8.60367 3.81213 8.6328C3.82333 8.66194 3.82974 8.69171 3.83134 8.72276C3.83326 8.75382 3.83038 8.78455 3.82269 8.81465C3.81501 8.84474 3.80285 8.87291 3.7862 8.89948C3.5208 9.32303 3.33192 9.77859 3.21987 10.2662C3.21282 10.2963 3.20162 10.3248 3.18561 10.3516C3.16992 10.3782 3.1504 10.4019 3.12703 10.4227C3.10398 10.4432 3.07804 10.4599 3.04955 10.4727C3.02138 10.4851 2.99161 10.4932 2.96087 10.4967L1.59995 10.6494V11.9123L2.95991 12.0625C2.99064 12.0657 3.02042 12.0737 3.04859 12.0865C3.07708 12.099 3.10301 12.1156 3.12607 12.1364C3.14944 12.1569 3.16896 12.1806 3.18465 12.2075C3.20066 12.2341 3.21218 12.2629 3.21891 12.293C3.33128 12.7806 3.52048 13.2361 3.7862 13.6597C3.80285 13.6863 3.81501 13.7144 3.82269 13.7445C3.83038 13.7746 3.83326 13.805 3.83134 13.8361C3.82974 13.8671 3.82333 13.8972 3.81213 13.9264C3.80093 13.9552 3.78556 13.9821 3.76635 14.0061L2.91061 15.0753L3.80381 15.9685L4.87308 15.1128C4.89741 15.0936 4.9243 15.0782 4.95312 15.067C4.98225 15.0558 5.01234 15.0494 5.0434 15.0475C5.07445 15.0459 5.10486 15.0488 5.13496 15.0565C5.16505 15.0641 5.19322 15.0763 5.2198 15.0926C5.64366 15.3584 6.09923 15.5469 6.58648 15.6593C6.6169 15.666 6.64539 15.6775 6.67196 15.6935C6.69885 15.7092 6.72254 15.7288 6.74303 15.7521C6.76384 15.7752 6.78049 15.8011 6.79297 15.8293C6.80578 15.8578 6.81378 15.8875 6.81731 15.9183L6.97001 17.2789Z"
            stroke-width="0.3"></path>
        <path fill-rule="evenodd" clip-rule="evenodd"
            d="M7.60013 13.3793C7.5313 13.3793 7.46247 13.3761 7.39428 13.3694C7.32577 13.3623 7.2579 13.3524 7.19035 13.339C7.1228 13.3255 7.05621 13.3089 6.99026 13.289C6.92463 13.2689 6.85996 13.2458 6.79626 13.2196C6.73287 13.1933 6.67076 13.1639 6.60993 13.1315C6.54943 13.0989 6.49052 13.0637 6.43321 13.0256C6.37623 12.9871 6.32084 12.9465 6.2677 12.9026C6.21456 12.8591 6.16365 12.813 6.11499 12.7643C6.06633 12.7157 6.02023 12.6648 5.97669 12.6116C5.93315 12.5585 5.89217 12.5034 5.85408 12.4461C5.81566 12.3888 5.78044 12.3299 5.74811 12.2694C5.71546 12.2086 5.68632 12.1464 5.65975 12.0831C5.6335 12.0197 5.61045 11.955 5.59028 11.8891C5.57043 11.8231 5.55378 11.7565 5.54034 11.6893C5.52689 11.6217 5.51697 11.5539 5.51024 11.4854C5.50352 11.4168 5.5 11.3483 5.5 11.2795C5.5 11.2107 5.50352 11.1422 5.51024 11.0736C5.51697 11.0051 5.52689 10.9373 5.54034 10.8697C5.55378 10.8025 5.57043 10.7356 5.59028 10.67C5.61045 10.604 5.6335 10.5393 5.65975 10.4759C5.68632 10.4122 5.71546 10.3501 5.74811 10.2896C5.78044 10.2288 5.81566 10.1699 5.85408 10.1129C5.89217 10.0556 5.93315 10.0005 5.97669 9.94739C6.02023 9.89425 6.06633 9.84334 6.11499 9.79468C6.16365 9.74602 6.21456 9.69992 6.2677 9.65638C6.32084 9.61252 6.37623 9.57154 6.43321 9.53344C6.49052 9.49535 6.54943 9.45981 6.60993 9.42748C6.67076 9.39514 6.73287 9.36569 6.79626 9.33944C6.85996 9.31319 6.92463 9.28982 6.99026 9.26997C7.05621 9.25012 7.1228 9.23347 7.19035 9.22003C7.2579 9.20658 7.32577 9.19633 7.39428 9.18961C7.46247 9.18289 7.5313 9.17969 7.60013 9.17969C7.66864 9.17969 7.73747 9.18289 7.80598 9.18961C7.87418 9.19633 7.94237 9.20658 8.0096 9.22003C8.07715 9.23347 8.14374 9.25012 8.20968 9.26997C8.27531 9.28982 8.33998 9.31319 8.40369 9.33944C8.46708 9.36569 8.52919 9.39514 8.59001 9.42748C8.65052 9.45981 8.70943 9.49535 8.76673 9.53344C8.82404 9.57154 8.8791 9.61252 8.93225 9.65638C8.98539 9.69992 9.03629 9.74602 9.08495 9.79468C9.13362 9.84334 9.17972 9.89425 9.22326 9.94739C9.26711 10.0005 9.30777 10.0556 9.34619 10.1129C9.38429 10.1699 9.4195 10.2288 9.45216 10.2896C9.48449 10.3501 9.51394 10.4122 9.5402 10.4759C9.56645 10.5393 9.5895 10.604 9.60967 10.67C9.62952 10.7356 9.64616 10.8025 9.65961 10.8697C9.67306 10.9373 9.6833 11.0051 9.69002 11.0736C9.69675 11.1422 9.69995 11.2107 9.69995 11.2795C9.69995 11.3483 9.69643 11.4168 9.6897 11.4854C9.68298 11.5535 9.67273 11.6214 9.65929 11.689C9.64584 11.7565 9.6292 11.8231 9.60903 11.8887C9.58918 11.9547 9.56581 12.019 9.53956 12.0827C9.5133 12.1461 9.48385 12.2082 9.4512 12.2687C9.41886 12.3296 9.38365 12.3885 9.34523 12.4455C9.30713 12.5028 9.26615 12.5578 9.22261 12.611C9.17908 12.6641 9.13297 12.715 9.08431 12.7637C9.03565 12.8123 8.98475 12.8584 8.93161 12.902C8.87846 12.9455 8.8234 12.9865 8.76609 13.0246C8.70911 13.063 8.6502 13.0982 8.58937 13.1306C8.52887 13.1632 8.46676 13.1927 8.40337 13.2189C8.33966 13.2452 8.27499 13.2682 8.20936 13.2884C8.14341 13.3082 8.07683 13.3252 8.0096 13.3387C7.94205 13.3521 7.87418 13.3623 7.80567 13.3691C7.73747 13.3758 7.66864 13.3793 7.60013 13.3793ZM7.60013 9.77963C7.55083 9.77963 7.50185 9.78188 7.45287 9.78668C7.40421 9.79148 7.35554 9.79884 7.30752 9.80845C7.25918 9.81805 7.21148 9.8299 7.16474 9.84398C7.11768 9.85839 7.07126 9.87504 7.02612 9.8936C6.98066 9.91249 6.93616 9.93362 6.89294 9.95667C6.84972 9.97972 6.80746 10.005 6.7668 10.0322C6.72582 10.0598 6.68645 10.0889 6.64835 10.1199C6.61057 10.1513 6.57408 10.184 6.5395 10.2189C6.50461 10.2538 6.47163 10.2899 6.44058 10.328C6.4092 10.3658 6.38007 10.4052 6.35286 10.4462C6.32565 10.4871 6.30036 10.5291 6.27699 10.5723C6.25394 10.6158 6.23313 10.66 6.21424 10.7055C6.19535 10.7509 6.17902 10.797 6.16462 10.8441C6.15021 10.8912 6.13836 10.9385 6.12876 10.9869C6.11916 11.0349 6.11211 11.0836 6.10731 11.1326C6.10251 11.1812 6.09995 11.2302 6.09995 11.2795C6.09995 11.3285 6.10251 11.3775 6.10731 11.4264C6.11211 11.4754 6.11916 11.5238 6.12876 11.5721C6.13836 11.6201 6.15021 11.6678 6.16462 11.7149C6.17902 11.762 6.19535 11.8081 6.21424 11.8535C6.23313 11.899 6.25394 11.9432 6.27699 11.9864C6.30036 12.0299 6.32565 12.0719 6.35286 12.1128C6.38007 12.1535 6.4092 12.1932 6.44058 12.231C6.47163 12.2691 6.50461 12.3052 6.5395 12.3401C6.57408 12.3747 6.61057 12.4077 6.64835 12.4391C6.68645 12.4701 6.72582 12.4992 6.7668 12.5265C6.80746 12.554 6.84972 12.579 6.89294 12.6023C6.93616 12.6254 6.98066 12.6465 7.02612 12.6651C7.07126 12.684 7.11768 12.7006 7.16474 12.7147C7.21148 12.7291 7.25918 12.741 7.30752 12.7506C7.35554 12.7602 7.40421 12.7672 7.45287 12.772C7.50185 12.7771 7.55083 12.7794 7.60013 12.7794C7.64912 12.7794 7.6981 12.7771 7.74708 12.772C7.79606 12.7672 7.8444 12.7602 7.89274 12.7506C7.94076 12.741 7.98847 12.7291 8.03553 12.7147C8.08259 12.7006 8.12869 12.684 8.17415 12.6651C8.21929 12.6465 8.26379 12.6254 8.30701 12.6023C8.35055 12.579 8.39249 12.554 8.43346 12.5265C8.47412 12.4992 8.5135 12.4701 8.5516 12.4391C8.58969 12.4077 8.62587 12.3747 8.66076 12.3401C8.69534 12.3052 8.72832 12.2691 8.75969 12.231C8.79074 12.1932 8.81988 12.1535 8.84709 12.1128C8.87462 12.0719 8.89959 12.0299 8.92296 11.9864C8.94601 11.9432 8.96714 11.899 8.98571 11.8535C9.0046 11.8081 9.02125 11.762 9.03533 11.7149C9.04974 11.6678 9.06158 11.6201 9.07119 11.5721C9.08079 11.5238 9.08783 11.4754 9.09296 11.4264C9.09776 11.3775 9.1 11.3285 9.1 11.2795C9.1 11.2305 9.09744 11.1812 9.09264 11.1326C9.08783 11.0836 9.08047 11.0352 9.07087 10.9869C9.06126 10.9389 9.04942 10.8912 9.03501 10.8441C9.02061 10.7974 9.00428 10.7513 8.98539 10.7058C8.9665 10.6603 8.94569 10.6162 8.92232 10.5726C8.89927 10.5294 8.87398 10.4875 8.84677 10.4465C8.81924 10.4058 8.7901 10.3665 8.75905 10.3284C8.72767 10.2906 8.69502 10.2541 8.66012 10.2195C8.62555 10.1846 8.58905 10.1516 8.55128 10.1206C8.51318 10.0895 8.4738 10.0601 8.43282 10.0329C8.39217 10.0057 8.34991 9.98036 8.30669 9.95731C8.26347 9.93394 8.21929 9.91313 8.17383 9.89425C8.12837 9.87536 8.08227 9.85871 8.03521 9.84462C7.98815 9.83022 7.94076 9.81837 7.89242 9.80877C7.8444 9.79916 7.79574 9.7918 7.74708 9.787C7.6981 9.7822 7.64912 9.77963 7.60013 9.77963Z"
            stroke-width="0.3"></path>
        <path fill-rule="evenodd" clip-rule="evenodd"
            d="M16.8102 9.45805C16.7401 9.45805 16.6777 9.43596 16.623 9.3921L15.8098 8.74189C15.4887 8.91957 15.1497 9.04955 14.7917 9.13183C14.753 9.14047 14.7143 9.14175 14.6749 9.13503C14.6358 9.12863 14.5993 9.11454 14.5657 9.09373C14.5318 9.0726 14.5036 9.04571 14.4806 9.01337C14.4575 8.98104 14.4415 8.9455 14.4325 8.90677C14.4236 8.86803 14.4223 8.82897 14.429 8.78959C14.4354 8.75054 14.4492 8.71404 14.4703 8.68043C14.4915 8.64649 14.518 8.61832 14.5507 8.59527C14.583 8.5719 14.6186 8.55589 14.6573 8.54693C15.021 8.46337 15.361 8.32219 15.6773 8.1237C15.7035 8.10737 15.7317 8.09521 15.7618 8.08752C15.7922 8.07984 15.8226 8.07696 15.8537 8.07856C15.8847 8.08048 15.9148 8.08688 15.9436 8.09809C15.9728 8.10929 15.9993 8.12434 16.0237 8.14387L16.7885 8.75598L17.3785 8.16564L16.7664 7.40114C16.7472 7.37681 16.7318 7.35023 16.7206 7.3211C16.7094 7.29229 16.703 7.2622 16.7014 7.23114C16.6995 7.20009 16.7024 7.16935 16.71 7.13926C16.7177 7.10917 16.7299 7.081 16.7465 7.05474C16.9447 6.73844 17.0859 6.39845 17.1698 6.03477C17.1768 6.00436 17.188 5.97586 17.204 5.94929C17.2197 5.9224 17.2392 5.89871 17.2626 5.87822C17.2857 5.85741 17.3116 5.84076 17.3401 5.82828C17.3683 5.81547 17.398 5.80747 17.4288 5.80395L18.4004 5.6967V4.86209L17.4278 4.7542C17.3967 4.75068 17.3673 4.74268 17.3388 4.72987C17.3103 4.71738 17.2847 4.70074 17.2613 4.67993C17.2383 4.65944 17.2187 4.63575 17.2027 4.60886C17.1871 4.58228 17.1755 4.55379 17.1685 4.52338C17.0846 4.1597 16.9437 3.81971 16.7453 3.5034C16.7286 3.47715 16.7168 3.44898 16.7091 3.41889C16.7011 3.38847 16.6982 3.35806 16.7001 3.32701C16.7017 3.29595 16.7084 3.26586 16.7193 3.23705C16.7305 3.20791 16.7459 3.18134 16.7654 3.15701L17.3772 2.39219L16.7872 1.80249L16.0224 2.4146C15.9984 2.43381 15.9715 2.44918 15.9427 2.46038C15.9135 2.47159 15.8834 2.47799 15.8524 2.47959C15.8213 2.48151 15.7909 2.47863 15.7608 2.47095C15.7307 2.46326 15.7022 2.4511 15.676 2.43445C15.3597 2.23628 15.0197 2.0951 14.656 2.01122C14.6256 2.0045 14.5971 1.99297 14.5705 1.97697C14.5436 1.96128 14.5199 1.94175 14.4995 1.91838C14.4786 1.89533 14.462 1.8694 14.4495 1.84091C14.4367 1.81273 14.4287 1.78296 14.4252 1.75223L14.3176 0.779634H13.483L13.3751 1.75223C13.3716 1.78296 13.3636 1.81273 13.3508 1.84091C13.3383 1.8694 13.3217 1.89533 13.3008 1.91838C13.2804 1.94175 13.2567 1.96128 13.2298 1.97697C13.2032 1.99297 13.1747 2.0045 13.1443 2.01122C12.7806 2.0951 12.4406 2.23628 12.1243 2.43445C12.0981 2.4511 12.0696 2.46326 12.0395 2.47095C12.0094 2.47863 11.979 2.48151 11.9479 2.47959C11.9169 2.47799 11.8868 2.47159 11.8576 2.46038C11.8288 2.44918 11.8019 2.43381 11.7779 2.4146L11.0134 1.80249L10.4234 2.39251L11.0352 3.15733C11.0547 3.18166 11.0701 3.20823 11.081 3.23737C11.0922 3.26618 11.0986 3.29627 11.1005 3.32733C11.1024 3.35838 11.0992 3.38879 11.0915 3.41889C11.0839 3.4493 11.072 3.47747 11.0554 3.50373C10.8569 3.82003 10.716 4.16002 10.6321 4.5237C10.6232 4.56244 10.6072 4.59797 10.5841 4.63031C10.5611 4.66296 10.5326 4.68953 10.499 4.71066C10.465 4.73179 10.4285 4.74556 10.3895 4.75228C10.3501 4.75868 10.311 4.75772 10.2723 4.74876C10.2336 4.73979 10.198 4.72379 10.1657 4.70074C10.1334 4.67769 10.1065 4.64919 10.0853 4.61558C10.0642 4.58164 10.0504 4.54515 10.0437 4.50609C10.0373 4.46671 10.0386 4.42766 10.0472 4.38892C10.1295 4.03132 10.2595 3.69197 10.4375 3.37119L9.78664 2.55834C9.76391 2.52953 9.74663 2.49752 9.73542 2.4623C9.72454 2.42741 9.71973 2.39123 9.72197 2.35441C9.7239 2.31792 9.73254 2.2827 9.74759 2.24909C9.76263 2.21547 9.78312 2.1857 9.80905 2.15945L10.7804 1.18846C10.8063 1.1622 10.8364 1.14172 10.87 1.12667C10.9036 1.11162 10.9388 1.10298 10.976 1.10106C11.0128 1.09882 11.0486 1.10362 11.0839 1.11482C11.1191 1.12603 11.1511 1.14332 11.1799 1.16637L11.9927 1.8169C12.2501 1.67443 12.5203 1.56238 12.803 1.48075L12.918 0.446686C12.9221 0.41019 12.9327 0.375294 12.9493 0.34264C12.966 0.309985 12.9881 0.281493 13.0156 0.256842C13.0428 0.232191 13.0735 0.213302 13.1078 0.199856C13.1421 0.186731 13.1776 0.180008 13.2144 0.179688H14.5862C14.623 0.179688 14.6586 0.186411 14.6931 0.199536C14.7277 0.212662 14.7585 0.231551 14.786 0.256202C14.8135 0.280853 14.8356 0.309665 14.8526 0.34232C14.8695 0.375294 14.8798 0.40987 14.8839 0.446686L14.9992 1.48075C15.2819 1.56238 15.5518 1.67443 15.8092 1.8169L16.6223 1.16637C16.6511 1.14332 16.6831 1.12603 16.7184 1.11482C16.7533 1.10362 16.7894 1.09882 16.8263 1.10106C16.8631 1.10298 16.8983 1.11162 16.9322 1.12667C16.9658 1.14172 16.9956 1.1622 17.0219 1.18846L17.9916 2.15945C18.0175 2.1857 18.038 2.21547 18.0534 2.24909C18.0684 2.28302 18.0767 2.31824 18.079 2.35505C18.0809 2.39187 18.0764 2.42805 18.0652 2.46326C18.0537 2.49816 18.0367 2.53017 18.0137 2.55899L17.3628 3.37215C17.5056 3.62954 17.6176 3.89942 17.6993 4.18211L18.7333 4.29704C18.7698 4.3012 18.8047 4.31176 18.8377 4.32873C18.8704 4.34538 18.8992 4.36779 18.9238 4.395C18.9485 4.42253 18.9674 4.45359 18.9805 4.48816C18.9936 4.52242 19.0003 4.55827 19.0003 4.59509V5.96658C19.0003 6.0034 18.9936 6.03925 18.9805 6.07351C18.9674 6.10808 18.9485 6.13914 18.9238 6.16667C18.8992 6.19388 18.8704 6.21629 18.8377 6.23294C18.8047 6.24991 18.7698 6.26047 18.7333 6.26463L17.6993 6.37956C17.6176 6.66225 17.5056 6.93245 17.3628 7.18952L18.0137 8.00269C18.0367 8.0315 18.0537 8.06351 18.0652 8.09873C18.0764 8.13362 18.0809 8.1698 18.079 8.20662C18.0767 8.24343 18.0684 8.27865 18.0534 8.31258C18.038 8.3462 18.0175 8.37597 17.9916 8.40222L17.0203 9.37033C16.9623 9.42828 16.8922 9.45741 16.8102 9.45805Z"
            stroke-width="0.3"></path>
        <path fill-rule="evenodd" clip-rule="evenodd"
            d="M13.8999 6.95198C13.8452 6.95198 13.7907 6.9491 13.7363 6.94366C13.6819 6.93853 13.6278 6.93053 13.574 6.91965C13.5202 6.90908 13.4674 6.89564 13.4149 6.87995C13.3624 6.86394 13.3112 6.84569 13.2606 6.82456C13.21 6.80376 13.1604 6.78038 13.1124 6.75445C13.064 6.72884 13.017 6.70067 12.9715 6.67026C12.926 6.63984 12.8822 6.60719 12.8399 6.57261C12.7973 6.53772 12.757 6.5009 12.7183 6.46248C12.6795 6.42375 12.6427 6.38309 12.6081 6.34083C12.5732 6.29857 12.5409 6.25471 12.5105 6.20925C12.4801 6.16347 12.4519 6.11673 12.426 6.06839C12.4004 6.02005 12.377 5.97074 12.3559 5.92016C12.335 5.86958 12.3165 5.81804 12.3008 5.76585C12.2848 5.71335 12.2717 5.66021 12.2608 5.60674C12.2502 5.55296 12.2422 5.49885 12.2368 5.44443C12.2313 5.39001 12.2288 5.33526 12.2288 5.28052C12.2288 5.22577 12.2313 5.17135 12.2368 5.11693C12.2422 5.0625 12.2502 5.0084 12.2608 4.95461C12.2717 4.90083 12.2848 4.84801 12.3008 4.7955C12.3165 4.743 12.335 4.69178 12.3559 4.64119C12.377 4.59061 12.4004 4.54099 12.426 4.49297C12.4519 4.44463 12.4801 4.39757 12.5105 4.35211C12.5409 4.30664 12.5732 4.26279 12.6081 4.22053C12.6427 4.17827 12.6795 4.13761 12.7183 4.09887C12.757 4.06014 12.7973 4.02364 12.8399 3.98874C12.8822 3.95417 12.926 3.92151 12.9715 3.8911C13.017 3.86069 13.064 3.83251 13.1124 3.8069C13.1604 3.78097 13.21 3.7576 13.2606 3.73679C13.3112 3.71566 13.3624 3.69741 13.4149 3.68141C13.4674 3.6654 13.5202 3.65227 13.574 3.64139C13.6278 3.63082 13.6819 3.62282 13.7363 3.61738C13.7907 3.61226 13.8452 3.60938 13.8999 3.60938C13.9546 3.60938 14.0094 3.61226 14.0638 3.61738C14.1182 3.62282 14.1723 3.63082 14.2261 3.64139C14.2799 3.65227 14.3327 3.6654 14.3852 3.68141C14.4377 3.69741 14.489 3.71566 14.5395 3.73679C14.5901 3.7576 14.6398 3.78097 14.6878 3.8069C14.7361 3.83251 14.7832 3.86069 14.8286 3.8911C14.8741 3.92151 14.918 3.95417 14.9602 3.98874C15.0025 4.02364 15.0431 4.06014 15.0819 4.09887C15.1206 4.13761 15.1571 4.17827 15.192 4.22053C15.2266 4.26279 15.2592 4.30664 15.2896 4.35211C15.3201 4.39757 15.3482 4.44463 15.3742 4.49297C15.3998 4.54099 15.4231 4.59061 15.4443 4.64119C15.4651 4.69178 15.4836 4.743 15.4993 4.7955C15.5153 4.84801 15.5285 4.90083 15.5394 4.95461C15.5499 5.0084 15.5579 5.0625 15.5634 5.11693C15.5688 5.17135 15.5714 5.22577 15.5714 5.28052C15.5714 5.33526 15.5685 5.39001 15.563 5.44443C15.5576 5.49885 15.5496 5.55296 15.539 5.60642C15.5281 5.66021 15.515 5.71335 15.499 5.76553C15.483 5.81804 15.4648 5.86926 15.4436 5.91984C15.4228 5.97042 15.3994 6.01973 15.3735 6.06807C15.3476 6.11641 15.3194 6.16315 15.289 6.20861C15.2586 6.25407 15.2263 6.29793 15.1914 6.34019C15.1568 6.38277 15.12 6.42311 15.0812 6.46184C15.0425 6.50058 15.0022 6.53708 14.9599 6.57197C14.9176 6.60655 14.8738 6.6392 14.828 6.66962C14.7825 6.70003 14.7358 6.7282 14.6875 6.75381C14.6394 6.77974 14.5898 6.80311 14.5392 6.82424C14.489 6.84505 14.4374 6.86362 14.3849 6.87931C14.3327 6.89532 14.2796 6.90876 14.2261 6.91933C14.1723 6.93021 14.1182 6.93821 14.0638 6.94366C14.0094 6.9491 13.9546 6.95166 13.8999 6.95198ZM13.8999 4.20932C13.8298 4.20932 13.76 4.21636 13.6912 4.22981C13.622 4.24358 13.5551 4.26407 13.4901 4.29096C13.4251 4.31785 13.3633 4.35082 13.3048 4.38988C13.2465 4.42894 13.1924 4.47344 13.1424 4.52306C13.0928 4.573 13.0483 4.62711 13.0093 4.68537C12.9702 4.74396 12.9372 4.80575 12.9103 4.87074C12.8835 4.93572 12.863 5.00263 12.8492 5.07179C12.8357 5.14062 12.8287 5.21041 12.8287 5.28052C12.8287 5.35095 12.8357 5.42074 12.8492 5.48957C12.863 5.55872 12.8835 5.62563 12.9103 5.69062C12.9372 5.75561 12.9702 5.8174 13.0093 5.87566C13.0483 5.93425 13.0928 5.98835 13.1424 6.03797C13.1924 6.08792 13.2465 6.1321 13.3048 6.17147C13.3633 6.21053 13.4251 6.24351 13.4901 6.2704C13.5551 6.29729 13.622 6.31746 13.6912 6.33122C13.76 6.34499 13.8298 6.35171 13.8999 6.35171C13.9703 6.35171 14.0401 6.34499 14.109 6.33122C14.1781 6.31746 14.245 6.29729 14.31 6.2704C14.375 6.24351 14.4368 6.21053 14.4954 6.17147C14.5536 6.1321 14.6077 6.08792 14.6577 6.03797C14.7073 5.98835 14.7518 5.93425 14.7909 5.87566C14.8299 5.8174 14.8629 5.75561 14.8898 5.69062C14.9167 5.62563 14.9372 5.55872 14.9506 5.48957C14.9644 5.42074 14.9714 5.35095 14.9714 5.28052C14.9714 5.21041 14.9644 5.14062 14.9506 5.07179C14.9368 5.00263 14.9164 4.93572 14.8895 4.87074C14.8626 4.80607 14.8296 4.74428 14.7905 4.68569C14.7515 4.62743 14.707 4.57332 14.6574 4.52338C14.6074 4.47376 14.5533 4.42926 14.495 4.3902C14.4365 4.35114 14.3747 4.31817 14.3097 4.29128C14.245 4.26439 14.1778 4.2439 14.109 4.23013C14.0401 4.21636 13.9703 4.20932 13.8999 4.20932Z"
            stroke-width="0.3"></path>
    </symbol>
    <symbol id="notification-icon" viewBox="0 0 60 68">
        <path
            d="M50.0555 47.6875C54.2067 49.4729 56.7241 51.8151 56.7241 54.3835C56.7241 59.9759 44.7806 64.5085 30.0495 64.5085C15.3185 64.5085 3.375 59.9759 3.375 54.3835C3.375 51.8185 5.89241 49.4695 10.0436 47.6875"
            stroke-width="6.2114" stroke-linecap="round" stroke-linejoin="round"></path>
        <path
            d="M46.7211 22.1313C46.7211 32.5702 30.0495 51.0078 30.0495 51.0078C30.0495 51.0078 13.3779 32.5702 13.3779 22.1313C13.3779 11.6958 20.8435 3.75781 30.0495 3.75781C39.2556 3.75781 46.7211 11.6958 46.7211 22.1313V22.1313Z"
            stroke-width="6.2114" stroke-linecap="round" stroke-linejoin="round"></path>
        <path
            d="M30.0496 24C31.8911 24 33.384 22.489 33.384 20.625C33.384 18.761 31.8911 17.25 30.0496 17.25C28.2082 17.25 26.7153 18.761 26.7153 20.625C26.7153 22.489 28.2082 24 30.0496 24Z"
            stroke-width="6.2114" stroke-linecap="round" stroke-linejoin="round"></path>
    </symbol>
    <symbol id="reset-password-icon">
        <path
            d="M10 19C5.03734 19 1 14.9627 1 10C1 5.03734 5.03734 1 10 1C14.9627 1 19 5.03734 19 10C19 14.9627 14.9627 19 10 19ZM10 1.85714C5.51004 1.85714 1.85714 5.51004 1.85714 10C1.85714 14.49 5.51004 18.1429 10 18.1429C14.49 18.1429 18.1429 14.49 18.1429 10C18.1429 5.51004 14.49 1.85714 10 1.85714Z">
        </path>
        <path
            d="M8.43913 11.4918L8.2772 11.212L7.91285 11.4218V11.0029H7.58899V11.4218L7.22495 11.212L7.06302 11.4921L7.42706 11.7018L7.06241 11.9118L7.22464 12.1919L7.58899 11.9818V12.4025H7.91285V11.9818L8.27781 12.1919L8.43944 11.9118L8.07479 11.7018L8.43913 11.4918Z">
        </path>
        <path
            d="M10.6882 11.4924L10.5263 11.2123L10.1622 11.4221V11.0029H9.83808V11.4221L9.47403 11.2123L9.3121 11.4924L9.67614 11.7021L9.31149 11.9121L9.47342 12.1922L9.83808 11.9821V12.4025H10.1622V11.9821L10.5269 12.1922L10.6888 11.9121L10.3242 11.7021L10.6882 11.4924Z">
        </path>
        <path
            d="M12.9373 11.4927L12.7754 11.213L12.4116 11.4224V11.0029H12.0878V11.4227L11.7225 11.212L11.5606 11.4921L11.9258 11.7024L11.5609 11.9127L11.7228 12.1925L12.0878 11.9824V12.4025H12.4116V11.9824L12.7754 12.1919L12.9373 11.9118L12.5736 11.7024L12.9373 11.4927Z">
        </path>
        <path
            d="M13.2036 7.93735H12.6837V6.90366C12.6837 6.18745 12.4034 5.51507 11.8975 5.0104C11.3886 4.50269 10.715 4.22266 10.0027 4.22266C8.52313 4.22266 7.31869 5.42467 7.31869 6.90366V7.93735H6.78511C6.10877 7.93735 5.55875 8.48676 5.55875 9.16249V14.2426C5.55875 14.9187 6.10877 15.4681 6.78511 15.4681H13.2119C13.8882 15.4681 14.441 14.9156 14.441 14.2372V9.17345C14.4413 8.49224 13.8858 7.93735 13.2036 7.93735ZM8.14083 6.90366C8.14083 5.88002 8.97423 5.04601 10 5.04601C10.4922 5.04601 10.9597 5.24082 11.3116 5.59208C11.6638 5.94059 11.8561 6.40691 11.8561 6.90366V7.93735H8.14083V6.90366ZM13.6161 14.2426C13.6161 14.4651 13.4347 14.6466 13.2119 14.6466H6.78541C6.5626 14.6466 6.38393 14.4651 6.38393 14.2454V9.16523C6.38393 8.94273 6.56534 8.76405 6.78541 8.76405H13.2036C13.4319 8.76405 13.6161 8.9482 13.6161 9.17619V14.2426Z">
        </path>
    </symbol>
</svg>
