<svg xmlns="http://www.w3.org/2000/svg" style="display: none;">
  <symbol id="view" viewBox="0 0 20 20" fill="none">
	<path d="M14.2857 17.1428C15.0747 17.1428 15.7143 16.5032 15.7143 15.7142C15.7143 14.9252 15.0747 14.2856 14.2857 14.2856C13.4967 14.2856 12.8571 14.9252 12.8571 15.7142C12.8571 16.5032 13.4967 17.1428 14.2857 17.1428Z" fill="black"></path>
	<path d="M19.8407 15.342C19.3994 14.2176 18.6378 13.2475 17.6503 12.5518C16.6629 11.8562 15.493 11.4656 14.2857 11.4284C13.0784 11.4656 11.9085 11.8562 10.9211 12.5518C9.93363 13.2475 9.17204 14.2176 8.7307 15.342L8.57141 15.7141L8.7307 16.0863C9.17204 17.2107 9.93363 18.1808 10.9211 18.8765C11.9085 19.5721 13.0784 19.9627 14.2857 19.9999C15.493 19.9627 16.6629 19.5721 17.6503 18.8765C18.6378 18.1808 19.3994 17.2107 19.8407 16.0863L20 15.7141L19.8407 15.342ZM14.2857 18.5713C13.7206 18.5713 13.1682 18.4037 12.6984 18.0898C12.2285 17.7758 11.8623 17.3296 11.646 16.8075C11.4298 16.2855 11.3732 15.711 11.4835 15.1567C11.5937 14.6025 11.8658 14.0934 12.2654 13.6938C12.665 13.2943 13.1741 13.0221 13.7283 12.9119C14.2825 12.8017 14.857 12.8582 15.3791 13.0745C15.9012 13.2907 16.3474 13.6569 16.6613 14.1268C16.9753 14.5967 17.1428 15.1491 17.1428 15.7141C17.1419 16.4716 16.8406 17.1978 16.305 17.7334C15.7693 18.269 15.0432 18.5703 14.2857 18.5713ZM3.57141 10.7141H7.14284V12.1427H3.57141V10.7141ZM3.57141 7.14272H12.1428V8.57129H3.57141V7.14272ZM3.57141 3.57129H12.1428V4.99986H3.57141V3.57129Z" fill="black"></path>
	<path d="M14.2857 0H1.42857C1.05004 0.00113052 0.687332 0.152003 0.419668 0.419668C0.152003 0.687332 0.00113052 1.05004 0 1.42857V18.5714C0.00113052 18.95 0.152003 19.3127 0.419668 19.5803C0.687332 19.848 1.05004 19.9989 1.42857 20H7.14286V18.5714H1.42857V1.42857H14.2857V9.28571H15.7143V1.42857C15.7132 1.05004 15.5623 0.687332 15.2946 0.419668C15.027 0.152003 14.6642 0.00113052 14.2857 0Z" fill="black"></path>
</symbol>

 <symbol id="invoice-generate"  viewBox="0 0 22 19" fill="none">
     <mask id="mask0_9858_138847" style="mask-type:luminance" maskUnits="userSpaceOnUse" x="0" y="0" width="22" height="19">
     <path d="M1 1H21V18.5325H1V1Z" fill="white" stroke="white" stroke-width="0.6"/>
     </mask>
     <g mask="url(#mask0_9858_138847)">
     <path d="M19.9654 8.32417V5.57187L15.9266 1.00781H6.17248V15.4346H1.34497C1.15524 15.4346 1 15.5891 1 15.7782C1 17.294 2.23715 18.5261 3.75873 18.5261H16.8621V18.5048C16.974 18.5176 17.0904 18.5261 17.207 18.5261C18.7283 18.5261 19.9654 17.294 19.9654 15.7782V12.9271C20.5992 12.3603 21 11.5401 21 10.6256C21 9.71114 20.5992 8.891 19.9654 8.32417ZM16.1163 2.30448C16.4353 2.6738 16.8749 3.18449 17.4269 3.82437C17.9568 4.43415 18.4912 5.04799 18.8622 5.47311H16.8922C16.4654 5.47311 16.1163 5.12544 16.1163 4.70032V2.30448ZM3.75873 17.8392C2.73701 17.8392 1.88373 17.0965 1.7197 16.1218H14.47C14.5559 16.8043 14.8924 17.4056 15.3835 17.8392H3.75873ZM19.2758 15.7782C19.2758 16.9159 18.3492 17.8392 17.207 17.8392C16.0646 17.8392 15.1379 16.9159 15.1379 15.7782C15.1379 15.5891 14.9827 15.4346 14.793 15.4346H6.86208V1.6947H15.4267V4.70032C15.4267 5.50761 16.0862 6.16034 16.8922 6.16034H19.2758V7.85609C18.8622 7.65013 18.3921 7.53412 17.8966 7.53412C16.1853 7.53412 14.793 8.9211 14.793 10.6256C14.793 12.3302 16.1853 13.7172 17.8966 13.7172C18.3921 13.7172 18.8622 13.6012 19.2758 13.3952V15.7782ZM17.8966 13.0303C16.5648 13.0303 15.4829 11.9524 15.4829 10.6256C15.4829 9.29887 16.5648 8.22135 17.8966 8.22135C19.2285 8.22135 20.3104 9.29887 20.3104 10.6256C20.3104 11.9524 19.2285 13.0303 17.8966 13.0303Z" fill="black" stroke="black" stroke-width="0.6"/>
     </g>
     <path d="M8.24127 5.12891H14.7929V5.8158H8.24127V5.12891Z" fill="black" stroke="black" stroke-width="0.2"/>
     <mask id="path-4-inside-1_9858_138847" fill="white">
     <path d="M8.24127 7.53516H14.7929V8.22239H8.24127V7.53516Z"/>
     </mask>
     <path d="M8.24127 7.53516H14.7929V8.22239H8.24127V7.53516Z" fill="black"/>
     <path d="M8.24127 7.53516V6.20182H6.90794V7.53516H8.24127ZM14.7929 7.53516H16.1263V6.20182H14.7929V7.53516ZM14.7929 8.22239V9.55572H16.1263V8.22239H14.7929ZM8.24127 8.22239H6.90794V9.55572H8.24127V8.22239ZM8.24127 8.86849H14.7929V6.20182H8.24127V8.86849ZM13.4596 7.53516V8.22239H16.1263V7.53516H13.4596ZM14.7929 6.88905H8.24127V9.55572H14.7929V6.88905ZM9.57461 8.22239V7.53516H6.90794V8.22239H9.57461Z" fill="black" mask="url(#path-4-inside-1_9858_138847)"/>
     <path d="M8.24127 9.9375H13.7587V10.6244H8.24127V9.9375Z" fill="black" stroke="black" stroke-width="0.2"/>
     <path d="M8.24127 12.3438H14.7929V13.031H8.24127V12.3438Z" fill="black" stroke="black" stroke-width="0.2"/>
     <mask id="path-8-inside-2_9858_138847" fill="white">
     <path d="M18.2846 9.08589V8.80687C18.2846 8.67362 18.1767 8.56641 18.0431 8.56641C17.9095 8.56641 17.8016 8.67362 17.8016 8.80687V9.08589C17.4526 9.1931 17.2111 9.51101 17.2111 9.88033C17.2111 10.2324 17.4096 10.55 17.7242 10.7089L18.0603 10.8763C18.2629 10.9795 18.3921 11.1814 18.3921 11.4087C18.3921 11.5419 18.3191 11.6579 18.2027 11.7181C18.1077 11.7651 17.9914 11.7651 17.8923 11.7181C17.7759 11.6579 17.7025 11.5419 17.7025 11.4087C17.7025 11.2758 17.595 11.1685 17.4611 11.1685C17.3275 11.1685 17.2199 11.2758 17.2199 11.4087V11.4777C17.2199 11.5034 17.2243 11.5291 17.2328 11.5548C17.2757 11.8125 17.4397 12.0357 17.6809 12.1517C17.7242 12.173 17.7671 12.1903 17.8104 12.2031V12.4436C17.8104 12.5768 17.918 12.684 18.0519 12.684C18.1855 12.684 18.293 12.5768 18.293 12.4436V12.2031C18.3363 12.1903 18.3793 12.173 18.4226 12.1517C18.707 12.01 18.8835 11.7266 18.8835 11.4087C18.8835 10.9967 18.6552 10.6274 18.2846 10.4428L17.9484 10.2753C17.7976 10.1979 17.7025 10.0477 17.7025 9.88033C17.7025 9.72137 17.8104 9.58406 17.9657 9.54551C18.0215 9.53232 18.0776 9.53232 18.1337 9.54551C18.2886 9.58406 18.3965 9.72137 18.3965 9.88033V10.022C18.3965 10.1549 18.5044 10.2625 18.638 10.2625C18.7716 10.2625 18.8795 10.1549 18.8795 10.022V9.88033C18.8751 9.51101 18.6336 9.18904 18.2846 9.08589Z"/>
     </mask>
     <path d="M18.2846 9.08589V8.80687C18.2846 8.67362 18.1767 8.56641 18.0431 8.56641C17.9095 8.56641 17.8016 8.67362 17.8016 8.80687V9.08589C17.4526 9.1931 17.2111 9.51101 17.2111 9.88033C17.2111 10.2324 17.4096 10.55 17.7242 10.7089L18.0603 10.8763C18.2629 10.9795 18.3921 11.1814 18.3921 11.4087C18.3921 11.5419 18.3191 11.6579 18.2027 11.7181C18.1077 11.7651 17.9914 11.7651 17.8923 11.7181C17.7759 11.6579 17.7025 11.5419 17.7025 11.4087C17.7025 11.2758 17.595 11.1685 17.4611 11.1685C17.3275 11.1685 17.2199 11.2758 17.2199 11.4087V11.4777C17.2199 11.5034 17.2243 11.5291 17.2328 11.5548C17.2757 11.8125 17.4397 12.0357 17.6809 12.1517C17.7242 12.173 17.7671 12.1903 17.8104 12.2031V12.4436C17.8104 12.5768 17.918 12.684 18.0519 12.684C18.1855 12.684 18.293 12.5768 18.293 12.4436V12.2031C18.3363 12.1903 18.3793 12.173 18.4226 12.1517C18.707 12.01 18.8835 11.7266 18.8835 11.4087C18.8835 10.9967 18.6552 10.6274 18.2846 10.4428L17.9484 10.2753C17.7976 10.1979 17.7025 10.0477 17.7025 9.88033C17.7025 9.72137 17.8104 9.58406 17.9657 9.54551C18.0215 9.53232 18.0776 9.53232 18.1337 9.54551C18.2886 9.58406 18.3965 9.72137 18.3965 9.88033V10.022C18.3965 10.1549 18.5044 10.2625 18.638 10.2625C18.7716 10.2625 18.8795 10.1549 18.8795 10.022V9.88033C18.8751 9.51101 18.6336 9.18904 18.2846 9.08589Z" fill="black"/>
     <path d="M18.2846 9.08589H16.9512V10.0822L17.9067 10.3645L18.2846 9.08589ZM17.8016 9.08589L18.1931 10.3604L19.135 10.0711V9.08589H17.8016ZM17.7242 10.7089L17.1228 11.8989L17.1298 11.9025L17.7242 10.7089ZM18.0603 10.8763L18.6654 9.68811L18.6547 9.68281L18.0603 10.8763ZM18.2027 11.7181L18.7939 12.9132L18.8047 12.9079L18.8155 12.9023L18.2027 11.7181ZM17.8923 11.7181L17.2795 12.9023L17.3 12.9129L17.3208 12.9228L17.8923 11.7181ZM17.2328 11.5548L18.548 11.3356L18.5312 11.235L18.4993 11.1381L17.2328 11.5548ZM17.6809 12.1517L18.2697 10.9554L18.2589 10.9502L17.6809 12.1517ZM17.8104 12.2031H19.1438V11.2081L18.1899 10.9249L17.8104 12.2031ZM18.293 12.2031L17.9136 10.9249L16.9597 11.2081V12.2031H18.293ZM18.4226 12.1517L19.0114 13.348L19.0171 13.3451L18.4226 12.1517ZM18.2846 10.4428L18.8791 9.24932L18.8789 9.24923L18.2846 10.4428ZM17.9484 10.2753L17.3394 11.4615L17.3467 11.4652L17.354 11.4689L17.9484 10.2753ZM17.9657 9.54551L17.659 8.24793L17.6516 8.24966L17.6443 8.25149L17.9657 9.54551ZM18.1337 9.54551L18.4558 8.25165L18.4473 8.24953L18.4387 8.24751L18.1337 9.54551ZM18.8795 9.88033H20.2128V9.87239L20.2127 9.86445L18.8795 9.88033ZM19.6179 9.08589V8.80687H16.9512V9.08589H19.6179ZM19.6179 8.80687C19.6179 7.93115 18.907 7.23307 18.0431 7.23307V9.89974C17.4464 9.89974 16.9512 9.41609 16.9512 8.80687H19.6179ZM18.0431 7.23307C17.1792 7.23307 16.4683 7.93114 16.4683 8.80687H19.135C19.135 9.41609 18.6398 9.89974 18.0431 9.89974V7.23307ZM16.4683 8.80687V9.08589H19.135V8.80687H16.4683ZM17.4101 7.81133C16.5136 8.0867 15.8778 8.91266 15.8778 9.88033H18.5445C18.5445 10.1094 18.3916 10.2995 18.1931 10.3604L17.4101 7.81133ZM15.8778 9.88033C15.8778 10.744 16.3671 11.517 17.1228 11.8989L18.3256 9.51893C18.4522 9.5829 18.5445 9.72076 18.5445 9.88033H15.8778ZM17.1298 11.9025L17.466 12.0699L18.6547 9.68281L18.3185 9.5154L17.1298 11.9025ZM17.4554 12.0645C17.2311 11.9503 17.0588 11.705 17.0588 11.4087H19.7255C19.7255 10.6577 19.2948 10.0087 18.6653 9.68816L17.4554 12.0645ZM17.0588 11.4087C17.0588 11.031 17.275 10.6969 17.59 10.5339L18.8155 12.9023C19.3632 12.6189 19.7255 12.0529 19.7255 11.4087H17.0588ZM17.6116 10.523C17.8966 10.382 18.209 10.3926 18.4638 10.5135L17.3208 12.9228C17.7737 13.1376 18.3188 13.1483 18.7939 12.9132L17.6116 10.523ZM18.505 10.5339C18.8179 10.6958 19.0359 11.0286 19.0359 11.4087H16.3692C16.3692 12.0552 16.734 12.62 17.2795 12.9023L18.505 10.5339ZM19.0359 11.4087C19.0359 10.5333 18.3252 9.83521 17.4611 9.83521V12.5019C16.8647 12.5019 16.3692 12.0182 16.3692 11.4087H19.0359ZM17.4611 9.83521C16.596 9.83521 15.8866 10.5345 15.8866 11.4087H18.5532C18.5532 12.017 18.059 12.5019 17.4611 12.5019V9.83521ZM15.8866 11.4087V11.4777H18.5532V11.4087H15.8866ZM15.8866 11.4777C15.8866 11.6578 15.9177 11.824 15.9662 11.9714L18.4993 11.1381C18.5309 11.2341 18.5532 11.349 18.5532 11.4777H15.8866ZM15.9176 11.774C16.031 12.4544 16.4662 13.0469 17.1029 13.3532L18.2589 10.9502C18.4133 11.0245 18.5205 11.1706 18.548 11.3356L15.9176 11.774ZM17.0921 13.348C17.1931 13.3977 17.3061 13.4442 17.431 13.4813L18.1899 10.9249C18.2282 10.9363 18.2553 10.9483 18.2697 10.9554L17.0921 13.348ZM16.4771 12.2031V12.4436H19.1438V12.2031H16.4771ZM16.4771 12.4436C16.4771 13.3181 17.1865 14.0174 18.0519 14.0174V11.3507C18.6495 11.3507 19.1438 11.8356 19.1438 12.4436H16.4771ZM18.0519 14.0174C18.9182 14.0174 19.6264 13.3169 19.6264 12.4436H16.9597C16.9597 11.8368 17.4528 11.3507 18.0519 11.3507V14.0174ZM19.6264 12.4436V12.2031H16.9597V12.4436H19.6264ZM18.6725 13.4813C18.7974 13.4442 18.9104 13.3977 19.0114 13.348L17.8338 10.9554C17.8482 10.9483 17.8753 10.9363 17.9136 10.9249L18.6725 13.4813ZM19.0171 13.3451C19.7514 12.9793 20.2169 12.2354 20.2169 11.4087H17.5502C17.5502 11.2177 17.6626 11.0407 17.828 10.9583L19.0171 13.3451ZM20.2169 11.4087C20.2169 10.4902 19.7018 9.65914 18.8791 9.24932L17.69 11.6362C17.6535 11.618 17.6167 11.5864 17.5896 11.5427C17.5626 11.4991 17.5502 11.4513 17.5502 11.4087H20.2169ZM18.8789 9.24923L18.5428 9.08182L17.354 11.4689L17.6902 11.6363L18.8789 9.24923ZM18.5574 9.08923C18.8315 9.22994 19.0359 9.52596 19.0359 9.88033H16.3692C16.3692 10.5695 16.7637 11.1659 17.3394 11.4615L18.5574 9.08923ZM19.0359 9.88033C19.0359 10.3393 18.7212 10.7317 18.287 10.8395L17.6443 8.25149C16.8997 8.43642 16.3692 9.10348 16.3692 9.88033H19.0359ZM18.2724 10.8431C18.1259 10.8777 17.9726 10.8773 17.8288 10.8435L18.4387 8.24751C18.1826 8.18734 17.917 8.18692 17.659 8.24793L18.2724 10.8431ZM17.8117 10.8394C17.3771 10.7312 17.0632 10.3386 17.0632 9.88033H19.7299C19.7299 9.10415 19.2001 8.43693 18.4558 8.25165L17.8117 10.8394ZM17.0632 9.88033V10.022H19.7299V9.88033H17.0632ZM17.0632 10.022C17.0632 10.8962 17.7729 11.5958 18.638 11.5958V8.92916C19.2359 8.92916 19.7299 9.4137 19.7299 10.022H17.0632ZM18.638 11.5958C19.5031 11.5958 20.2128 10.8962 20.2128 10.022H17.5461C17.5461 9.4137 18.0401 8.92916 18.638 8.92916V11.5958ZM20.2128 10.022V9.88033H17.5461V10.022H20.2128ZM20.2127 9.86445C20.2015 8.92064 19.5824 8.07911 18.6625 7.80723L17.9067 10.3645C17.6848 10.299 17.5487 10.1014 17.5462 9.8962L20.2127 9.86445Z" fill="black" mask="url(#path-8-inside-2_9858_138847)"/>
</symbol>


<symbol id="green-badge" viewBox="0 0 20 28" fill="none">
	<path d="M9.39048 20.489L8.99006 20.0872L8.51958 20.4029C8.14045 20.6575 7.62737 20.5553 7.37367 20.1743L7.05702 19.6986L6.4843 19.9366C6.08813 20.1009 5.63422 19.912 5.47045 19.5144L5.23474 18.9432L4.67953 19.0539C4.23225 19.1429 3.79727 18.8513 3.70828 18.4017L3.66474 18.1816C3.66048 18.1811 3.65574 18.1802 3.65148 18.1797L1.34074 25.8134C1.29151 25.9772 1.43161 26.1352 1.59917 26.1045L4.47506 25.581C4.68237 25.5436 4.89489 25.608 5.04588 25.7552L7.14506 27.7971C7.26717 27.9159 7.47165 27.8629 7.52134 27.6996L9.65034 20.6651C9.55615 20.6249 9.46764 20.5662 9.39048 20.489Z" fill="#3D9519"></path>
	<path d="M9.97852 19.574L7.9636 12.9177L9.97852 12.3029L7.41219 11.5195L9.97048 19.6L9.97852 19.574Z" fill="#47E286"></path>
	<path d="M9.97841 19.5732L9.98551 19.5973L12.4274 11.5547L9.97841 12.3021L11.9929 12.9169L9.97841 19.5732Z" fill="#47E286"></path>
	<path d="M18.6182 25.8085L16.2942 18.1289L16.2412 18.3968C16.1522 18.8465 15.7172 19.1385 15.2699 19.049L14.711 18.9373L14.4733 19.5124C14.3091 19.91 13.8552 20.0989 13.4595 19.9341L12.8901 19.697L12.5758 20.1694C12.3221 20.5504 11.809 20.6526 11.4299 20.398L10.959 20.0823L10.559 20.4841C10.4847 20.5589 10.399 20.6167 10.3081 20.6569L12.4385 27.6947C12.4878 27.858 12.6922 27.911 12.8144 27.7922L14.9135 25.7503C15.065 25.6031 15.2775 25.5387 15.4844 25.5761L18.3602 26.0996C18.5278 26.1304 18.6679 25.9723 18.6182 25.8085Z" fill="#3D9519"></path>
	<path d="M9.97841 19.5758L11.9929 12.9195L9.97841 12.3047L7.96349 12.9195L9.97841 19.5758Z" fill="#47E286"></path>
	<path d="M7.41219 11.5207L5.82184 11.0355L6.5233 8.71484L7.41219 11.5207Z" fill="#B5EAD4"></path>
	<path d="M12.4275 11.554L13.2965 8.69141L14.05 11.059L12.4275 11.554Z" fill="#B5EAD4"></path>
	<path d="M19.3965 10.9698L19.7728 10.5921C20.0757 10.2877 20.0757 9.79452 19.7728 9.49018L19.3965 9.11247L19.6923 8.66897C19.9304 8.31066 19.8348 7.82693 19.4784 7.5879L19.0363 7.29113L19.2398 6.79793C19.4041 6.40035 19.2162 5.94407 18.82 5.77935L18.3254 5.57346L18.43 5.04618C18.5133 4.62398 18.2402 4.21408 17.8199 4.12983L17.2983 4.0257V3.4918C17.2983 3.06155 16.9509 2.71271 16.5225 2.71271H15.9905L15.8869 2.18875C15.8035 1.76702 15.3951 1.49297 14.9748 1.57675L14.4532 1.6804L14.2496 1.1872C14.0859 0.789615 13.6315 0.600761 13.2358 0.765003L12.7407 0.970897L12.4435 0.52361C12.2054 0.166253 11.7235 0.0696963 11.3671 0.309196L10.925 0.605967L10.5488 0.228258C10.2458 -0.0760861 9.75453 -0.0760861 9.45113 0.228258L9.07531 0.605967L8.63323 0.309196C8.27682 0.0696963 7.79498 0.166253 7.5569 0.52361L7.26108 0.967583L6.77025 0.763109C6.37408 0.598394 5.92016 0.787249 5.75592 1.18484L5.55097 1.68135L5.02559 1.57675C4.60528 1.49249 4.19681 1.76702 4.11303 2.18875L4.00937 2.71271H3.47783C3.04901 2.71271 2.70159 3.06155 2.70159 3.4918V4.0257L2.17999 4.12983C1.75968 4.21408 1.48658 4.62398 1.57036 5.04618L1.67401 5.56967L1.18271 5.77414C0.786539 5.93886 0.598158 6.39467 0.7624 6.79225L0.966874 7.28877L0.521953 7.58743C0.165544 7.82693 0.0694597 8.31066 0.308013 8.66849L0.603364 9.11247L0.227548 9.49018C-0.0758495 9.79452 -0.0758495 10.2877 0.227548 10.5921L0.603364 10.9698L0.308013 11.4137C0.0694597 11.7716 0.165544 12.2553 0.521953 12.4943L0.964034 12.7911L0.760506 13.2843C0.596264 13.6819 0.784172 14.1382 1.17987 14.3029L1.67449 14.5088L1.57036 15.0361C1.48658 15.4583 1.75968 15.8686 2.17999 15.9524L2.70159 16.0565V16.5904C2.70159 17.0207 3.04901 17.3695 3.47783 17.3695H4.00937L4.11303 17.8935C4.19681 18.3157 4.60528 18.5897 5.02559 18.506L5.54719 18.4018L5.75071 18.895C5.91448 19.2926 6.3684 19.4815 6.76409 19.3172L7.25918 19.1113L7.55643 19.5586C7.79498 19.9165 8.27682 20.0125 8.63323 19.7735L9.07531 19.4767L9.45113 19.854C9.75453 20.1583 10.2458 20.1583 10.5488 19.854L10.925 19.4767L11.3667 19.7735C11.7231 20.0125 12.2054 19.9165 12.4435 19.5586L12.7388 19.1147L13.2301 19.3191C13.6258 19.4838 14.0802 19.2955 14.244 18.8979L14.4494 18.4009L14.9743 18.506C15.3951 18.5897 15.8035 18.3157 15.8869 17.8935L15.9905 17.3695H16.5225C16.9509 17.3695 17.2983 17.0207 17.2983 16.5904V16.0565L17.8199 15.9524C18.2402 15.8686 18.5133 15.4583 18.43 15.0361L18.3263 14.5126L18.8176 14.3081C19.2133 14.1439 19.4017 13.688 19.238 13.29L19.033 12.7935L19.4784 12.4943C19.8348 12.2553 19.9304 11.7716 19.6923 11.4137L19.3965 10.9698Z" fill="#3D9519"></path>
	<path d="M10.0003 1.92649C5.54352 1.92649 1.91742 5.56726 1.91742 10.0425C1.91742 14.5177 5.54352 18.1585 10.0003 18.1585C14.4571 18.1585 18.0827 14.5177 18.0827 10.0425C18.0827 5.56726 14.4571 1.92649 10.0003 1.92649ZM10.0003 18.5069C5.3523 18.5069 1.57048 14.7099 1.57048 10.0425C1.57048 5.37557 5.3523 1.57812 10.0003 1.57812C14.6483 1.57812 18.4296 5.37557 18.4296 10.0425C18.4296 14.7099 14.6483 18.5069 10.0003 18.5069Z" fill="white"></path>
	<path d="M9.02206 15.2139L4.52931 10.7026L5.79213 9.4351L9.02206 12.6783L14.7118 6.96484L15.9747 8.23287L9.02206 15.2139Z" fill="white"></path>
</symbol>

<symbol id="camera" viewBox="0 0 57 57" fill="none">
	<circle cx="28.5" cy="28.5" r="28" fill="#0A1E46" stroke="white"></circle>
	<path d="M42.9375 37.625C42.9375 38.172 42.7202 38.6966 42.3334 39.0834C41.9466 39.4702 41.422 39.6875 40.875 39.6875H16.125C15.578 39.6875 15.0534 39.4702 14.6666 39.0834C14.2798 38.6966 14.0625 38.172 14.0625 37.625V25.25C14.0625 24.703 14.2798 24.1784 14.6666 23.7916C15.0534 23.4048 15.578 23.1875 16.125 23.1875H18.5422C20.1824 23.1866 21.7551 22.5345 22.9147 21.3746L24.6266 19.6668C25.0123 19.281 25.5352 19.0637 26.0807 19.0625H30.9152C31.4622 19.0626 31.9867 19.28 32.3734 19.6668L34.0811 21.3746C34.6558 21.9494 35.3381 22.4054 36.0891 22.7165C36.84 23.0275 37.6449 23.1876 38.4578 23.1875H40.875C41.422 23.1875 41.9466 23.4048 42.3334 23.7916C42.7202 24.1784 42.9375 24.703 42.9375 25.25V37.625ZM16.125 21.125C15.031 21.125 13.9818 21.5596 13.2082 22.3332C12.4346 23.1068 12 24.156 12 25.25V37.625C12 38.719 12.4346 39.7682 13.2082 40.5418C13.9818 41.3154 15.031 41.75 16.125 41.75H40.875C41.969 41.75 43.0182 41.3154 43.7918 40.5418C44.5654 39.7682 45 38.719 45 37.625V25.25C45 24.156 44.5654 23.1068 43.7918 22.3332C43.0182 21.5596 41.969 21.125 40.875 21.125H38.4578C37.3638 21.1248 36.3148 20.69 35.5414 19.9164L33.8336 18.2086C33.0602 17.435 32.0112 17.0002 30.9172 17H26.0828C24.9888 17.0002 23.9398 17.435 23.1664 18.2086L21.4586 19.9164C20.6852 20.69 19.6362 21.1248 18.5422 21.125H16.125Z" fill="white"></path>
	<path d="M28.5 35.5625C27.1325 35.5625 25.821 35.0193 24.854 34.0523C23.887 33.0853 23.3438 31.7738 23.3438 30.4063C23.3438 29.0387 23.887 27.7272 24.854 26.7602C25.821 25.7932 27.1325 25.25 28.5 25.25C29.8675 25.25 31.179 25.7932 32.146 26.7602C33.113 27.7272 33.6562 29.0387 33.6562 30.4063C33.6562 31.7738 33.113 33.0853 32.146 34.0523C31.179 35.0193 29.8675 35.5625 28.5 35.5625ZM28.5 37.625C30.4145 37.625 32.2506 36.8645 33.6044 35.5107C34.9582 34.1569 35.7188 32.3208 35.7188 30.4063C35.7188 28.4917 34.9582 26.6556 33.6044 25.3018C32.2506 23.948 30.4145 23.1875 28.5 23.1875C26.5855 23.1875 24.7494 23.948 23.3956 25.3018C22.0418 26.6556 21.2812 28.4917 21.2812 30.4063C21.2812 32.3208 22.0418 34.1569 23.3956 35.5107C24.7494 36.8645 26.5855 37.625 28.5 37.625ZM18.1875 26.2813C18.1875 26.5548 18.0789 26.8171 17.8855 27.0105C17.6921 27.2039 17.4298 27.3125 17.1562 27.3125C16.8827 27.3125 16.6204 27.2039 16.427 27.0105C16.2336 26.8171 16.125 26.5548 16.125 26.2813C16.125 26.0077 16.2336 25.7454 16.427 25.552C16.6204 25.3586 16.8827 25.25 17.1562 25.25C17.4298 25.25 17.6921 25.3586 17.8855 25.552C18.0789 25.7454 18.1875 26.0077 18.1875 26.2813Z" fill="white"></path>
</symbol>

<symbol id="in-person" viewBox="0 0 25 24" fill="none" >
	<path fill-rule="evenodd" clip-rule="evenodd" d="M6.45106 19.6778C6.09385 19.6778 5.80849 19.463 5.2416 19.0356C5.07038 18.9063 4.8793 18.7638 4.65145 18.5977L1.61446 19.5898L1.60431 19.5936L1.37307 19.6685C0.55168 19.9741 0 20.7663 0 21.641V23.3759C0 23.4584 0.0672162 23.5252 0.150074 23.5252H1.80131V22.3529C1.80131 22.1872 1.93447 22.054 2.10061 22.054C2.26717 22.054 2.40034 22.1872 2.40034 22.3529V23.5252H10.5014V22.3529C10.5014 22.1872 10.6354 22.054 10.8015 22.054C10.9672 22.054 11.1012 22.1872 11.1012 22.3529V23.5252H12.7525C12.8353 23.5252 12.9026 23.4584 12.9026 23.3759V21.641C12.9026 20.7663 12.3509 19.9741 11.5299 19.6685L8.25153 18.5977C8.02325 18.7638 7.83174 18.9071 7.66096 19.0365C7.09406 19.463 6.80913 19.6778 6.45106 19.6778Z" fill="#0A1E46"></path>
	<path fill-rule="evenodd" clip-rule="evenodd" d="M23.149 17.9375H8.50055V18.0546L11.7231 19.1072C11.7269 19.1089 11.7299 19.1098 11.7345 19.111C11.9907 19.2057 12.2266 19.338 12.4367 19.4987H23.1499L23.149 17.9375Z" fill="#0A1E46"></path>
	<path fill-rule="evenodd" clip-rule="evenodd" d="M12.9987 15.7773H9.26374C9.12635 16.2597 8.86509 16.7027 8.50195 17.0599V17.3394H24.9999V15.7782H15.0579L12.9987 15.7773Z" fill="#0A1E46"></path>
	<path fill-rule="evenodd" clip-rule="evenodd" d="M4.02293 11.1266C3.344 12.2292 3.65303 12.9085 3.92654 13.508C4.00433 13.6783 4.07661 13.8398 4.12269 14.0013C4.12946 14.0275 4.13369 14.0546 4.13369 14.0816V14.9833C4.13369 15.6382 4.41439 16.2651 4.9035 16.7031C5.32624 17.0814 5.87116 17.2907 6.43933 17.2945H6.45201C7.02187 17.2945 7.5689 17.0865 7.99502 16.7098L8.00475 16.7001C8.49217 16.2621 8.77203 15.6373 8.77203 14.9833V14.0237C8.77203 13.962 8.79063 13.902 8.82614 13.8516C10.0517 12.1171 8.91745 11.2349 8.86926 11.1972C8.80204 11.1461 8.75808 11.0687 8.75004 10.985C8.74243 10.9009 8.76949 10.8168 8.82741 10.7542L9.35583 10.1831H7.93246C7.90878 10.1831 7.88638 10.1805 7.86313 10.1746C7.24212 10.0284 6.71876 9.96875 6.27953 9.96875C4.41185 9.96875 4.05632 11.0442 4.05252 11.0577C4.04702 11.0823 4.03645 11.1064 4.02293 11.1266Z" fill="#0A1E46"></path>
	<path fill-rule="evenodd" clip-rule="evenodd" d="M6.43634 17.8912C5.92905 17.8883 5.43613 17.7547 5.00366 17.5078V18.1144C5.23871 18.2848 5.43824 18.4349 5.60353 18.5596C6.03473 18.8847 6.29514 19.08 6.45198 19.08C6.60882 19.08 6.86796 18.8838 7.3 18.5596C7.46572 18.4349 7.66525 18.2848 7.90115 18.1136V17.5082C7.46361 17.7577 6.96604 17.8904 6.45367 17.8904L6.43634 17.8912Z" fill="#0A1E46"></path>
	<path fill-rule="evenodd" clip-rule="evenodd" d="M4.40627 17.9375H1.81824V18.9009L4.40627 18.0554V17.9375Z" fill="#0A1E46"></path>
	<path fill-rule="evenodd" clip-rule="evenodd" d="M3.64447 15.7773H0V17.3385H4.40372V17.057C4.041 16.701 3.78102 16.2588 3.64447 15.7773Z" fill="#0A1E46"></path>
	<path fill-rule="evenodd" clip-rule="evenodd" d="M12.1432 2.91652C12.1432 3.08181 12.0092 3.2154 11.8434 3.2154H6.35834C6.19263 3.2154 6.05735 3.08181 6.05735 2.91652C6.05735 2.75165 6.19178 2.61764 6.3575 2.61764H11.8426C12.0092 2.61764 12.1432 2.75165 12.1432 2.91652ZM4.85168 0.199125V5.63349C4.85168 5.74383 4.94131 5.83387 5.05206 5.83387H9.58852C9.85528 5.83387 10.051 5.92096 10.1723 6.09217L11.698 8.25323C11.7128 8.27564 11.8062 8.28113 11.8929 8.22914C11.9728 8.18348 12.0083 8.09851 11.9863 8.00931L11.9407 7.81992C11.9187 7.72903 11.8523 7.3921 11.8058 7.06828C11.7124 6.43163 11.7424 6.26127 11.8379 6.13867C11.9935 5.94209 12.2171 5.83303 12.4683 5.83303H13.1484C13.2596 5.83303 13.3492 5.74298 13.3492 5.63349V0.199971C13.3492 0.0896349 13.2588 1.32352e-05 13.148 1.32352e-05H5.05291C4.94215 -0.00125502 4.85168 0.0887893 4.85168 0.199125ZM6.35834 4.26845H11.8434C12.0092 4.26845 12.1432 4.40119 12.1432 4.56691C12.1432 4.7322 12.0092 4.86579 11.8434 4.86579H6.35834C6.19263 4.86579 6.05735 4.7322 6.05735 4.56691C6.05819 4.40119 6.19263 4.26845 6.35834 4.26845ZM11.8434 1.56501H6.35834C6.19263 1.56501 6.05735 1.43142 6.05735 1.26613C6.05735 1.10084 6.19178 0.96725 6.3575 0.96725H11.8426C12.0083 0.96725 12.1427 1.10084 12.1427 1.26613C12.1432 1.43142 12.0092 1.56501 11.8434 1.56501Z" fill="#0A1E46"></path>
	<path fill-rule="evenodd" clip-rule="evenodd" d="M16.7407 1.40719C15.9646 2.07301 15.661 2.86777 15.8352 3.76948C15.8411 3.79865 15.8462 3.8274 15.8529 3.85657C15.8796 3.67394 15.9045 3.53951 15.9113 3.50146C15.9358 3.36914 16.047 3.27022 16.181 3.25881C19.3359 2.99544 20.2199 2.14361 20.2275 2.13558C20.2989 2.05906 20.4059 2.02524 20.5086 2.04765C21.1846 2.1918 21.4928 2.93583 21.6306 3.65999C21.6217 2.99375 21.4332 2.26705 21.3004 1.88616C20.7065 1.0728 20.0178 0.616238 19.2522 0.530844C19.1609 0.520275 19.0696 0.515625 18.9808 0.515625C17.7637 0.515625 16.7513 1.39789 16.7407 1.40719Z" fill="#0A1E46"></path>
	<path fill-rule="evenodd" clip-rule="evenodd" d="M16.3831 5.03521C16.5475 5.88239 16.8781 6.57442 17.3161 7.04451L17.3228 7.05212C17.7261 7.48163 18.2203 7.72344 18.7585 7.72428H18.7631C19.2839 7.72428 19.7637 7.49981 20.1611 7.09736C20.1679 7.08975 20.1747 7.08214 20.1823 7.07537C20.627 6.61416 20.9652 5.92805 21.1372 5.08467C21.1626 4.37954 21.0362 2.97645 20.5057 2.67969C20.1277 2.95828 19.0142 3.5907 16.463 3.83547C16.408 4.18761 16.3408 4.73845 16.3814 5.03437L16.3831 5.03521Z" fill="#0A1E46"></path>
	<path fill-rule="evenodd" clip-rule="evenodd" d="M17.4011 8.25914L18.7441 10.3082L20.0872 8.25914V7.92771C19.6877 8.18389 19.2408 8.32297 18.7644 8.32297H18.7576C18.2673 8.32128 17.8073 8.17332 17.4011 7.90234V8.25914Z" fill="#0A1E46"></path>
	<path fill-rule="evenodd" clip-rule="evenodd" d="M21.7563 9.70689L21.7466 11.8185C21.7466 11.8578 21.739 11.8959 21.7233 11.9318L20.3773 15.1768H22.1292V11.9415C22.1292 11.7766 22.2636 11.6431 22.4293 11.6431C22.595 11.6431 22.7295 11.7766 22.7295 11.9415V15.1768H24.1875V11.2351C24.1875 9.82864 22.7857 8.68046 21.0457 8.64453L21.6959 9.52891C21.736 9.58091 21.7563 9.64305 21.7563 9.70689Z" fill="#0A1E46"></path>
	<path fill-rule="evenodd" clip-rule="evenodd" d="M20.5989 9.04297L19.1265 15.177H19.7323L21.1502 11.7582L21.1582 9.80306L20.5989 9.04297Z" fill="#0A1E46"></path>
	<path fill-rule="evenodd" clip-rule="evenodd" d="M17.6849 9.78906L18.7422 14.1953L19.7999 9.78906L18.9933 11.0184C18.9383 11.1034 18.8432 11.1537 18.7422 11.1537C18.6411 11.1537 18.5464 11.1025 18.4915 11.0184L17.6849 9.78906Z" fill="#0A1E46"></path>
	<path fill-rule="evenodd" clip-rule="evenodd" d="M16.5157 11.5735L17.7708 15.177H18.3622L16.8902 9.04297L16.3411 9.79038L16.5157 11.5735Z" fill="#0A1E46"></path>
	<path fill-rule="evenodd" clip-rule="evenodd" d="M16.4407 8.64453C14.7007 8.68046 13.2997 9.82864 13.2997 11.2351V15.1763H14.7574V11.9415C14.7574 11.7762 14.8914 11.6426 15.0571 11.6426C15.2236 11.6426 15.3572 11.7762 15.3572 11.9415V15.1763H17.1366L15.9389 11.7344C15.9313 11.712 15.9262 11.6891 15.9237 11.6659L15.7339 9.73394C15.7263 9.66038 15.7466 9.58767 15.7897 9.52806L16.4407 8.64453Z" fill="#0A1E46"></path>
</symbol>

<symbol id="virtual-service" viewBox="0 0 25 25" fill="none">
		<path d="M16.665 22.8595H14.5817V20.7812H10.415V22.8595H8.33171C7.75658 22.8595 7.29004 23.3252 7.29004 23.8986C7.29004 24.472 7.75658 24.9377 8.33171 24.9377H16.665C17.241 24.9377 17.7067 24.472 17.7067 23.8986C17.7067 23.3252 17.241 22.8595 16.665 22.8595Z" fill="#0A1E46"></path>
		<path d="M24.2188 9.87142C23.7603 9.87142 23.3022 9.72594 22.9167 9.46595V18.7035H2.08333V6.23449H10.9375V4.15625H1.82292C0.822815 4.15625 0 4.97737 0 5.97493V18.9631C0 19.9607 0.822815 20.7814 1.82292 20.7814H23.1771C24.1772 20.7814 25 19.9607 25 18.9631V9.73612C24.7502 9.82943 24.4898 9.87142 24.2188 9.87142Z" fill="#0A1E46"></path>
		<path d="M13.5417 12.4689C13.5417 13.6166 12.609 14.5471 11.4583 14.5471C10.3077 14.5471 9.375 13.6166 9.375 12.4689C9.375 11.3212 10.3077 10.3906 11.4583 10.3906C12.609 10.3906 13.5417 11.3212 13.5417 12.4689Z" fill="#0A1E46"></path>
		<path d="M15.6234 18.4433V18.7033H7.29004V18.4433C7.29004 16.8638 8.57134 15.5859 10.1546 15.5859H12.7588C14.3421 15.5859 15.6234 16.8638 15.6234 18.4433Z" fill="#0A1E46"></path>
		<path d="M24.2188 8.31287C24.0533 8.31287 23.8875 8.25986 23.7501 8.15679L21.858 6.74189C21.7376 7.6279 20.9729 8.31287 20.0521 8.31287H14.3229C13.3177 8.31287 12.5 7.49727 12.5 6.4942V1.559C12.5 0.839678 12.9771 0.000321631 14.3229 0.000321631H20.0521C21.0229 0.000321631 21.8186 0.760789 21.872 1.71551L23.7187 0.181002C23.9499 -0.0132505 24.2752 -0.0548154 24.55 0.0741205C24.8248 0.203056 25 0.477045 25 0.779451V7.53332C25 7.82851 24.8325 8.09869 24.5678 8.23059C24.4571 8.28573 24.3375 8.31287 24.2188 8.31287Z" fill="#0A1E46"></path>
</symbol>

<symbol id="phone" viewBox="0 0 30 24" fill="none">
		<path d="M27.5 0.75H2.5C1.125 0.75 0 1.875 0 3.25V20.75C0 22.125 1.125 23.25 2.5 23.25H27.5C28.875 23.25 29.9875 22.125 29.9875 20.75L30 3.25C30 1.875 28.875 0.75 27.5 0.75ZM27.5 20.75H2.5V3.25H27.5V20.75ZM23.7625 19.4875L26.25 17L24.3625 14.5H22.3125C22.0375 13.7125 21.875 12.875 21.875 12C21.875 11.125 22.0375 10.2875 22.3125 9.5H24.3625L26.25 7L23.7625 4.5125C22.1039 5.75103 20.9035 7.50535 20.35 9.5C20.125 10.3 20 11.1375 20 12C20 12.8625 20.125 13.7 20.35 14.5C20.9068 16.4931 22.1065 18.2465 23.7625 19.4875ZM11.25 12C13.3125 12 15 10.3125 15 8.25C15 6.1875 13.3125 4.5 11.25 4.5C9.1875 4.5 7.5 6.1875 7.5 8.25C7.5 10.3125 9.1875 12 11.25 12ZM11.25 7C11.9375 7 12.5 7.5625 12.5 8.25C12.5 8.9375 11.9375 9.5 11.25 9.5C10.5625 9.5 10 8.9375 10 8.25C10 7.5625 10.5625 7 11.25 7ZM18.75 17.7375C18.75 14.6125 13.7875 13.2625 11.25 13.2625C8.7125 13.2625 3.75 14.6125 3.75 17.7375V19.5H18.75V17.7375ZM6.85 17C7.775 16.375 9.625 15.75 11.25 15.75C12.875 15.75 14.7125 16.3625 15.65 17H6.85Z" fill="#0A1E46"></path>
</symbol>

<symbol id="teleconference" viewBox="0 0 30 26" fill="none" >
	<mask id="mask0_9401_206377" style="mask-type:luminance" maskUnits="userSpaceOnUse" x="0" y="0" width="30" height="22">
	<path d="M0 0H30V21.039H0V0Z" fill="white"></path>
	</mask>
	<g mask="url(#mask0_9401_206377)">
	<path d="M29.0001 17.4873C29.0001 17.7633 28.7759 17.987 28.4999 17.987H1.5001C1.22362 17.987 0.999899 17.7633 0.999899 17.4873V1.49909C0.999899 1.22311 1.22362 0.999391 1.5001 0.999391H28.4999C28.7759 0.999391 29.0001 1.22311 29.0001 1.49909V17.4873ZM15 19.9858C14.724 19.9858 14.4998 19.7621 14.4998 19.4861C14.4998 19.2101 14.724 18.9864 15 18.9864C15.276 18.9864 15.5002 19.2101 15.5002 19.4861C15.5002 19.7621 15.276 19.9858 15 19.9858ZM28.4999 0H1.5001C0.672687 0 0 0.672179 0 1.49909V19.4861C0 20.3125 0.672687 20.9847 1.5001 20.9847H28.4999C29.3273 20.9847 30 20.3125 30 19.4861V1.49909C30 0.672179 29.3273 0 28.4999 0Z" fill="#0A1E46"></path>
	</g>
	<path d="M4.99996 7.49564C4.99996 6.66822 5.67163 5.99706 6.50006 5.99706H8.24976C7.42183 5.99706 6.75016 5.32589 6.75016 4.49797C6.75016 3.67005 7.42183 2.99888 8.24976 2.99888C9.07819 2.99888 9.74986 3.67005 9.74986 4.49797C9.74986 5.32589 9.07819 5.99706 8.24976 5.99706H9.99996C10.8284 5.99706 11.5001 6.66822 11.5001 7.49564V7.99533H4.99996V7.49564ZM1.99976 8.99472H14.4998V2H1.99976V8.99472Z" fill="#0A1E46"></path>
	<path d="M18.4999 7.49564C18.4999 6.66822 19.1716 5.99706 20 5.99706H21.7502C20.9218 5.99706 20.2501 5.32589 20.2501 4.49797C20.2501 3.67005 20.9218 2.99888 21.7502 2.99888C22.5782 2.99888 23.2498 3.67005 23.2498 4.49797C23.2498 5.32589 22.5782 5.99706 21.7502 5.99706H23.4999C24.3284 5.99706 25 6.66822 25 7.49564V7.99533H18.4999V7.49564ZM15.5002 8.99472H28.0002V2H15.5002V8.99472Z" fill="#0A1E46"></path>
	<path d="M4.99996 15.4883C4.99996 14.6604 5.67163 13.9892 6.50006 13.9892H8.24976C7.42183 13.9892 6.75016 13.3181 6.75016 12.4902C6.75016 11.6627 7.42183 10.9916 8.24976 10.9916C9.07819 10.9916 9.74986 11.6627 9.74986 12.4902C9.74986 13.3181 9.07819 13.9892 8.24976 13.9892H9.99996C10.8284 13.9892 11.5001 14.6604 11.5001 15.4883V15.9875H4.99996V15.4883ZM1.99976 16.9869H14.4998V9.99219H1.99976V16.9869Z" fill="#0A1E46"></path>
	<path d="M18.4999 15.4883C18.4999 14.6604 19.1716 13.9892 20 13.9892H21.7502C20.9218 13.9892 20.2501 13.3181 20.2501 12.4902C20.2501 11.6627 20.9218 10.9916 21.7502 10.9916C22.5782 10.9916 23.2498 11.6627 23.2498 12.4902C23.2498 13.3181 22.5782 13.9892 21.7502 13.9892H23.4999C24.3284 13.9892 25 14.6604 25 15.4883V15.9875H18.4999V15.4883ZM15.5002 16.9869H28.0002V9.99219H15.5002V16.9869Z" fill="#0A1E46"></path>
	<mask id="mask1_9401_206377" style="mask-type:luminance" maskUnits="userSpaceOnUse" x="8" y="20" width="14" height="6">
	<path d="M8.89624 20.9453H21.104V25.9778H8.89624V20.9453Z" fill="white"></path>
	</mask>
	<g mask="url(#mask1_9401_206377)">
	<path d="M17.25 20.9844H12.7502L12.0831 24.9814H9.00024V25.9808H21V24.9814H17.9166L17.25 20.9844Z" fill="#0A1E46"></path>
	</g>
</symbol>

<symbol id="fill-question" viewBox="0 0 15 16" fill="none">
	<path d="M7.5 0.203125C3.3645 0.203125 0 3.56763 0 7.70312C0 11.8386 3.3645 15.2031 7.5 15.2031C11.6355 15.2031 15 11.8386 15 7.70312C15 3.56763 11.6355 0.203125 7.5 0.203125ZM8.25 12.2031H6.75V10.7031H8.25V12.2031ZM8.982 8.53938C8.835 8.65788 8.69325 8.77112 8.58075 8.88363C8.27475 9.18888 8.25075 9.46637 8.25 9.47837V9.57812H6.75V9.45288C6.75 9.36438 6.77175 8.57013 7.5195 7.82238C7.66575 7.67613 7.84725 7.52763 8.03775 7.37313C8.58825 6.92688 8.94975 6.60138 8.94975 6.15287C8.94104 5.77399 8.78438 5.41356 8.5133 5.14871C8.24222 4.88386 7.87824 4.73563 7.49926 4.73573C7.12027 4.73583 6.75638 4.88425 6.48543 5.14924C6.21449 5.41423 6.05802 5.77474 6.0495 6.15363H4.5495C4.5495 4.52688 5.87325 3.20312 7.5 3.20312C9.12675 3.20312 10.4505 4.52688 10.4505 6.15363C10.4505 7.35138 9.56625 8.06613 8.982 8.53938Z" fill="#888575"></path>
</symbol>

<symbol id="revert" viewBox="0 0 22 20" fill="none">
	<path d="M9.75 19H14.4375C16.178 19 17.8472 18.2888 19.0779 17.023C20.3086 15.7571 21 14.0402 21 12.25C21 10.4598 20.3086 8.7429 19.0779 7.47703C17.8472 6.21116 16.4905 5.5 14.75 5.5H2.5625M5.375 1L1 5.5L5.375 10" stroke="black" stroke-width="2" stroke-linecap="round" stroke-linejoin="round"></path>
</symbol>

<symbol id="download-file" viewBox="0 0 16 20" fill="none">
	<path d="M0 0V20H16V5.07692L15.76 4.84615L10.96 0.230769L10.72 0H0ZM1.6 1.53846H9.6V6.15385H14.4V18.4615H1.6V1.53846ZM11.2 2.61538L13.28 4.61538H11.2V2.61538ZM7.2 7.69231V11.5385H4.8L8 14.6154L11.2 11.5385H8.8V7.69231H7.2ZM4.8 15.3846V16.9231H11.2V15.3846H4.8Z" fill="black"></path>
</symbol>

<symbol id="green-dot" viewBox="0 0 10 10"  fill="none">
	<ellipse cx="4.99152" cy="5" rx="4.99152" ry="5" fill="#15974F"/>
</symbol>

<symbol  id="yellow-dot" viewBox="0 0 10 10" fill="none">
	<ellipse cx="4.99152" cy="5" rx="4.99152" ry="5" fill="#FFC700"/>
</symbol>

<symbol id="date-field" viewBox="0 0 20 20" fill="none">
	<path d="M18.75 1.87104L13.7456 1.87106V0.625146C13.7456 0.279753 13.4659 0 13.1206 0C12.7753 0 12.4956 0.279753 12.4956 0.625146V1.87075H7.49563V0.625146C7.49563 0.279753 7.21594 0 6.87063 0C6.52531 0 6.24563 0.279753 6.24563 0.625146V1.87075H1.25C0.559687 1.87075 0 2.43057 0 3.12104V18.7497C0 19.4402 0.559687 20 1.25 20H18.75C19.4403 20 20 19.4402 20 18.7497V3.12104C20 2.43086 19.4403 1.87104 18.75 1.87104ZM18.75 18.7497H1.25V3.12104H6.24563V3.75088C6.24563 4.09625 6.52531 4.37603 6.87063 4.37603C7.21594 4.37603 7.49563 4.09625 7.49563 3.75088V3.12136H12.4956V3.75119C12.4956 4.09658 12.7753 4.37634 13.1206 4.37634C13.4659 4.37634 13.7456 4.09658 13.7456 3.75119V3.12136H18.75V18.7497ZM14.375 9.99795H15.625C15.97 9.99795 16.25 9.71788 16.25 9.3728V8.12251C16.25 7.77743 15.97 7.49736 15.625 7.49736H14.375C14.03 7.49736 13.75 7.77743 13.75 8.12251V9.3728C13.75 9.71788 14.03 9.99795 14.375 9.99795ZM14.375 14.9988H15.625C15.97 14.9988 16.25 14.7191 16.25 14.3737V13.1234C16.25 12.7783 15.97 12.4982 15.625 12.4982H14.375C14.03 12.4982 13.75 12.7783 13.75 13.1234V14.3737C13.75 14.7194 14.03 14.9988 14.375 14.9988ZM10.625 12.4982H9.375C9.03 12.4982 8.75 12.7783 8.75 13.1234V14.3737C8.75 14.7191 9.03 14.9988 9.375 14.9988H10.625C10.97 14.9988 11.25 14.7191 11.25 14.3737V13.1234C11.25 12.7786 10.97 12.4982 10.625 12.4982ZM10.625 7.49736H9.375C9.03 7.49736 8.75 7.77743 8.75 8.12251V9.3728C8.75 9.71788 9.03 9.99795 9.375 9.99795H10.625C10.97 9.99795 11.25 9.71788 11.25 9.3728V8.12251C11.25 7.77712 10.97 7.49736 10.625 7.49736ZM5.625 7.49736H4.375C4.03 7.49736 3.75 7.77743 3.75 8.12251V9.3728C3.75 9.71788 4.03 9.99795 4.375 9.99795H5.625C5.97 9.99795 6.25 9.71788 6.25 9.3728V8.12251C6.25 7.77712 5.97 7.49736 5.625 7.49736ZM5.625 12.4982H4.375C4.03 12.4982 3.75 12.7783 3.75 13.1234V14.3737C3.75 14.7191 4.03 14.9988 4.375 14.9988H5.625C5.97 14.9988 6.25 14.7191 6.25 14.3737V13.1234C6.25 12.7786 5.97 12.4982 5.625 12.4982Z" fill="black"></path>
</symbol>

<symbol id="red-dot" viewBox="0 0 10 10" fill="none">
	<ellipse cx="4.99152" cy="5" rx="4.99152" ry="5" fill="#D42E2E"/>
</symbol>

</svg>