<svg width="124" height="19" viewBox="0 0 124 19" fill="none" xmlns="http://www.w3.org/2000/svg">
<path d="M0.14671 0.688077C0.120911 0.70742 0.101562 4.69869 0.101562 9.55398V18.3748H8.12493H16.1483L16.2837 17.9685C16.3547 17.7493 16.4385 17.4656 16.4708 17.3431C16.5095 17.2206 16.6901 16.6209 16.8707 16.0213C17.0577 15.4152 17.2254 14.8606 17.2383 14.7768L17.2705 14.635H10.8144H4.35833V13.023V11.411H9.84053H15.3227V9.54109V7.67119H9.84053H4.35833L4.37123 6.03986L4.39058 4.41498L10.2727 4.39564L16.1547 4.38274L16.4127 3.55741C16.5546 3.10605 16.7481 2.47415 16.8384 2.15821C16.9352 1.83581 17.0641 1.4038 17.1351 1.19746C17.1996 0.984681 17.2576 0.7719 17.2576 0.726764C17.2576 0.655837 15.7033 0.642941 8.72475 0.642941C4.0294 0.642941 0.166059 0.662285 0.14671 0.688077Z" fill="white"/>
<path d="M24.9335 0.713635C23.4113 0.932864 21.9795 1.65503 20.954 2.71894C19.8511 3.86023 19.0514 5.54958 18.7031 7.44528C18.5289 8.41892 18.5354 10.3468 18.7224 11.3785C19.2255 14.1447 20.6186 16.3434 22.6051 17.4976C23.1598 17.82 23.6887 18.0263 24.3852 18.2004C24.9657 18.3423 24.9915 18.3423 30.6349 18.3423H36.2977L36.6138 17.3106C36.7879 16.7432 36.9943 16.0726 37.0652 15.8276C37.1362 15.5761 37.2523 15.2086 37.3168 15.0087L37.4329 14.6412L31.6862 14.6218C25.9718 14.6025 25.9331 14.6025 25.5655 14.4606C24.1466 13.919 23.2823 12.5327 23.0566 10.4113C22.818 8.15455 23.6564 5.75592 24.9915 4.90479C25.1656 4.78873 25.4752 4.63398 25.6881 4.5566C26.0621 4.41475 26.0944 4.41475 31.1832 4.38251L36.3042 4.35027L36.4203 3.99563C36.4783 3.80219 36.7234 3.0091 36.9556 2.24179C37.1942 1.47449 37.4006 0.797458 37.42 0.739426C37.4587 0.655603 36.8395 0.642707 31.3767 0.649155C28.0293 0.655603 25.1269 0.681395 24.9335 0.713635Z" fill="white"/>
<path d="M39.2971 0.688077C39.2713 0.70742 39.252 4.69869 39.252 9.55398V18.3748H47.0496H54.8472L55.0536 17.7106C55.1632 17.3495 55.3309 16.8079 55.4212 16.5049C55.5115 16.2018 55.6663 15.686 55.7695 15.3571C55.8727 15.0283 55.9565 14.7317 55.9565 14.6994C55.9565 14.6543 53.7895 14.635 49.7326 14.635H43.5087V7.63895V0.642941H41.4255C40.2774 0.642941 39.3164 0.662285 39.2971 0.688077Z" fill="white"/>
<path d="M57.8262 9.50885V18.3748H59.9223H62.0184V9.50885V0.642941H59.9223H57.8262V9.50885Z" fill="white"/>
<path d="M65.502 9.50885V18.3748H67.5981H69.6942V15.6086V12.836L74.1961 12.8166C78.4786 12.7908 78.7237 12.7844 79.3687 12.649C81.2455 12.2686 82.4774 11.5077 83.3675 10.1794C84.0898 9.09618 84.3736 8.03872 84.3156 6.60728C84.2511 4.93082 83.7029 3.66702 82.5355 2.51284C81.6519 1.63592 80.8908 1.21036 79.5622 0.849274L78.9495 0.675179L72.2289 0.655836L65.502 0.636492V9.50885ZM78.7366 4.59552C79.1688 4.8083 79.4525 5.11136 79.6847 5.60785C79.8331 5.9238 79.8524 6.03986 79.8524 6.67176C79.8524 7.56802 79.7105 7.96779 79.2204 8.47073C78.6592 9.03815 78.8011 9.02525 73.8994 9.02525H69.6942V6.74913C69.6942 5.49179 69.7136 4.44722 69.7394 4.42143C69.7652 4.39564 71.7194 4.38919 74.08 4.39564L78.369 4.41498L78.7366 4.59552Z" fill="white"/>
<path d="M90.7194 0.713867C87.9847 1.12009 86.1272 2.66759 85.6177 4.95661C85.2372 6.6911 85.8112 8.561 87.1011 9.74742C87.8751 10.4567 88.7393 10.9016 89.9454 11.1982L90.6226 11.3659L94.6536 11.4045L98.6847 11.4432L99.0394 11.6431C99.6779 11.9977 100.02 12.6941 99.8779 13.326C99.7682 13.8225 99.5102 14.132 98.9943 14.3899L98.5557 14.6027L92.5898 14.6221L86.6238 14.6414L86.095 16.3952C85.8047 17.3624 85.5467 18.2007 85.5274 18.2651C85.4822 18.3683 85.8305 18.3748 92.1899 18.3748C98.6911 18.3748 98.9233 18.3683 99.5876 18.2458C100.91 17.9879 101.871 17.5236 102.69 16.7434C103.535 15.9503 104.031 15.0218 104.231 13.8934C104.354 13.1842 104.354 12.9263 104.231 12.2234C104.025 11.0499 103.606 10.2375 102.78 9.41213C102.006 8.64482 101.265 8.22571 100.039 7.87752L99.4586 7.70987L95.3954 7.67763L91.3321 7.63895L90.8935 7.42617C90.384 7.1747 90.126 6.87164 90.0099 6.3816C89.8358 5.64654 90.2034 4.96305 90.9902 4.60197L91.3966 4.41498L97.0981 4.38274L102.8 4.3505L102.98 3.77019C103.696 1.41669 103.877 0.810586 103.877 0.733211C103.877 0.655836 102.845 0.64294 97.4786 0.649388C93.9571 0.655836 90.9129 0.681627 90.7194 0.713867Z" fill="white"/>
<path d="M106.844 9.50885V18.3748H114.861H122.878L123.413 16.5822C123.716 15.6021 123.968 14.7575 123.987 14.7123C124.006 14.6543 122.697 14.635 117.557 14.635H111.101V13.023V11.411H116.583H122.065V9.54109V7.67119H116.583H111.101V6.02696V4.38274H116.989H122.884L123.013 3.94428C123.484 2.40323 124 0.688077 124 0.668733C124 0.655837 120.143 0.642941 115.422 0.642941H106.844V9.50885Z" fill="white"/>
</svg>
