<svg width="49" height="50" viewBox="0 0 49 50" fill="none" xmlns="http://www.w3.org/2000/svg">
<path d="M24.596 0.0130375C23.5834 0.1291 22.932 0.341882 22.2096 0.799685C20.0361 2.1731 19.2944 4.9586 20.4811 7.27341C21.1777 8.63392 22.3966 9.54953 23.9381 9.86548C26.06 10.3039 28.3303 9.19489 29.3236 7.22183C29.7234 6.43518 29.8202 5.97093 29.8137 4.93926C29.8137 4.05589 29.8008 3.97207 29.6073 3.43689C29.1172 2.06348 28.311 1.14787 27.0468 0.522424C26.3245 0.167788 25.2538 -0.0578898 24.596 0.0130375Z" fill="white"/>
<path d="M35.2505 2.07018C35.3343 2.3152 35.3601 2.65694 35.3601 3.52097C35.3666 4.5204 35.3472 4.70739 35.2182 5.16519C35.0248 5.81643 34.5152 6.85455 34.1411 7.35104C33.6445 8.02162 31.8386 9.89152 28.33 13.3863L24.9375 16.7715L24.9826 17.8999C25.0794 20.479 25.189 22.4779 25.2213 22.5101C25.2664 22.5617 31.7032 17.2035 32.4255 16.5136C33.4381 15.5528 35.5407 13.3025 35.9535 12.748C37.2305 11.0328 37.8948 8.77603 37.7143 6.75783C37.5659 5.10071 36.8113 3.46938 35.6181 2.23783L35.1473 1.74778L35.2505 2.07018Z" fill="white"/>
<path d="M14.1338 2.23125C13.1277 3.3016 12.515 4.44289 12.1796 5.84209C11.9796 6.69322 11.9732 8.09887 12.1731 9.04671C12.4182 10.2396 12.9342 11.4647 13.5727 12.4254C14.2822 13.4764 16.3654 15.7139 18.21 17.4032C18.9517 18.0867 19.7257 18.7895 19.9192 18.9701C20.1127 19.1506 20.9576 19.9244 21.7896 20.6852C22.6216 21.4461 23.4213 22.1747 23.5632 22.3037C23.7051 22.4326 23.8406 22.5422 23.8599 22.5422C23.8793 22.5422 23.9179 22.2714 23.9437 21.9426C23.9695 21.6202 24.0405 20.7562 24.1114 20.0275C24.1824 19.2989 24.2791 18.2544 24.3307 17.7063L24.421 16.7069L23.6664 15.9331C20.4996 12.664 16.5202 8.45995 15.9526 7.77647C15.2754 6.96403 14.7852 6.02263 14.5273 5.0361C14.3144 4.23011 14.2886 2.97276 14.4628 2.30217C14.5208 2.0765 14.5531 1.87661 14.5402 1.86371C14.5208 1.84437 14.3402 2.01202 14.1338 2.23125Z" fill="white"/>
<path d="M6.56827 11.323C5.32349 11.4326 4.03356 11.9613 2.85972 12.8447C2.36955 13.2122 1.69234 13.8828 1.87938 13.8184C1.93742 13.7926 2.22766 13.7281 2.51789 13.67C4.02711 13.367 5.99425 13.8699 7.37448 14.9145C8.10974 15.4755 10.58 17.8548 14.0047 21.3108L16.9522 24.2898L19.6159 24.1544C21.0735 24.077 22.2796 24.0061 22.2925 23.9932C22.3054 23.9867 20.5705 21.8847 18.4421 19.3313C14.6045 14.734 14.095 14.1665 12.9599 13.2574C11.6119 12.1741 9.8447 11.4649 8.14844 11.3166C7.42608 11.2585 7.34223 11.2585 6.56827 11.323Z" fill="white"/>
<path d="M40.4286 12.1289C39.1194 12.3095 37.7262 12.8576 36.475 13.6893C35.7333 14.1794 35.4624 14.4695 29.1095 21.4462C28.1936 22.4585 27.2907 23.4386 27.1101 23.6256C26.7038 24.0576 26.6457 24.1543 26.8005 24.1543C26.9231 24.1543 28.0711 24.2575 30.4639 24.4832C31.2443 24.5606 31.9473 24.6057 32.0247 24.5992C32.1021 24.5863 33.3792 23.4064 34.9593 21.8976C41.2026 15.9139 41.6218 15.5399 42.7763 14.9789C44.0791 14.347 45.9495 14.1794 47.1234 14.5921C47.3233 14.663 46.659 14.0246 46.0656 13.5797C45.0079 12.7802 43.8727 12.303 42.6215 12.1289C41.8218 12.0193 41.2606 12.0193 40.4286 12.1289Z" fill="white"/>
<path d="M3.8272 19.2798C3.27253 19.4346 2.80171 19.6344 2.40828 19.8666C0.795866 20.8402 -0.100635 22.5489 0.00900881 24.4446C0.125103 26.5015 1.47308 28.2166 3.47247 28.8743C4.03359 29.0549 4.15613 29.0742 4.95589 29.0742C5.75565 29.0742 5.87819 29.0549 6.43931 28.8743C8.05817 28.3392 9.21911 27.1592 9.73508 25.5085C9.94147 24.8637 9.95437 23.5097 9.76733 22.8649C9.27716 21.1819 8.15492 19.9955 6.48446 19.4023C6.08458 19.2605 5.89109 19.2347 5.08488 19.2153C4.42057 19.196 4.05939 19.2153 3.8272 19.2798Z" fill="white"/>
<path d="M42.944 20.0601C41.0736 20.4405 39.5322 22.0267 39.1645 23.9482C38.6744 26.5209 40.1771 28.9647 42.7183 29.7062C43.3955 29.9061 44.4855 29.919 45.2014 29.7384C46.9428 29.3 48.3746 27.9008 48.8455 26.1856C49.2647 24.6317 48.8197 22.8069 47.7039 21.5431C47.1363 20.8919 45.9625 20.2277 45.0724 20.0536C44.5371 19.944 43.4858 19.9505 42.944 20.0601Z" fill="white"/>
<path d="M16.0816 25.1601C15.8688 25.36 15.2883 25.921 14.7917 26.4046C11.5798 29.5189 8.35495 32.5624 7.63904 33.1427C6.83283 33.8068 5.96213 34.2453 4.93018 34.5032C4.13043 34.7031 2.92434 34.7224 2.23423 34.5419C1.98914 34.4839 1.79565 34.4516 1.79565 34.4774C1.79565 34.5483 2.69216 35.3221 3.15008 35.6445C5.13657 37.0437 7.60034 37.3532 10.1802 36.5278C11.0122 36.257 12.2763 35.5671 12.9858 34.9997C14.7401 33.5876 16.1332 32.1497 21.4155 26.3208L22.2926 25.3471L20.8673 25.2117C20.0804 25.1344 18.913 25.0247 18.2745 24.9667C17.636 24.9087 16.9717 24.8442 16.7911 24.8248C16.4686 24.7926 16.4686 24.7926 16.0816 25.1601Z" fill="white"/>
<path d="M30.0449 25.2892C29.2452 25.3279 28.239 25.3666 27.8134 25.3731C27.3812 25.3795 26.9427 25.3988 26.833 25.4182L26.6395 25.4569L27.7424 26.7916C28.3551 27.5267 29.5741 28.9968 30.4513 30.0543C31.7476 31.6147 32.3539 32.2852 33.6116 33.5297C34.4694 34.3744 35.4046 35.2642 35.6884 35.5028C37.0364 36.6376 38.3843 37.2824 40.1064 37.637C41.0545 37.824 42.4799 37.7853 43.428 37.5403C44.2084 37.334 45.3177 36.8052 45.9627 36.3216C46.4658 35.9477 47.1559 35.3093 47.1107 35.2642C47.0978 35.2513 46.8656 35.2835 46.5947 35.3351C45.3564 35.593 43.8278 35.3674 42.596 34.7484C41.5705 34.2261 41.2222 33.9101 36.5204 29.2354L32.4571 25.1861L31.9734 25.199C31.7154 25.199 30.8447 25.2441 30.0449 25.2892Z" fill="white"/>
<path d="M19.4354 30.4732C14.9722 34.1872 13.8435 35.2124 13.0631 36.2441C12.2634 37.308 11.5668 38.9458 11.3282 40.3385C11.2121 41.022 11.2314 42.318 11.3669 43.008C11.5733 44.0783 12.0376 45.1164 12.7149 46.0256C13.0954 46.5414 13.7275 47.2572 13.7662 47.2185C13.7855 47.2056 13.7468 46.9799 13.6888 46.7155C13.5404 46.0578 13.5404 44.9617 13.6888 44.2782C13.9145 43.2143 14.3531 42.3051 15.0561 41.4282C15.5914 40.7576 18.4937 37.7787 21.3961 34.9094L24.0598 32.2786L24.0211 31.9111C24.0017 31.7047 23.9501 30.6924 23.9114 29.6672C23.8728 28.6355 23.8212 27.591 23.8018 27.3395L23.7567 26.8817L19.4354 30.4732Z" fill="white"/>
<path d="M25.0781 27.0042C25.0781 27.0493 25.0329 27.52 24.9813 28.0552C24.8975 28.9063 24.7749 30.2346 24.633 31.8402L24.5879 32.3302L24.9039 32.6784C25.0781 32.8654 25.5747 33.3812 26.0068 33.8261C27.7289 35.5864 31.7792 39.8614 32.8176 41.0156C33.7399 42.0408 34.3462 43.2401 34.5655 44.4652C34.6622 45.0455 34.6493 46.0772 34.5333 46.6833C34.4752 46.967 34.443 47.2056 34.4559 47.2185C34.4881 47.2507 35.1524 46.4963 35.5007 46.0321C36.9777 44.0654 37.3517 41.525 36.552 39.0038C36.1973 37.8883 35.6748 36.9018 34.9912 36.0442C34.817 35.825 34.0947 35.1157 33.3788 34.4645C32.6629 33.8132 31.8502 33.0588 31.56 32.7945C31.2762 32.5301 30.212 31.5565 29.2058 30.6344C28.1932 29.7059 26.8711 28.5001 26.2583 27.9392C25.6521 27.3846 25.1361 26.9268 25.1168 26.9268C25.0974 26.9268 25.0781 26.9655 25.0781 27.0042Z" fill="white"/>
<path d="M23.4989 39.0877C21.6737 39.3779 20.158 40.5578 19.4872 42.2085C18.7842 43.9559 19.1712 46.045 20.4611 47.412C21.3189 48.3276 22.1767 48.7789 23.4022 48.9595C24.06 49.0627 24.1632 49.0627 24.8018 48.9595C26.4529 48.7145 27.8202 47.7408 28.5232 46.3158C28.8844 45.5872 29.0069 45.123 29.0585 44.3686C29.2069 41.9764 27.6783 39.855 25.3564 39.2425C24.8598 39.1135 23.873 39.0297 23.4989 39.0877Z" fill="white"/>
</svg>
