<svg aria-label="Eclipse Scheduling Logo" width="124" height="19" viewBox="0 0 124 19" fill="none" xmlns="http://www.w3.org/2000/svg">
                  <path d="M0.14671 0.687832C0.120911 0.707176 0.101562 4.69845 0.101562 9.55374V18.3745H8.12493H16.1483L16.2837 17.9683C16.3547 17.7491 16.4385 17.4654 16.4708 17.3428C16.5095 17.2203 16.6901 16.6207 16.8707 16.021C17.0577 15.4149 17.2254 14.8604 17.2383 14.7766L17.2705 14.6347H10.8144H4.35833V13.0227V11.4107H9.84054H15.3227V9.54084V7.67094H9.84054H4.35833L4.37123 6.03962L4.39058 4.41474L10.2727 4.39539L16.1547 4.3825L16.4127 3.55716C16.5546 3.10581 16.7481 2.47391 16.8384 2.15796C16.9352 1.83556 17.0641 1.40355 17.1351 1.19722C17.1996 0.984438 17.2576 0.771656 17.2576 0.726521C17.2576 0.655592 15.7033 0.642696 8.72474 0.642696C4.0294 0.642696 0.166059 0.662041 0.14671 0.687832Z" fill="black"></path>
                  <path d="M24.9344 0.713634C23.4123 0.932865 21.9805 1.65503 20.955 2.71894C19.8521 3.86023 19.0523 5.54959 18.7041 7.44528C18.5299 8.41892 18.5364 10.3468 18.7234 11.3785C19.2265 14.1447 20.6196 16.3434 22.6061 17.4976C23.1608 17.82 23.6896 18.0263 24.3862 18.2004C24.9667 18.3423 24.9925 18.3423 30.6359 18.3423H36.2987L36.6147 17.3106C36.7889 16.7432 36.9953 16.0726 37.0662 15.8276C37.1372 15.5761 37.2533 15.2086 37.3178 15.0087L37.4339 14.6412L31.6872 14.6218C25.9728 14.6025 25.9341 14.6025 25.5665 14.4606C24.1476 13.919 23.2833 12.5327 23.0576 10.4113C22.8189 8.15455 23.6574 5.75592 24.9925 4.90479C25.1666 4.78873 25.4762 4.63398 25.689 4.5566C26.0631 4.41475 26.0954 4.41475 31.1841 4.38251L36.3052 4.35027L36.4213 3.99563C36.4793 3.80219 36.7244 3.0091 36.9566 2.24179C37.1952 1.47449 37.4016 0.797459 37.421 0.739426C37.4597 0.655603 36.8405 0.642708 31.3776 0.649155C28.0303 0.655603 25.1279 0.681395 24.9344 0.713634Z" fill="black"></path>
                  <path d="M39.2971 0.687832C39.2713 0.707176 39.252 4.69845 39.252 9.55374V18.3745H47.0496H54.8472L55.0536 17.7104C55.1632 17.3493 55.3309 16.8077 55.4212 16.5046C55.5115 16.2016 55.6663 15.6857 55.7695 15.3569C55.8727 15.028 55.9565 14.7314 55.9565 14.6992C55.9565 14.6541 53.7895 14.6347 49.7326 14.6347H43.5087V7.6387V0.642696H41.4255C40.2774 0.642696 39.3164 0.662041 39.2971 0.687832Z" fill="black"></path>
                  <path d="M57.8262 9.5086V18.3745H59.9223H62.0184V9.5086V0.642696H59.9223H57.8262V9.5086Z" fill="black"></path>
                  <path d="M65.502 9.5086V18.3745H67.5981H69.6942V15.6083V12.8357L74.1961 12.8164C78.4786 12.7906 78.7237 12.7842 79.3687 12.6487C81.2455 12.2683 82.4774 11.5075 83.3675 10.1792C84.0898 9.09594 84.3736 8.03848 84.3156 6.60703C84.2511 4.93057 83.7029 3.66678 82.5355 2.5126C81.6519 1.63568 80.8908 1.21011 79.5622 0.84903L78.9495 0.674934L72.2289 0.655592L65.502 0.636248V9.5086ZM78.7366 4.59528C79.1688 4.80806 79.4525 5.11111 79.6847 5.6076C79.8331 5.92355 79.8524 6.03962 79.8524 6.67151C79.8524 7.56778 79.7105 7.96755 79.2204 8.47049C78.6592 9.0379 78.8011 9.02501 73.8994 9.02501H69.6942V6.74889C69.6942 5.49154 69.7136 4.44698 69.7394 4.42118C69.7652 4.39539 71.7194 4.38894 74.08 4.39539L78.369 4.41474L78.7366 4.59528Z" fill="black"></path>
                  <path d="M90.7194 0.713623C87.9847 1.11984 86.1272 2.66735 85.6177 4.95636C85.2372 6.69086 85.8112 8.56076 87.1011 9.74718C87.8751 10.4564 88.7393 10.9014 89.9454 11.198L90.6226 11.3656L94.6537 11.4043L98.6847 11.443L99.0394 11.6429C99.6779 11.9975 100.02 12.6939 99.8779 13.3258C99.7682 13.8223 99.5102 14.1318 98.9943 14.3897L98.5557 14.6025L92.5898 14.6218L86.6238 14.6412L86.095 16.395C85.8047 17.3622 85.5467 18.2004 85.5274 18.2649C85.4822 18.3681 85.8305 18.3745 92.1899 18.3745C98.6911 18.3745 98.9233 18.3681 99.5876 18.2456C100.91 17.9876 101.871 17.5234 102.69 16.7432C103.535 15.9501 104.031 15.0216 104.231 13.8932C104.354 13.1839 104.354 12.926 104.231 12.2232C104.025 11.0497 103.606 10.2372 102.78 9.41188C102.006 8.64458 101.265 8.22546 100.039 7.87728L99.4586 7.70963L95.3954 7.67739L91.3321 7.6387L90.8935 7.42592C90.384 7.17445 90.126 6.8714 90.0099 6.38136C89.8358 5.64629 90.2034 4.96281 90.9902 4.60173L91.3966 4.41474L97.0981 4.3825L102.8 4.35026L102.98 3.76994C103.696 1.41645 103.877 0.810341 103.877 0.732967C103.877 0.655592 102.845 0.642696 97.4786 0.649143C93.9571 0.655592 90.9129 0.681383 90.7194 0.713623Z" fill="black"></path>
                  <path d="M106.844 9.5086V18.3745H114.861H122.878L123.413 16.582C123.716 15.6019 123.968 14.7572 123.987 14.7121C124.006 14.6541 122.697 14.6347 117.557 14.6347H111.101V13.0227V11.4107H116.583H122.065V9.54084V7.67094H116.583H111.101V6.02672V4.3825H116.989H122.884L123.013 3.94404C123.484 2.40298 124 0.687832 124 0.668489C124 0.655592 120.143 0.642696 115.422 0.642696H106.844V9.5086Z" fill="black"></path>
                </svg>
